<svg xmlns="http://www.w3.org/2000/svg" viewBox="0 0 40.47 49.7"><defs><style>.cls-1{fill:#1d80b6;}.cls-2{fill:#0b597c;}.cls-3{fill:#66cef2;}.cls-4{fill:#fff;}</style></defs><title>2-langkah</title><g id="Layer_2" data-name="Layer 2"><g id="Layer_1-2" data-name="Layer 1"><g id="_2langkah" data-name="2langkah"><path class="cls-1" d="M20.61,3.55H19.52a1.05,1.05,0,0,1-1.06-1.06v0A2.46,2.46,0,0,0,16,0H16a2.46,2.46,0,0,0-2.46,2.46v0a1.05,1.05,0,0,1-1.06,1.06H11.34A2.1,2.1,0,0,0,9.23,5.66v0a2.1,2.1,0,0,0,2.11,2.11h9.27A2.1,2.1,0,0,0,22.72,5.7v0A2.1,2.1,0,0,0,20.61,3.55Z"/><path class="cls-2" d="M16,3.55A1.07,1.07,0,1,1,17,2.49,1.07,1.07,0,0,1,16,3.55Z"/><path class="cls-3" d="M20.72,44.73H2.84A2.84,2.84,0,0,1,0,41.89V7.81C0,6.24,1.27,5,2.13,5H7.88a4.4,4.4,0,0,0-.07.73,3.53,3.53,0,0,0,3.53,3.53h9.27a3.54,3.54,0,0,0,3.53-3.57A3.11,3.11,0,0,0,24.07,5H28.4C30.68,5,32,6.24,32,7.81V29.15c-.23,0-.47,0-.71,0a11.12,11.12,0,0,0-2.84.38V12.78H3.55v28.4H19.92A11.07,11.07,0,0,0,20.72,44.73Z"/><path class="cls-1" d="M31.24,31.24a9.23,9.23,0,1,0,9.23,9.23A9.23,9.23,0,0,0,31.24,31.24Z"/><path class="cls-4" d="M37.27,38.58,31.59,45a1.43,1.43,0,0,1-1.95.16l-3.55-2.84a1.42,1.42,0,0,1,1.78-2.22l2.5,2,4.78-5.38a1.42,1.42,0,1,1,2.12,1.89Z"/><path class="cls-1" d="M19.22,27.26c-.47.46-1.12,1-1.82,1.61s-1.53,1.22-2.21,1.76h5.27a.93.93,0,0,1,1.06,1.05v2.11a.94.94,0,0,1-1.06,1.06h-11a.94.94,0,0,1-1-1.06V32.64a2.27,2.27,0,0,1,.35-1.31,2.82,2.82,0,0,1,.7-.72l1.71-1.48c1.34-1.13,2.74-2.34,4-3.44.61-.54,1.1-1,1.45-1.36a2.17,2.17,0,0,0,.49-.78,1.5,1.5,0,0,0,0-1,2,2,0,0,0-2-1.1,2.63,2.63,0,0,0-1.64.63,6.81,6.81,0,0,0-1.24,1.34,1,1,0,0,1-1.48.26L8.75,22.36c-1.19-.77-.12-1.73.47-2.51a6.39,6.39,0,0,1,.89-1A7.49,7.49,0,0,1,15,17a6.87,6.87,0,0,1,3.68,1A6.19,6.19,0,0,1,21,20.86a5.53,5.53,0,0,1,.3,3.3A7.18,7.18,0,0,1,19.22,27.26Z"/></g></g></g></svg>