<svg xmlns="http://www.w3.org/2000/svg" viewBox="0 0 367.59 293.73"><defs><style>.cls-1{isolation:isolate;}.cls-2{mix-blend-mode:multiply;}.cls-3{fill:#e8e8e8;}.cls-4{fill:#ffdda8;}.cls-5{fill:#aa6838;}.cls-6{fill:#dda866;}.cls-7{fill:#f9c98a;}.cls-8{fill:#bc7c46;}.cls-9{fill:#edc893;}.cls-10{fill:#4f2e16;}.cls-11{fill:#c68b51;}</style></defs><title>box-besar_1</title><g class="cls-1"><g id="Layer_2" data-name="Layer 2"><g id="Layer_3" data-name="Layer 3"><g class="cls-2"><polygon class="cls-3" points="240.3 212.28 97.95 130.1 0 186.67 142.34 268.85 240.3 212.28"/></g><path class="cls-4" d="M224.65,223.48,244.57,212,290,185.74V56.08L244.48,82.37,224.63,93.82l-49.37,28.51,0,129.61V252Z"/><path class="cls-5" d="M288.53,184.86l0-126.14-111.3,64.73-.4,125.91Z"/><path class="cls-6" d="M288.53,184.86,190,128l-12.9,8.23-.28,113.15Z"/><polygon class="cls-7" points="175.29 122.34 78.59 66.5 127.66 37.95 147.52 26.38 192.88 0 290.03 56.08 244.48 82.37 224.56 93.9 175.29 122.34"/><path class="cls-8" d="M175.27,122.34,78.6,66.52,78.25,195.9l97,56Z"/><polygon class="cls-4" points="290.27 183.76 354.95 172.07 356.35 45.33 354.16 44.06 290.03 56.08 288.68 57.97 288.62 182.85 290.27 183.76"/><path class="cls-6" d="M356.3,45.31,288.68,58l-.12,126.92,1.66.91,65.39-11.52Z"/><polygon class="cls-8" points="367.59 210.47 287.11 186.9 176.1 249.72 175.29 251.63 255.81 277.25 367.59 213.07 367.59 210.47"/><path class="cls-9" d="M176.1,249.72l79.75,25.13,111.74-64.38-79.06-25.61Z"/><polygon class="cls-10" points="93.14 92.27 93.14 91.34 105.05 98.22 105.04 99.14 93.14 92.27"/><polygon class="cls-10" points="102.43 100.89 101.88 99.91 104.74 98.5 101.88 93.8 102.43 93.44 105.9 99.17 102.43 100.89"/><polygon class="cls-10" points="93.14 101.39 93.13 100.46 105.04 107.33 105.04 108.25 93.14 101.39"/><polygon class="cls-10" points="102.43 110.02 101.88 109.03 104.73 107.63 101.88 102.92 102.43 102.55 105.89 108.3 102.43 110.02"/><path class="cls-10" d="M92.74,104.66v-17c0-.25.17-.35.39-.22a.87.87,0,0,1,.4.67v17c0,.24-.17.34-.39.22A.86.86,0,0,1,92.74,104.66Z"/><path class="cls-10" d="M89.58,102.68V86c0-1.78,1.25-2.48,2.77-1.61l14.49,8.36a6.12,6.12,0,0,1,2.78,4.81v16.74c0,1.75-1.25,2.46-2.78,1.59l-14.5-8.38A6.11,6.11,0,0,1,89.58,102.68Zm19.23-5.63a4.36,4.36,0,0,0-2-3.43L92.34,85.25c-1.09-.63-2-.11-2,1.16v16.73a4.34,4.34,0,0,0,2,3.41l14.49,8.38c1.09.63,2,.11,2-1.14Z"/><path class="cls-10" d="M89.64,129.47V112.73c0-1.76,1.23-2.47,2.75-1.59l14.5,8.37a6.12,6.12,0,0,1,2.77,4.78V141c0,1.77-1.24,2.47-2.76,1.59l-14.49-8.37A6.08,6.08,0,0,1,89.64,129.47Zm19.23-5.64a4.33,4.33,0,0,0-2-3.42L92.39,112c-1.08-.63-2-.13-2,1.15v16.74a4.4,4.4,0,0,0,2,3.41l14.49,8.38c1.09.62,2,.11,2-1.14Z"/><path class="cls-10" d="M93.58,123.37c0-.25.18-.36.41-.23l10.37,6a.91.91,0,0,1,.4.69c0,.25-.19.35-.4.22l-10.38-6A.89.89,0,0,1,93.58,123.37Z"/><path class="cls-10" d="M93.59,125.43V121.3a.25.25,0,0,1,.39-.25.89.89,0,0,1,.39.7v4.15c0,.25-.18.35-.39.23A.88.88,0,0,1,93.59,125.43Z"/><path class="cls-10" d="M105.71,134.78l-4.84-2.8a5.2,5.2,0,0,1-2.39-4.1v-3.34c0-1.52,1.06-2.13,2.37-1.37l4.85,2.8v1.65l-5.2-3c-.21-.12-.39,0-.38.23a.86.86,0,0,0,.38.7l5.19,3Z"/><path class="cls-11" d="M190.67,128.37V115.71l-13.53,7.87,0,12.63Z"/><polygon class="cls-4" points="333.16 15.38 288.44 58.05 177.21 123.45 175.41 122.39 218.14 77.93 331.43 14.37 333.16 15.38"/><path class="cls-6" d="M288.68,58.43l44.48-43L219.89,79l-42.68,44.49Z"/><path class="cls-5" d="M174.5,249.74l2.71-126.29-2-1.14-40,41.87-.74,128.6,1.64,1Z"/><path class="cls-9" d="M176.81,249.36l.4-125.91-40.42,41.68-.74,128.6L175.3,252Z"/></g></g></g></svg>