<svg xmlns="http://www.w3.org/2000/svg" viewBox="0 0 1300.36 281.4"><defs><style>.cls-1{opacity:0.2;}.cls-2{fill:#599893;}.cls-3{fill:#add8da;}.cls-4{fill:#fff;}</style></defs><title>city</title><g id="Layer_2" data-name="Layer 2"><g id="Layer_2-2" data-name="Layer 2"><g class="cls-1"><polygon class="cls-2" points="0.01 201.16 0.86 201.16 0.86 178.45 0 178.45 0 232.57 0.07 232.57 0.01 201.16"/><polygon class="cls-2" points="40.44 207.31 41.48 207.31 41.48 209.36 50.88 209.36 50.88 208.25 54.66 208.25 54.66 206.57 58.44 206.57 58.44 200.88 68.1 200.88 68.1 204.43 73.05 204.43 73.05 208.9 77.49 208.9 77.49 202.28 82.05 202.28 82.05 187.28 83.75 187.28 83.75 183.37 87.15 183.37 87.15 174.76 82.99 174.76 82.99 163.05 72.44 163.05 72.44 143.61 68.77 143.61 68.77 141.35 61.1 134.96 61.1 130.57 56.44 130.57 56.49 124.6 53.58 124.59 53.59 114.77 51.48 114.77 51.49 124.58 48.57 124.57 48.57 130.57 43.84 130.57 43.84 135.09 37.45 140.42 37.45 143.48 32.98 143.48 32.98 202.94 40.44 202.94 40.44 207.31"/><path class="cls-2" d="M407.53,147.21h4.05v-5.4H427.8l9.74,7v23.74h6.51V74.28l-15.3-2.82-.69-12.91a3.92,3.92,0,0,0,2.77-3.38c0-1.55-1.27-2.87-3.09-3.51L426.55,26l-.68-26-1.45,26-1.37,25.58c-1.88.62-3.19,2-3.19,3.55s1.14,2.73,2.81,3.4l-.5,12.78-16.71,3.2v110h2.07Z"/><polygon class="cls-2" points="7.17 208.25 11.74 208.25 11.74 204.52 17.09 204.52 17.09 209.65 22.05 209.65 22.05 207.31 29.78 207.31 29.78 178.93 26.44 178.9 22.11 171.44 19.8 171.44 19.8 168.02 13.37 167.99 13.34 171.44 10.39 171.44 6.13 178.76 2.94 178.76 2.94 201.17 7.17 201.18 7.17 208.25"/><polygon class="cls-2" points="116.89 192.22 116.89 174.37 125.91 167.9 130.97 167.9 130.97 166.88 141.54 166.88 141.54 167.9 149.89 167.9 149.89 166.69 152.11 166.69 152.11 167.9 155.37 167.9 155.37 179.27 162.28 179.27 162.28 187.09 179.89 187.09 179.89 119.26 183.34 119.24 183.34 111.67 178.86 111.67 178.86 104.48 160.33 104.48 149.14 113.8 149.14 138.56 141.12 138.56 138.08 136.03 138.08 94.49 134.27 94.44 134.27 92.68 114.48 92.68 114.5 84.28 112.83 84.24 112.79 92.68 107.28 92.68 107.28 94.13 103.57 94.09 103.57 141.48 99.19 141.48 99.19 155.73 96.25 155.73 96.25 190.74 93.01 190.74 93.01 192.22 116.89 192.22"/><polygon class="cls-2" points="278.12 122.24 285.17 122.24 285.17 121.03 294.3 121.03 294.3 122.33 301.89 122.33 302.01 205.63 305.65 205.62 305.65 103.98 307.11 103.98 307.1 99.17 303.83 99.17 303.83 98.35 301.4 98.35 301.4 99.17 300.18 99.17 300.18 97.11 297.57 97.11 297.57 99.17 293.74 99.17 293.74 98.35 290.25 98.35 290.25 99.17 287.47 99.17 287.47 98.35 285.03 98.35 285.03 99.17 281.9 99.17 281.9 96.36 278.76 96.36 278.76 99.17 276.48 99.17 276.48 121.12 278.12 121.12 278.12 122.24"/><polygon class="cls-2" points="359.66 193.06 359.66 132.86 365.79 132.86 365.79 132.03 370.09 132.03 370.09 127.18 378.12 127.2 378.08 132.03 383.27 132.03 383.27 132.86 389.27 132.86 389.27 174.7 390.75 174.7 390.75 109.4 389.69 109.4 389.69 107.99 388.17 107.99 388.17 109.4 378.41 109.4 378.41 102.38 377.11 102.39 377.11 109.4 374.51 109.4 374.51 108.44 371.26 108.44 371.26 109.4 360.2 109.4 360.2 107.84 358.9 107.84 358.9 106.36 356.95 106.36 356.95 109.4 355.75 109.4 355.88 193.06 359.66 193.06"/><polygon class="cls-2" points="250.86 145.54 257.77 145.54 257.77 193.79 264.29 189.14 267.82 189.14 267.82 122.24 270.95 122.24 270.95 121.12 271.69 121.12 271.69 53.89 268.63 53.89 268.6 20.89 265.08 20.83 265.05 53.89 244.48 53.89 244.39 37.8 240.89 37.87 240.89 53.89 237.98 53.89 237.98 142.74 250.86 142.74 250.86 145.54"/><polygon class="cls-2" points="471.07 129.21 474.95 134.1 477.45 134.08 477.45 169.58 481.24 169.58 481.24 180.2 483.85 180.2 483.85 206.38 491.81 206.38 491.81 194.46 495.33 194.46 495.33 185.7 504.59 185.7 504.59 171.16 507.85 171.16 507.85 169.44 514.5 164.66 514.5 161.38 516.09 161.38 516.09 147.03 505.79 139.35 503.92 139.35 503.92 121.99 498.2 121.99 498.21 117.81 478.02 117.81 478.02 110.91 475.54 110.9 475.54 105.77 469.27 105.79 469.23 110.88 465.75 110.87 465.7 117.81 455.4 117.81 455.4 129.23 455.41 129.23 471.07 129.21"/><polygon class="cls-2" points="213.55 195.57 226.47 195.57 226.47 145.54 232.07 145.54 232.07 92.5 229.75 92.5 229.75 90.53 221.94 90.53 221.94 85.74 214.32 85.74 214.32 90.53 206.51 90.53 206.51 92.5 204.43 92.5 204.43 119.5 213.55 119.46 213.55 195.57"/><polygon class="cls-2" points="541.9 224.55 541.9 200.21 545.1 198.22 548.58 191.94 557.66 191.94 562.54 197.44 565.34 197.44 578.03 197.43 578.03 212.25 582.6 212.25 582.6 220.08 587.16 220.08 587.16 214.4 591.99 214.4 591.99 210.85 601.64 210.85 601.64 216.54 605.43 216.54 605.43 218.22 609.21 218.22 609.21 219.34 618.74 219.34 618.74 217.28 619.65 217.28 619.65 212.81 629.69 212.81 629.69 217.28 638.04 217.28 638.04 219.61 643 219.61 643 214.49 648.1 214.49 648.1 183.78 641.61 183.78 641.61 193.23 636.49 193.23 636.49 188.3 630.26 188.3 630.26 195.09 622.21 195.09 622.21 192.03 615.08 192.03 615.08 189.41 610.13 189.41 610.13 186.23 601.6 186.22 601.62 189.41 597 189.41 597 192.03 595.88 192.03 595.88 194.69 586.27 194.66 586.32 179.22 583.01 179.22 583.01 171.63 571.99 171.63 571.99 176.42 566.39 176.42 566.35 194.06 561.23 194.06 561.23 185.24 555.96 185.24 555.96 165.14 554.04 165.14 554.04 159.99 548.13 159.99 548.13 165.14 543.5 165.14 543.5 171.84 539.03 171.84 539.03 224.55 541.9 224.55"/><polygon class="cls-2" points="324.7 104.03 337.48 104.01 337.48 101.83 343.45 101.83 343.45 91.83 341.17 91.83 341.17 91.09 339.31 91.09 339.31 91.83 335.6 91.83 335.6 91.09 331.88 91.09 331.88 91.83 328.16 91.83 328.16 87.09 323.14 87.11 323.14 91.83 312.12 91.83 312.12 102.02 324.7 102.02 324.7 104.03"/><rect class="cls-2" x="0.86" y="201.16" width="2.08" height="11.9"/><polygon class="cls-2" points="185.46 138.69 185.46 133.69 188.77 133.69 188.77 127.24 201.23 127.24 201.23 141.35 204.43 141.35 204.43 119.5 201.46 119.51 201.42 81.8 192.16 81.8 192.11 119.19 183.34 119.24 183.34 138.69 185.46 138.69"/><polygon class="cls-2" points="93.01 190.74 93.01 187.28 88.97 187.28 88.97 183.37 87.15 183.37 87.15 190.74 93.01 190.74"/><polygon class="cls-2" points="523.72 171.84 523.72 169.82 533.03 169.82 533.07 171.84 539.03 171.84 539.03 171.07 535.12 171.07 535.12 168.74 529.64 164.76 529.64 161.38 516.09 161.38 516.09 171.84 523.72 171.84"/><polygon class="cls-2" points="31.38 214.97 31.38 211.37 32.98 211.37 32.98 202.94 30.39 202.94 30.39 207.31 29.78 207.31 29.78 214.97 31.38 214.97"/><polygon class="cls-2" points="307.24 176.57 307.97 176.56 312.12 176.51 312.12 102.02 310.21 102.02 310.21 103.98 307.11 103.98 307.24 170.72 307.24 176.57"/><polygon class="cls-2" points="273.64 176.63 273.64 176.45 276.48 176.45 276.48 160.35 273.64 160.35 273.64 157.8 276.48 157.8 276.48 154.17 273.64 154.17 273.64 151.62 276.48 151.62 276.48 148 273.64 148 273.64 145.45 276.48 145.45 276.48 141.69 273.64 141.69 273.64 139.14 276.48 139.14 276.48 121.12 271.69 121.12 271.69 176.63 273.64 176.63"/><path class="cls-2" d="M347.15,171.59l1.61,2.22h1.74v2.37L354,181l.93,1.27V109.4h.8V104h-4.56v-2.14h-7.73v69.73Zm-2.26-42.66h5.61v5.61h-5.61Zm0,15h5.61v5.61h-5.61Zm5.61,15v5.61h-5.61v-5.61Z"/><polygon class="cls-2" points="405.46 184.65 405.46 184.58 403.64 184.58 403.7 158.74 399.84 158.73 399.84 157.77 393.31 157.75 393.31 158.86 392.01 158.86 392.01 174.7 390.75 174.7 390.75 184.65 405.46 184.65"/><path class="cls-2" d="M6.2,275.79h5.61v4.55h4.24v-4.55h5.61v4.55H35.75v-4.55h5.61v4.55H65.72v-1.81h2.35v1.81h1.37v-1.81h2.34v1.81h51.08v-2.81h5.61v2.81h4.24v-2.81h5.61v2.81h4.24v-2.81h5.6v2.81H592V278h2.34v2.35h8.81V278h2.35v2.35h42.59v-6.68h-1.81v-4.27h1.81V246.17H574.7v.42h-4.28v-.42h-2.49v.42h-4.28v-.42h-2.5v.42h-4.27v-.42H402.17v2.58h-5.61v-2.58H350.5v1.49h-5.61v-1.49h-4.24v1.49H335v-1.49H321v1.49h-5.61v-1.49H75.5v2.23H73.15v-2.23H68.07v2.23H65.72v-2.23H0v34.17H6.2Zm633.31-6.4h4.27v4.27h-4.27ZM632.74,276H637v4.28h-4.27Zm-29.59-8.8h2.35v2.35h-2.35Zm0,3.61h2.35v2.35h-2.35Zm-8.81,6H592v-2.35h2.34Zm5.09-16.55h2.35v2.35h-2.35Zm0,10.59h2.35v2.35h-2.35Zm-3.72-10.59h2.35v2.35h-2.35Zm0,7h2.35v2.35h-2.35Zm0,7.22h2.35v2.35h-2.35Zm-1.37-1.26H592v-2.35h2.34Zm-3.06-8.92h2.35v2.35h-2.35Zm-20.86-15.31h4.28v4.28h-4.28Zm-6.77,6.57h4.28v4.28h-4.28Zm-6.77,0h4.27v4.28h-4.27Zm-160.32,5.18h5.61v5.61h-5.61ZM344.89,257h5.61v5.61h-5.61Zm-19.7,0h5.61v5.61h-5.61Zm-182.63-9.4h5.6v5.61h-5.6Zm0,15h5.6v5.61h-5.6Zm-9.85-15h5.61v5.61h-5.61Zm0,15h5.61v5.61h-5.61Zm-9.85-15h5.61v5.61h-5.61Zm0,15h5.61v5.61h-5.61ZM73.15,249.66H75.5V252H73.15Zm0,7.22H75.5v2.34H73.15Zm0,3.61H75.5v2.34H73.15Zm0,7.21H75.5v2.35H73.15Zm-3.71-18h2.34V252H69.44Zm0,10.83h2.34v2.34H69.44Zm0,3.6h2.34v2.35H69.44Zm0,7.22h2.34v2.35H69.44Zm-3.72-18h2.35v2.35H65.72Zm0,10.82h2.35v2.35H65.72Zm0,3.61h2.35v2.35H65.72Zm0,3.61h2.35v2.35H65.72ZM62,249.66h2.35V252H62Zm0,3.61h2.35v2.35H62Zm0,3.61h2.35v2.34H62Zm0,7.21h2.35v2.35H62Zm0,7.22h2.35v2.35H62Zm0,3.61h2.35v2.35H62ZM35.75,250h5.61v5.61H35.75Zm0,12.92h5.61v5.61H35.75ZM25.9,250h5.61v5.61H25.9Zm0,12.92h5.61v5.61H25.9ZM16.05,250h5.61v5.61H16.05Zm0,12.92h5.61v5.61H16.05ZM6.2,250h5.61v5.61H6.2Z"/><polygon class="cls-2" points="455.4 182.08 455.4 160.31 451.25 160.31 451.25 154.7 455.4 154.7 455.4 129.23 453.1 129.23 449.51 134.36 447.19 134.38 447.19 170.68 444.59 172.56 444.05 172.56 444.05 182.08 455.4 182.08"/><polygon class="cls-2" points="237.98 148.94 237.98 142.74 233.51 142.74 233.51 145.54 232.07 145.54 232.07 148.94 237.98 148.94"/><path class="cls-2" d="M65.72,246.05h2.35v.12h5.08v-.12H75.5v.12H315.34v-4.12H321v4.12H335v-4.12h5.61v4.12h4.24v-4.12h5.61v4.12h46.06v-3h5.61v3H556.88v-3.85h4.27v3.85h2.5v-3.85h4.28v3.85h2.49v-3.85h4.28v3.85h73.39V214.49H643v5.12h-5v-2.32h-8.35v-4.48h-10v4.48h-.92v2h-9.52v-1.11h-3.78v-1.68h-3.78v-5.68H592v3.54h-4.82v5.68H582.6v-7.83H578V197.43H562.55l-4.89-5.5h-9.08l-3.48,6.28-3.2,2v24.34H539V171.84h-6l0-2h-9.32v2h-7.62V161.38H514.5v3.28l-6.65,4.78v1.72h-3.26V185.7h-9.26v8.76H491.8v11.92h-7.95V180.2h-2.61V169.58h-3.79v-35.5l-2.5,0-3.88-4.9-15.66,0h0V154.7h1.46v5.61H455.4v21.77H444.05v-9.52h-6.51V148.82l-9.74-7H411.58v5.4h-4.05v37.37h-2.07v.07H390.74v-10h-1.47V132.86h-6V132h-5.19l0-4.83-8,0V132h-4.3v.83h-6.13v60.2h-3.78l-.13-83.66H355v72.88L354,181l-3.52-4.83v3.24h-5.61v-5.61h3.87l-1.61-2.22-3.7,0V101.84h-6V104l-12.78,0v-2H312.12v74.49l-4.15.05h-.73v-5.85L307.11,104h-1.46V205.62H302l-.13-83.3H294.3V121h-9.13v1.21h-7.05v-1.12h-1.64v18H300v2.55H276.48v3.76h8.65V148h-8.65v3.62h8.65v2.55h-8.65v3.63H300v2.55H276.48v16.1H300V179H273.64v-2.37h-1.95V121.12H271v1.12h-3.13v66.9h-3.53l-6.52,4.65V145.54h-6.91v-2.8H238v6.2h-5.91v-3.4h-5.6v50H213.55V119.46l-9.12,0v21.85h-3.2V127.24H188.77v6.45h5.74v9.05h-9v-4.05h-2.12V119.24l-3.45,0v67.83H162.28v-7.82h-6.91V167.9h-3.26v-1.21h-2.22v1.21h-8.35v-1H131v1h-5.06l-9,6.47v17.85H93v-1.48H87.15v-7.37h-3.4v3.91h-1.7v15H77.49v6.62H73.05v-4.47h-5v-3.55H58.44v5.69H54.66v1.68H50.88v1.11h-9.4v-2.05h-1v-4.37H33v8.43h-1.6V215h-1.6v-7.66H22.05v2.33h-5v-5.12H11.74v3.73H7.17v-7.07H2.94v11.89H.86v-11.9H0l.06,31.41H0v13.6H65.72Zm470.54-25.48v2.1h-26v-2.1Zm-26.09-15.38h7.16v2.1h-7.16Zm0,5.2h15.69v2.1H510.17Zm0,5.09h4.73v2.1h-4.73ZM501,226.12h35.28v2.1H501Zm0,5.55h35.28v2.1H501Zm0,5.54h35.28v2.11H501Zm0,5.55h11.56v2.11H501Zm-38.51-7.66h-5.61v-5.6h5.61Zm-9.26-14.95v-5.61h5.61v5.61ZM471,154.7h5.61v5.61H471Zm0,15h5.61v5.61H471Zm0,29.92h5.61v5.61H471Zm0,29.92h5.61v5.6H471Zm-1.44-9.35h-5.6v-5.61h5.6ZM461.1,154.7h5.61v5.61H461.1Zm0,15h5.61v5.61H461.1Zm0,15h5.61v5.61H461.1Zm-.85,15v5.61h-5.61v-5.61Zm-9-15h5.61v5.61h-5.61Zm-22.9-13.42h8.26v8.26h-8.26Zm0,51.17h8.26v8.26h-8.26Zm-15.49-37h8.26v8.26h-8.26Zm0,15.88h8.26v8.26h-8.26Zm-16.3-10.63h5.61v5.61h-5.61Zm0,17.49h5.61v5.61h-5.61Zm0,17.5h5.61v5.61h-5.61Zm-15.09-65.58h4.39v4.39h-4.39Zm0,5.56h4.39V170h-4.39Zm0,5.57h4.39v4.39h-4.39Zm0,5.56h4.39v4.4h-4.39Zm0,5.57h4.39v4.39h-4.39Zm0,5.57h4.39v4.39h-4.39Zm0,5.56h4.39v4.39h-4.39Zm0,5.57h4.39v4.39h-4.39Zm0,5.56h4.39V209h-4.39Zm0,5.57h4.39v4.39h-4.39Zm-5.65-50.09h4.39v4.39h-4.39Zm0,5.56h4.39V170h-4.39Zm0,5.57h4.39v4.39h-4.39Zm0,5.56h4.39v4.4h-4.39Zm0,5.57h4.39v4.39h-4.39Zm0,5.57h4.39v4.39h-4.39Zm0,5.56h4.39v4.39h-4.39Zm0,5.57h4.39v4.39h-4.39Zm0,5.56h4.39V209h-4.39Zm0,5.57h4.39v4.39h-4.39Zm-5.65-50.09h4.39v4.39h-4.39Zm0,5.56h4.39V170h-4.39Zm0,5.57h4.39v4.39h-4.39Zm0,5.56h4.39v4.4h-4.39Zm0,5.57h4.39v4.39h-4.39Zm0,5.57h4.39v4.39h-4.39Zm0,5.56h4.39v4.39h-4.39Zm0,5.57h4.39v4.39h-4.39Zm0,5.56h4.39V209h-4.39Zm0,5.57h4.39v4.39h-4.39Zm-5.66-50.09h4.4v4.39h-4.4Zm0,5.56h4.4V170h-4.4Zm0,5.57h4.4v4.39h-4.4Zm0,5.56h4.4v4.4h-4.4Zm0,5.57h4.4v4.39h-4.4Zm0,5.57h4.4v4.39h-4.4Zm0,5.56h4.4v4.39h-4.4Zm0,5.57h4.4v4.39h-4.4Zm0,5.56h4.4V209h-4.4Zm0,5.57h4.4v4.39h-4.4Zm-19.62-21.4h5.61v5.61h-5.61Zm0,23.38h5.61v5.61h-5.61Zm0,15h5.61v5.61h-5.61ZM335,114h5.61v5.61H335Zm0,15h5.61v5.61H335Zm0,15h5.61v5.61H335Zm0,15h5.61v5.61H335Zm0,29.91h5.61v5.61H335Zm0,23.38h5.61v5.61H335ZM325.19,114h5.61v5.61h-5.61Zm0,29.92h5.61v5.61h-5.61Zm0,15h5.61v5.61h-5.61Zm0,15h5.61v5.61h-5.61Zm0,38.33h5.61v5.61h-5.61Zm0,15h5.61v5.61h-5.61ZM315.34,114H321v5.61h-5.61Zm0,15H321v5.61h-5.61Zm0,15H321v5.61h-5.61Zm0,15H321v5.61h-5.61Zm0,15H321v5.61h-5.61Zm0,14.95H321v5.61h-5.61Zm0,12.05h4.88v4.89h-4.88Zm0,26.29H321v5.61h-5.61Zm-41.7-32H300v2.55H273.64Zm0,18.65H300v2.55H273.64Zm-21.37-35.29h4.28v4.28h-4.28Zm0,6.57h4.28v4.28h-4.28Zm0,6.58h4.28v4.27h-4.28Zm0,13.14h4.28V209h-4.28Zm0,13.15h4.28v4.28h-4.28Zm0,6.57h4.28v4.28h-4.28ZM245.5,171.9h4.27v4.27H245.5Zm0,13.14h4.27v4.28H245.5Zm0,19.72h4.27V209H245.5Zm0,6.58h4.27v4.27H245.5Zm0,6.57h4.27v4.28H245.5Zm0,13.15h4.27v4.27H245.5Zm-6.77-52.59H243v4.28h-4.27Zm0,19.72H243v4.28h-4.27Zm0,6.57H243V209h-4.27Zm0,13.15H243v4.28h-4.27Zm0,13.15H243v4.27h-4.27ZM232,171.9h4.27v4.27H232Zm0,6.57h4.27v4.28H232Zm0,13.15h4.27v4.27H232Zm0,6.57h4.27v4.28H232Zm0,13.15h4.27v4.27H232Zm-29.54-62.08h9.05v9h-9.05Zm0,17.39h9.05v9h-9.05Zm-17,23.09h9v9h-9Zm0,26.88h9v9h-9Zm-42.9-13.88h5.6v5.61h-5.6Zm0,15h5.6v5.61h-5.6Zm0,15h5.6v5.61h-5.6Zm-9.85-29.92h5.61v5.61h-5.61Zm0,15h5.61v5.61h-5.61Zm0,15h5.61v5.61h-5.61Zm-9.85-29.92h5.61v5.61h-5.61Zm0,15h5.61v5.61h-5.61Zm0,15h5.61v5.61h-5.61Z"/><rect class="cls-3" x="6.2" y="249.96" width="5.61" height="5.61"/><rect class="cls-3" x="65.72" y="246.17" width="2.35" height="2.23"/><rect class="cls-3" x="65.72" y="246.05" width="2.35" height="0.12"/><rect class="cls-3" x="73.15" y="246.17" width="2.35" height="2.23"/><rect class="cls-3" x="73.15" y="246.05" width="2.35" height="0.12"/><rect class="cls-3" x="62" y="249.66" width="2.35" height="2.35"/><rect class="cls-3" x="69.44" y="249.66" width="2.35" height="2.35"/><rect class="cls-3" x="73.15" y="249.66" width="2.35" height="2.35"/><rect class="cls-3" x="62" y="253.27" width="2.35" height="2.35"/><rect class="cls-3" x="65.72" y="253.27" width="2.35" height="2.35"/><rect class="cls-3" x="62" y="256.88" width="2.35" height="2.35"/><rect class="cls-3" x="73.15" y="256.88" width="2.35" height="2.35"/><rect class="cls-3" x="69.44" y="260.49" width="2.35" height="2.35"/><rect class="cls-3" x="73.15" y="260.49" width="2.35" height="2.35"/><rect class="cls-3" x="62" y="264.09" width="2.35" height="2.35"/><rect class="cls-3" x="65.72" y="264.09" width="2.35" height="2.35"/><rect class="cls-3" x="69.44" y="264.09" width="2.35" height="2.35"/><rect class="cls-3" x="65.72" y="267.7" width="2.35" height="2.35"/><rect class="cls-3" x="73.15" y="267.7" width="2.35" height="2.35"/><rect class="cls-3" x="62" y="271.31" width="2.35" height="2.35"/><rect class="cls-3" x="65.72" y="271.31" width="2.35" height="2.35"/><rect class="cls-3" x="69.44" y="271.31" width="2.35" height="2.35"/><rect class="cls-3" x="62" y="274.92" width="2.35" height="2.35"/><rect class="cls-3" x="65.72" y="278.53" width="2.35" height="1.8"/><rect class="cls-3" x="69.44" y="278.53" width="2.35" height="1.8"/><rect class="cls-3" x="595.71" y="267.16" width="2.35" height="2.35"/><rect class="cls-3" x="603.15" y="267.16" width="2.35" height="2.35"/><rect class="cls-3" x="592" y="270.77" width="2.35" height="2.35"/><rect class="cls-3" x="599.43" y="270.77" width="2.35" height="2.35"/><rect class="cls-3" x="603.15" y="270.77" width="2.35" height="2.35"/><rect class="cls-3" x="592" y="274.38" width="2.35" height="2.35"/><rect class="cls-3" x="595.71" y="274.38" width="2.35" height="2.35"/><rect class="cls-3" x="592" y="277.99" width="2.35" height="2.35"/><rect class="cls-3" x="603.15" y="277.99" width="2.35" height="2.35"/><rect class="cls-3" x="591.28" y="264.2" width="2.35" height="2.35"/><rect class="cls-3" x="595.71" y="260.18" width="2.35" height="2.35"/><rect class="cls-3" x="599.43" y="260.18" width="2.35" height="2.35"/><rect class="cls-3" x="245.5" y="171.9" width="4.28" height="4.28"/><rect class="cls-3" x="231.96" y="171.9" width="4.28" height="4.28"/><rect class="cls-3" x="252.27" y="178.47" width="4.28" height="4.28"/><rect class="cls-3" x="238.73" y="178.47" width="4.28" height="4.28"/><rect class="cls-3" x="231.96" y="178.47" width="4.28" height="4.28"/><rect class="cls-3" x="252.27" y="185.04" width="4.28" height="4.28"/><rect class="cls-3" x="245.5" y="185.04" width="4.28" height="4.28"/><rect class="cls-3" x="252.27" y="191.62" width="4.28" height="4.28"/><rect class="cls-3" x="231.96" y="191.62" width="4.28" height="4.28"/><rect class="cls-3" x="238.73" y="198.19" width="4.28" height="4.28"/><rect class="cls-3" x="231.96" y="198.19" width="4.28" height="4.28"/><rect class="cls-3" x="252.27" y="204.76" width="4.28" height="4.28"/><rect class="cls-3" x="245.5" y="204.76" width="4.28" height="4.28"/><rect class="cls-3" x="238.73" y="204.76" width="4.28" height="4.28"/><rect class="cls-3" x="245.5" y="211.34" width="4.28" height="4.28"/><rect class="cls-3" x="231.96" y="211.34" width="4.28" height="4.28"/><rect class="cls-3" x="252.27" y="217.91" width="4.28" height="4.28"/><rect class="cls-3" x="245.5" y="217.91" width="4.28" height="4.28"/><rect class="cls-3" x="238.73" y="217.91" width="4.28" height="4.28"/><rect class="cls-3" x="252.27" y="224.48" width="4.28" height="4.28"/><rect class="cls-3" x="245.5" y="231.06" width="4.28" height="4.28"/><rect class="cls-3" x="238.73" y="231.06" width="4.28" height="4.28"/><rect class="cls-3" x="570.42" y="246.17" width="4.28" height="0.42"/><rect class="cls-3" x="570.42" y="242.32" width="4.28" height="3.85"/><rect class="cls-3" x="563.65" y="246.17" width="4.28" height="0.42"/><rect class="cls-3" x="563.65" y="242.32" width="4.28" height="3.85"/><rect class="cls-3" x="556.88" y="246.17" width="4.28" height="0.42"/><rect class="cls-3" x="556.88" y="242.32" width="4.28" height="3.85"/><rect class="cls-3" x="570.42" y="248.89" width="4.28" height="4.28"/><rect class="cls-3" x="639.51" y="269.39" width="4.28" height="4.28"/><rect class="cls-3" x="646.28" y="269.39" width="1.82" height="4.28"/><rect class="cls-3" x="632.74" y="275.96" width="4.28" height="4.28"/><rect class="cls-3" x="563.65" y="255.46" width="4.28" height="4.28"/><rect class="cls-3" x="556.88" y="255.46" width="4.28" height="4.28"/><rect class="cls-3" x="16.05" y="249.96" width="5.61" height="5.61"/><rect class="cls-3" x="25.9" y="249.96" width="5.61" height="5.61"/><rect class="cls-3" x="35.75" y="249.96" width="5.61" height="5.61"/><rect class="cls-3" x="122.86" y="202.74" width="5.61" height="5.61"/><rect class="cls-3" x="132.71" y="202.74" width="5.61" height="5.61"/><rect class="cls-3" x="142.56" y="202.74" width="5.61" height="5.61"/><rect class="cls-3" x="122.86" y="217.7" width="5.61" height="5.61"/><rect class="cls-3" x="132.71" y="217.7" width="5.61" height="5.61"/><rect class="cls-3" x="142.56" y="217.7" width="5.61" height="5.61"/><rect class="cls-3" x="122.86" y="232.66" width="5.61" height="5.61"/><rect class="cls-3" x="132.71" y="232.66" width="5.61" height="5.61"/><rect class="cls-3" x="142.56" y="232.66" width="5.61" height="5.61"/><rect class="cls-3" x="122.86" y="247.61" width="5.61" height="5.61"/><rect class="cls-3" x="132.71" y="247.61" width="5.61" height="5.61"/><rect class="cls-3" x="142.56" y="247.61" width="5.61" height="5.61"/><rect class="cls-3" x="122.86" y="262.57" width="5.61" height="5.61"/><rect class="cls-3" x="132.71" y="262.57" width="5.61" height="5.61"/><rect class="cls-3" x="142.56" y="262.57" width="5.61" height="5.61"/><rect class="cls-3" x="122.86" y="277.53" width="5.61" height="2.8"/><rect class="cls-3" x="132.71" y="277.53" width="5.61" height="2.8"/><rect class="cls-3" x="142.56" y="277.53" width="5.61" height="2.8"/><rect class="cls-3" x="451.25" y="154.7" width="4.15" height="5.61"/><rect class="cls-3" x="455.4" y="154.7" width="1.46" height="5.61"/><rect class="cls-3" x="461.1" y="154.7" width="5.61" height="5.61"/><rect class="cls-3" x="470.95" y="154.7" width="5.61" height="5.61"/><rect class="cls-3" x="461.1" y="169.66" width="5.61" height="5.61"/><rect class="cls-3" x="470.95" y="169.66" width="5.61" height="5.61"/><rect class="cls-3" x="451.25" y="184.62" width="5.61" height="5.61"/><rect class="cls-3" x="461.1" y="184.62" width="5.61" height="5.61"/><rect class="cls-3" x="454.64" y="199.58" width="5.61" height="5.61"/><rect class="cls-3" x="470.95" y="199.58" width="5.61" height="5.61"/><rect class="cls-3" x="453.21" y="214.54" width="5.61" height="5.61"/><rect class="cls-3" x="463.91" y="214.54" width="5.61" height="5.61"/><rect class="cls-3" x="396.56" y="190.66" width="5.61" height="5.61"/><rect class="cls-3" x="396.56" y="208.15" width="5.61" height="5.61"/><rect class="cls-3" x="396.56" y="225.65" width="5.61" height="5.61"/><rect class="cls-3" x="396.56" y="246.17" width="5.61" height="2.58"/><rect class="cls-3" x="396.56" y="243.14" width="5.61" height="3.03"/><rect class="cls-3" x="396.56" y="260.64" width="5.61" height="5.61"/><rect class="cls-3" x="456.86" y="229.5" width="5.61" height="5.61"/><rect class="cls-3" x="470.95" y="229.5" width="5.61" height="5.61"/><rect class="cls-3" x="315.34" y="113.97" width="5.61" height="5.61"/><rect class="cls-3" x="325.19" y="113.97" width="5.61" height="5.61"/><rect class="cls-3" x="335.04" y="113.97" width="5.61" height="5.61"/><rect class="cls-3" x="315.34" y="128.93" width="5.61" height="5.61"/><rect class="cls-3" x="335.04" y="128.93" width="5.61" height="5.61"/><rect class="cls-3" x="315.34" y="143.89" width="5.61" height="5.61"/><rect class="cls-3" x="325.19" y="143.89" width="5.61" height="5.61"/><rect class="cls-3" x="335.04" y="143.89" width="5.61" height="5.61"/><rect class="cls-3" x="315.34" y="158.85" width="5.61" height="5.61"/><rect class="cls-3" x="325.19" y="158.85" width="5.61" height="5.61"/><rect class="cls-3" x="335.04" y="158.85" width="5.61" height="5.61"/><rect class="cls-3" x="315.34" y="173.81" width="5.61" height="5.61"/><rect class="cls-3" x="325.19" y="173.81" width="5.61" height="5.61"/><rect class="cls-3" x="315.34" y="188.76" width="5.61" height="5.61"/><rect class="cls-3" x="335.04" y="188.76" width="5.61" height="5.61"/><rect class="cls-3" x="344.89" y="128.93" width="5.61" height="5.61"/><rect class="cls-3" x="344.89" y="143.89" width="5.61" height="5.61"/><rect class="cls-3" x="344.89" y="158.85" width="5.61" height="5.61"/><polygon class="cls-3" points="348.76 173.81 350.5 176.18 350.5 173.81 348.76 173.81"/><polygon class="cls-3" points="344.89 173.81 344.89 179.42 350.5 179.42 350.5 176.18 348.76 173.81 344.89 173.81"/><rect class="cls-3" x="344.89" y="188.76" width="5.61" height="5.61"/><rect class="cls-3" x="185.46" y="133.69" width="3.31" height="5"/><polygon class="cls-3" points="185.46 138.69 185.46 142.74 194.51 142.74 194.51 133.69 188.77 133.69 188.77 138.69 185.46 138.69"/><rect class="cls-3" x="202.42" y="149.26" width="9.04" height="9.04"/><rect class="cls-3" x="364.51" y="160.07" width="4.39" height="4.39"/><rect class="cls-3" x="370.17" y="160.07" width="4.39" height="4.39"/><rect class="cls-3" x="375.82" y="160.07" width="4.39" height="4.39"/><rect class="cls-3" x="381.47" y="160.07" width="4.39" height="4.39"/><rect class="cls-3" x="364.51" y="165.63" width="4.39" height="4.39"/><rect class="cls-3" x="370.17" y="165.63" width="4.39" height="4.39"/><rect class="cls-3" x="375.82" y="165.63" width="4.39" height="4.39"/><rect class="cls-3" x="381.47" y="165.63" width="4.39" height="4.39"/><rect class="cls-3" x="364.51" y="171.2" width="4.39" height="4.39"/><rect class="cls-3" x="370.17" y="171.2" width="4.39" height="4.39"/><rect class="cls-3" x="375.82" y="171.2" width="4.39" height="4.39"/><rect class="cls-3" x="381.47" y="171.2" width="4.39" height="4.39"/><rect class="cls-3" x="364.51" y="176.76" width="4.39" height="4.39"/><rect class="cls-3" x="370.17" y="176.76" width="4.39" height="4.39"/><rect class="cls-3" x="375.82" y="176.76" width="4.39" height="4.39"/><rect class="cls-3" x="381.47" y="176.76" width="4.39" height="4.39"/><rect class="cls-3" x="364.51" y="182.33" width="4.39" height="4.39"/><rect class="cls-3" x="370.17" y="182.33" width="4.39" height="4.39"/><rect class="cls-3" x="375.82" y="182.33" width="4.39" height="4.39"/><rect class="cls-3" x="381.47" y="182.33" width="4.39" height="4.39"/><rect class="cls-3" x="364.51" y="187.9" width="4.39" height="4.39"/><rect class="cls-3" x="370.17" y="187.9" width="4.39" height="4.39"/><rect class="cls-3" x="375.82" y="187.9" width="4.39" height="4.39"/><rect class="cls-3" x="381.47" y="187.9" width="4.39" height="4.39"/><rect class="cls-3" x="364.51" y="193.46" width="4.39" height="4.39"/><rect class="cls-3" x="370.17" y="193.46" width="4.39" height="4.39"/><rect class="cls-3" x="375.82" y="193.46" width="4.39" height="4.39"/><rect class="cls-3" x="381.47" y="193.46" width="4.39" height="4.39"/><rect class="cls-3" x="364.51" y="199.03" width="4.39" height="4.39"/><rect class="cls-3" x="370.17" y="199.03" width="4.39" height="4.39"/><rect class="cls-3" x="375.82" y="199.03" width="4.39" height="4.39"/><rect class="cls-3" x="381.47" y="199.03" width="4.39" height="4.39"/><rect class="cls-3" x="364.51" y="204.59" width="4.39" height="4.39"/><rect class="cls-3" x="370.17" y="204.59" width="4.39" height="4.39"/><rect class="cls-3" x="375.82" y="204.59" width="4.39" height="4.39"/><rect class="cls-3" x="381.47" y="204.59" width="4.39" height="4.39"/><rect class="cls-3" x="364.51" y="210.16" width="4.39" height="4.39"/><rect class="cls-3" x="370.17" y="210.16" width="4.39" height="4.39"/><rect class="cls-3" x="375.82" y="210.16" width="4.39" height="4.39"/><rect class="cls-3" x="381.47" y="210.16" width="4.39" height="4.39"/><rect class="cls-3" x="273.64" y="139.14" width="2.83" height="2.55"/><rect class="cls-3" x="276.48" y="139.14" width="23.48" height="2.55"/><rect class="cls-3" x="273.64" y="157.8" width="2.83" height="2.55"/><rect class="cls-3" x="276.48" y="157.8" width="23.48" height="2.55"/><rect class="cls-3" x="273.64" y="176.45" width="2.83" height="0.18"/><polygon class="cls-3" points="273.64 176.63 273.64 179 299.96 179 299.96 176.45 276.48 176.45 276.48 176.63 273.64 176.63"/><rect class="cls-3" x="273.64" y="195.11" width="26.31" height="2.55"/><rect class="cls-3" x="273.64" y="213.76" width="26.31" height="2.55"/><rect class="cls-3" x="273.64" y="145.45" width="2.83" height="2.55"/><rect class="cls-3" x="276.48" y="145.45" width="8.65" height="2.55"/><rect class="cls-3" x="273.64" y="151.62" width="2.83" height="2.55"/><rect class="cls-3" x="276.48" y="151.62" width="8.65" height="2.55"/><rect class="cls-3" x="510.17" y="205.19" width="7.16" height="2.1"/><rect class="cls-3" x="510.27" y="220.57" width="25.99" height="2.1"/><rect class="cls-3" x="500.98" y="226.12" width="35.28" height="2.1"/><rect class="cls-3" x="500.98" y="231.67" width="35.28" height="2.1"/><rect class="cls-3" x="500.98" y="237.21" width="35.28" height="2.1"/><rect class="cls-3" x="500.98" y="242.76" width="11.55" height="2.1"/><rect class="cls-3" x="510.17" y="210.39" width="15.69" height="2.1"/><rect class="cls-3" x="510.17" y="215.48" width="4.73" height="2.1"/><rect class="cls-3" x="202.42" y="166.65" width="9.04" height="9.04"/><rect class="cls-3" x="185.46" y="189.74" width="9.04" height="9.04"/><rect class="cls-3" x="185.46" y="216.62" width="9.04" height="9.04"/><rect class="cls-3" x="428.35" y="171.2" width="8.26" height="8.26"/><rect class="cls-3" x="412.86" y="185.41" width="8.26" height="8.26"/><rect class="cls-3" x="412.86" y="201.29" width="8.26" height="8.26"/><rect class="cls-3" x="428.35" y="222.37" width="8.26" height="8.26"/><rect class="cls-3" x="315.34" y="200.81" width="4.88" height="4.88"/><rect class="cls-3" x="344.89" y="212.14" width="5.61" height="5.61"/><rect class="cls-3" x="335.04" y="212.14" width="5.61" height="5.61"/><rect class="cls-3" x="325.19" y="212.14" width="5.61" height="5.61"/><rect class="cls-3" x="344.89" y="227.1" width="5.61" height="5.61"/><rect class="cls-3" x="325.19" y="227.1" width="5.61" height="5.61"/><rect class="cls-3" x="344.89" y="246.17" width="5.61" height="1.49"/><rect class="cls-3" x="344.89" y="242.05" width="5.61" height="4.12"/><rect class="cls-3" x="335.04" y="246.17" width="5.61" height="1.49"/><rect class="cls-3" x="335.04" y="242.05" width="5.61" height="4.12"/><rect class="cls-3" x="344.89" y="257.01" width="5.61" height="5.61"/><rect class="cls-3" x="325.19" y="257.01" width="5.61" height="5.61"/><rect class="cls-3" x="315.34" y="227.1" width="5.61" height="5.61"/><rect class="cls-3" x="315.34" y="246.17" width="5.61" height="1.49"/><rect class="cls-3" x="315.34" y="242.05" width="5.61" height="4.12"/><rect class="cls-3" x="16.05" y="262.88" width="5.61" height="5.61"/><rect class="cls-3" x="25.9" y="262.88" width="5.61" height="5.61"/><rect class="cls-3" x="35.75" y="262.88" width="5.61" height="5.61"/><rect class="cls-3" x="6.2" y="275.79" width="5.61" height="4.54"/><rect class="cls-3" x="16.05" y="275.79" width="5.61" height="4.54"/><rect class="cls-3" x="35.75" y="275.79" width="5.61" height="4.54"/><polygon class="cls-2" points="1300.29 232.57 1300.36 232.57 1300.36 178.45 1299.49 178.45 1299.49 201.16 1300.35 201.16 1300.29 232.57"/><polygon class="cls-2" points="1120.46 187.09 1138.07 187.09 1138.07 179.27 1144.99 179.27 1144.99 167.9 1148.25 167.9 1148.25 166.69 1150.47 166.69 1150.47 167.9 1158.82 167.9 1158.82 166.88 1169.38 166.88 1169.38 167.9 1174.44 167.9 1183.47 174.37 1183.47 192.22 1207.34 192.22 1207.34 190.74 1204.1 190.74 1204.1 155.73 1201.17 155.73 1201.17 141.48 1196.79 141.48 1196.79 94.09 1193.07 94.13 1193.07 92.68 1187.57 92.68 1187.53 84.24 1185.86 84.28 1185.88 92.68 1166.08 92.68 1166.08 94.44 1162.28 94.49 1162.28 136.03 1159.24 138.56 1151.21 138.56 1151.21 113.8 1140.03 104.48 1121.49 104.48 1121.49 111.67 1117.02 111.67 1117.02 119.24 1120.46 119.26 1120.46 187.09"/><polygon class="cls-2" points="1278.31 209.65 1283.27 209.65 1283.27 204.52 1288.62 204.52 1288.62 208.25 1293.18 208.25 1293.18 201.18 1297.41 201.17 1297.41 178.76 1294.22 178.76 1289.96 171.44 1287.02 171.44 1286.98 167.99 1280.56 168.02 1280.56 171.44 1278.24 171.44 1273.92 178.9 1270.57 178.93 1270.57 207.31 1278.31 207.31 1278.31 209.65"/><polygon class="cls-2" points="1073.89 195.57 1086.81 195.57 1086.81 119.46 1095.93 119.5 1095.93 92.5 1093.84 92.5 1093.84 90.53 1086.04 90.53 1086.04 85.74 1078.41 85.74 1078.41 90.53 1070.61 90.53 1070.61 92.5 1068.29 92.5 1068.29 145.54 1073.89 145.54 1073.89 195.57"/><polygon class="cls-2" points="657.36 214.49 657.36 219.61 662.31 219.61 662.31 217.28 670.66 217.28 670.66 212.81 680.71 212.81 680.71 217.28 681.62 217.28 681.62 219.34 691.14 219.34 691.14 218.22 694.93 218.22 694.93 216.54 698.71 216.54 698.71 210.85 708.36 210.85 708.36 214.4 713.19 214.4 713.19 220.08 717.76 220.08 717.76 212.25 722.32 212.25 722.32 197.43 735.02 197.44 737.81 197.44 742.7 191.94 751.77 191.94 755.25 198.22 758.46 200.21 758.46 224.55 761.33 224.55 761.33 171.84 756.86 171.84 756.86 165.14 752.22 165.14 752.22 159.99 746.31 159.99 746.31 165.14 744.4 165.14 744.4 185.24 739.12 185.24 739.12 194.06 734.01 194.06 733.96 176.42 728.37 176.42 728.37 171.63 717.34 171.63 717.34 179.22 714.03 179.22 714.08 194.66 704.47 194.69 704.47 192.03 703.35 192.03 703.35 189.41 698.73 189.41 698.75 186.22 690.22 186.23 690.23 189.41 685.27 189.41 685.27 192.03 678.14 192.03 678.14 195.09 670.09 195.09 670.09 188.3 663.86 188.3 663.86 193.23 658.75 193.23 658.75 183.78 652.26 183.78 652.26 214.49 657.36 214.49"/><polygon class="cls-2" points="1029.41 122.24 1032.54 122.24 1032.54 189.14 1036.07 189.14 1042.58 193.79 1042.58 145.54 1049.5 145.54 1049.5 142.74 1062.37 142.74 1062.37 53.89 1059.46 53.89 1059.47 37.87 1055.96 37.8 1055.88 53.89 1035.3 53.89 1035.27 20.83 1031.76 20.89 1031.72 53.89 1028.67 53.89 1028.67 121.12 1029.41 121.12 1029.41 122.24"/><polygon class="cls-2" points="1216.61 187.28 1218.3 187.28 1218.3 202.28 1222.87 202.28 1222.87 208.9 1227.3 208.9 1227.3 204.43 1232.26 204.43 1232.26 200.88 1241.91 200.88 1241.91 206.57 1245.7 206.57 1245.7 208.25 1249.48 208.25 1249.48 209.36 1258.87 209.36 1258.87 207.31 1259.91 207.31 1259.91 202.94 1267.38 202.94 1267.38 143.48 1262.9 143.48 1262.9 140.42 1256.51 135.09 1256.51 130.57 1251.78 130.57 1251.78 124.57 1248.86 124.58 1248.87 114.77 1246.76 114.77 1246.77 124.59 1243.87 124.6 1243.91 130.57 1239.26 130.57 1239.26 134.96 1231.59 141.35 1231.59 143.61 1227.91 143.61 1227.91 163.05 1217.37 163.05 1217.37 174.76 1213.21 174.76 1213.21 183.37 1216.61 183.37 1216.61 187.28"/><polygon class="cls-2" points="785.85 164.66 792.5 169.44 792.5 171.16 795.77 171.16 795.77 185.7 805.03 185.7 805.03 194.46 808.55 194.46 808.55 206.38 816.51 206.38 816.51 180.2 819.12 180.2 819.12 169.58 822.9 169.58 822.9 134.08 825.4 134.1 829.29 129.21 844.95 129.23 844.96 129.23 844.96 117.81 834.65 117.81 834.61 110.87 831.12 110.88 831.09 105.79 824.82 105.77 824.82 110.9 822.34 110.91 822.34 117.81 802.15 117.81 802.15 121.99 796.44 121.99 796.44 139.35 794.57 139.35 784.26 147.03 784.26 161.38 785.85 161.38 785.85 164.66"/><path class="cls-2" d="M862.82,148.82l9.74-7h16.22v5.4h4v37.37h2.08v-110l-16.71-3.2-.51-12.78c1.68-.67,2.82-1.93,2.82-3.4s-1.31-2.93-3.19-3.55L875.93,26,874.48,0l-.68,26-1.19,25.62c-1.82.64-3.08,2-3.08,3.51a3.91,3.91,0,0,0,2.77,3.38l-.7,12.91-15.3,2.82v98.28h6.52Z"/><polygon class="cls-2" points="911.09 132.86 917.09 132.86 917.09 132.03 922.27 132.03 922.24 127.2 930.26 127.18 930.26 132.03 934.57 132.03 934.57 132.86 940.7 132.86 940.7 193.06 944.47 193.06 944.6 109.4 943.41 109.4 943.41 106.36 941.45 106.36 941.45 107.84 940.15 107.84 940.15 109.4 929.1 109.4 929.1 108.44 925.84 108.44 925.84 109.4 923.24 109.4 923.24 102.39 921.94 102.38 921.94 109.4 912.18 109.4 912.18 107.99 910.67 107.99 910.67 109.4 909.61 109.4 909.61 174.7 911.09 174.7 911.09 132.86"/><polygon class="cls-2" points="994.71 205.62 998.34 205.63 998.46 122.33 1006.05 122.33 1006.05 121.03 1015.19 121.03 1015.19 122.24 1022.23 122.24 1022.23 121.12 1023.88 121.12 1023.88 99.17 1021.59 99.17 1021.59 96.36 1018.46 96.36 1018.46 99.17 1015.32 99.17 1015.32 98.35 1012.89 98.35 1012.89 99.17 1010.1 99.17 1010.1 98.35 1006.62 98.35 1006.62 99.17 1002.79 99.17 1002.79 97.11 1000.18 97.11 1000.18 99.17 998.96 99.17 998.96 98.35 996.52 98.35 996.52 99.17 993.26 99.17 993.25 103.98 994.71 103.98 994.71 205.62"/><polygon class="cls-2" points="962.88 104.01 975.66 104.03 975.66 102.02 988.24 102.02 988.24 91.83 977.22 91.83 977.22 87.11 972.2 87.09 972.2 91.83 968.48 91.83 968.48 91.09 964.76 91.09 964.76 91.83 961.04 91.83 961.04 91.09 959.18 91.09 959.18 91.83 956.91 91.83 956.91 101.83 962.88 101.83 962.88 104.01"/><polygon class="cls-2" points="648.48 214.49 648.48 218.22 651.88 218.22 651.88 214.49 652.26 214.49 652.26 183.78 648.1 183.78 648.1 214.49 648.48 214.49"/><rect class="cls-2" x="648.09" y="214.49" width="0.38" height="3.73"/><polygon class="cls-2" points="849.11 154.7 849.11 160.31 844.96 160.31 844.96 182.08 856.3 182.08 856.3 172.56 855.77 172.56 853.17 170.68 853.17 134.38 850.84 134.36 847.26 129.23 844.96 129.23 844.96 154.7 849.11 154.7"/><polygon class="cls-2" points="909.61 184.65 909.61 174.7 908.35 174.7 908.35 158.86 907.04 158.86 907.04 157.75 900.52 157.77 900.52 158.73 896.66 158.74 896.71 184.58 894.9 184.58 894.9 184.65 909.61 184.65"/><polygon class="cls-2" points="1068.29 148.94 1068.29 145.54 1066.85 145.54 1066.85 142.74 1062.37 142.74 1062.37 148.94 1068.29 148.94"/><path class="cls-2" d="M1234.64,248.4h-2.35v-2.23h-5.09v2.23h-2.35v-2.23H985v1.49h-5.61v-1.49H965.32v1.49h-5.61v-1.49h-4.24v1.49h-5.61v-1.49H903.8v2.58h-5.61v-2.58H743.48v.42H739.2v-.42h-2.49v.42h-4.28v-.42h-2.49v.42h-4.28v-.42h-73.4v23.22h1.82v4.27h-1.82v6.68h42.6V278h2.35v2.35H706V278h2.35v2.35h443.83v-2.81h5.61v2.81H1162v-2.81h5.61v2.81h4.24v-2.81h5.61v2.81h51.07v-1.81h2.35v1.81h1.37v-1.81h2.35v1.81H1259v-4.55h5.61v4.55h14.09v-4.55h5.61v4.55h4.24v-4.55h5.61v4.55h6.2V246.17h-65.72ZM660.85,273.66h-4.28v-4.27h4.28Zm6.77,6.58h-4.28V276h4.28Zm29.59-7.12h-2.35v-2.35h2.35Zm0-3.61h-2.35v-2.35h2.35Zm3.71,3.61h-2.34v-2.35h2.34Zm0-10.59h-2.34v-2.35h2.34Zm3.72,14.2h-2.35v-2.35h2.35Zm0-7.22h-2.35v-2.35h2.35Zm0-7h-2.35v-2.35h2.35Zm3.72,14.2H706v-2.35h2.35Zm0-3.61H706v-2.35h2.35Zm.72-6.57h-2.35V264.2h2.35Zm20.86-13.38h-4.28v-4.28h4.28Zm6.77,6.57h-4.28v-4.28h4.28Zm6.77,0H739.2v-4.28h4.28Zm160.32,6.51h-5.61v-5.61h5.61Zm51.67-3.63h-5.61V257h5.61Zm19.7,0h-5.61V257h5.61Zm182.63,5.56h-5.61v-5.61h5.61Zm0-15h-5.61v-5.61h5.61Zm9.85,15H1162v-5.61h5.61Zm0-15H1162v-5.61h5.61Zm9.85,15h-5.61v-5.61h5.61Zm0-15h-5.61v-5.61h5.61Zm49.7,16.83h-2.35V267.7h2.35Zm0-7.22h-2.35v-2.34h2.35Zm0-3.61h-2.35v-2.34h2.35Zm0-7.21h-2.35v-2.35h2.35Zm3.72,21.65h-2.35v-2.35h2.35Zm0-7.22h-2.35v-2.35h2.35Zm0-3.61h-2.35v-2.34h2.35Zm0-10.82h-2.35v-2.35h2.35Zm3.72,21.65h-2.35v-2.35h2.35Zm0-3.61h-2.35V267.7h2.35Zm0-3.61h-2.35v-2.35h2.35Zm0-10.82h-2.35v-2.35h2.35Zm53.91-5.66h5.61v5.61h-5.61Zm-9.85,0h5.61v5.61h-5.61Zm0,12.92h5.61v5.61h-5.61ZM1268.85,250h5.61v5.61h-5.61Zm0,12.92h5.61v5.61h-5.61ZM1259,250h5.61v5.61H1259Zm0,12.92h5.61v5.61H1259Zm-23-13.22h2.35V252H1236Zm0,3.61h2.35v2.35H1236Zm0,3.61h2.35v2.34H1236Zm0,7.21h2.35v2.35H1236Zm0,7.22h2.35v2.35H1236Zm2.35,3.61v2.35H1236v-2.35Z"/><polygon class="cls-2" points="1099.12 141.35 1099.12 127.24 1111.59 127.24 1111.59 133.69 1114.89 133.69 1114.89 138.69 1117.02 138.69 1117.02 119.24 1108.24 119.19 1108.2 81.8 1098.94 81.8 1098.89 119.51 1095.93 119.5 1095.93 141.35 1099.12 141.35"/><polygon class="cls-2" points="1213.21 183.37 1211.39 183.37 1211.39 187.28 1207.34 187.28 1207.34 190.74 1213.21 190.74 1213.21 183.37"/><polygon class="cls-2" points="992.38 176.56 993.12 176.57 993.12 170.72 993.25 103.98 990.14 103.98 990.14 102.02 988.24 102.02 988.24 176.51 992.38 176.56"/><polygon class="cls-2" points="1268.97 211.37 1268.97 214.97 1270.57 214.97 1270.57 207.31 1269.96 207.31 1269.96 202.94 1267.38 202.94 1267.38 211.37 1268.97 211.37"/><polygon class="cls-2" points="767.33 169.82 776.64 169.82 776.64 171.84 784.26 171.84 784.26 161.38 770.72 161.38 770.72 164.76 765.24 168.74 765.24 171.07 761.33 171.07 761.33 171.84 767.28 171.84 767.33 169.82"/><path class="cls-2" d="M945.4,182.28l.93-1.27,3.53-4.83v-2.37h1.73l1.62-2.22,3.7,0V101.84h-7.73V104h-4.57v5.42h.8Zm4.46-53.35h5.61v5.61h-5.61Zm0,15h5.61v5.61h-5.61Zm0,15h5.61v5.61h-5.61Z"/><polygon class="cls-2" points="1026.71 139.14 1026.71 141.69 1023.88 141.69 1023.88 145.45 1026.71 145.45 1026.71 148 1023.88 148 1023.88 151.62 1026.71 151.62 1026.71 154.17 1023.88 154.17 1023.88 157.8 1026.71 157.8 1026.71 160.35 1023.88 160.35 1023.88 176.45 1026.71 176.45 1026.71 176.63 1028.67 176.63 1028.67 121.12 1023.88 121.12 1023.88 139.14 1026.71 139.14"/><rect class="cls-2" x="1297.42" y="201.16" width="2.08" height="11.9"/><polygon class="cls-2" points="652.26 273.66 650.55 273.66 649.8 273.66 648.1 273.66 648.1 280.34 652.26 280.34 652.26 273.66"/><polygon class="cls-2" points="650.55 269.39 652.26 269.39 652.26 246.17 648.1 246.17 648.1 269.39 649.8 269.39 650.55 269.39"/><rect class="cls-2" x="648.09" y="269.39" width="1.71" height="4.28"/><path class="cls-2" d="M758.46,224.55V200.21l-3.21-2-3.48-6.28H742.7l-4.89,5.5H722.32v14.82h-4.56v7.83h-4.57V214.4h-4.83v-3.54h-9.65v5.68h-3.78v1.68h-3.79v1.11h-9.52v-2h-.91v-4.48H670.66v4.48h-8.35v2.32h-4.95v-5.12h-5.1v31.68h73.4v-3.85h4.28v3.85h2.49v-3.85h4.28v3.85h2.49v-3.85h4.28v3.85H898.19v-3h5.61v3h46.06v-4.12h5.61v4.12h4.24v-4.12h5.61v4.12h14.09v-4.12H985v4.12h239.83v-.12h2.35v.12h5.09v-.12h2.35v.12h65.72v-13.6h-.07l.06-31.41h-.86v11.9h-2.07V201.17h-4.24v7.07h-4.57v-3.73h-5.34v5.12h-5v-2.33h-7.74V215H1269v-3.6h-1.59v-8.43h-7.46v4.37h-1.05v2.05h-9.39v-1.11h-3.78v-1.68h-3.79v-5.69h-9.65v3.55h-5v4.47h-4.43v-6.62h-4.57v-15h-1.69v-3.91h-3.4v7.37h-5.87v1.48h-23.87V174.37l-9-6.47h-5.06v-1h-10.56v1h-8.35v-1.21h-2.22v1.21H1145v11.37h-6.92v7.82h-17.61V119.26l-3.44,0v19.45h-2.13v4.05h-9v-9.05h5.74v-6.45h-12.47v14.11h-3.19V119.5l-9.12,0v76.11h-12.92v-50h-5.6v3.4h-5.92v-6.2H1049.5v2.8h-6.92v48.25l-6.51-4.65h-3.53v-66.9h-3.13v-1.12h-.74v55.51h-2V179H1000.4v-2.55h23.48v-16.1H1000.4V157.8h23.48v-3.63h-8.65v-2.55h8.65V148h-8.65v-2.55h8.65v-3.76H1000.4v-2.55h23.48v-18h-1.65v1.12h-7V121h-9.13v1.3h-7.6l-.12,83.3h-3.63V104h-1.46l-.13,66.74v5.85h-.74l-4.15-.05V102H975.66v2l-12.78,0v-2.17h-6v69.73l-3.7,0-1.62,2.22h3.88v5.61h-5.61v-3.24L946.33,181l-.93,1.27V109.4h-.8l-.13,83.66H940.7v-60.2h-6.13V132h-4.31v-4.85l-8,0,0,4.83h-5.18v.83h-6V174.7h-1.48v10H894.9v-.07h-2.08V147.21h-4v-5.4H872.56l-9.74,7v23.74H856.3v9.52H845V160.31H843.5V154.7H845V129.23h0l-15.66,0-3.89,4.9-2.5,0v35.5h-3.78V180.2h-2.61v26.18h-8V194.46H805V185.7h-9.26V171.16h-3.26v-1.72l-6.66-4.78v-3.28h-1.59v10.46h-7.62v-2h-9.31l-.05,2h-5.95v52.71Zm413.43-21.81h5.61v5.61h-5.61Zm0,15h5.61v5.61h-5.61Zm0,15h5.61v5.61h-5.61ZM1162,202.74h5.61v5.61H1162Zm0,15h5.61v5.61H1162Zm0,15h5.61v5.61H1162Zm-9.85-29.92h5.61v5.61h-5.61Zm0,15h5.61v5.61h-5.61Zm0,15h5.61v5.61h-5.61Zm-46.34-42.92h9v9h-9Zm0,26.88h9v9h-9Zm-17-67.36h9v9h-9Zm0,17.39h9v9h-9Zm-24.77,5.25h4.28v4.27h-4.28Zm0,6.57h4.28v4.28h-4.28Zm0,13.15h4.28v4.27h-4.28Zm0,6.57h4.28v4.28h-4.28Zm0,13.15h4.28v4.27h-4.28Zm-6.77-32.87h4.28v4.28h-4.28Zm0,19.72h4.28v4.28h-4.28Zm0,6.57h4.28V209h-4.28Zm0,13.15h4.28v4.28h-4.28Zm0,13.15h4.28v4.27h-4.28Zm-6.77-59.16h4.28v4.27h-4.28Zm0,13.14h4.28v4.28h-4.28Zm0,19.72h4.28V209h-4.28Zm0,6.58h4.28v4.27h-4.28Zm0,6.57h4.28v4.28h-4.28Zm0,13.15h4.28v4.27h-4.28Zm-6.77-52.59h4.28v4.28h-4.28Zm0,6.57h4.28v4.28h-4.28Zm0,6.58h4.28v4.27h-4.28Zm0,13.14h4.28V209h-4.28Zm0,13.15h4.28v4.28h-4.28Zm0,6.57h4.28v4.28h-4.28Zm-43.41-29.37h26.31v2.55H1000.4Zm0,18.65h26.31v2.55H1000.4ZM985,205.7h-4.89v-4.89H985ZM979.41,114H985v5.61h-5.61Zm0,15H985v5.61h-5.61Zm0,15H985v5.61h-5.61Zm0,15H985v5.61h-5.61Zm0,15H985v5.61h-5.61Zm0,14.95H985v5.61h-5.61Zm0,38.34H985v5.61h-5.61ZM969.56,114h5.61v5.61h-5.61Zm0,29.92h5.61v5.61h-5.61Zm0,15h5.61v5.61h-5.61Zm0,15h5.61v5.61h-5.61Zm0,38.33h5.61v5.61h-5.61Zm0,15h5.61v5.61h-5.61ZM959.71,114h5.61v5.61h-5.61Zm0,15h5.61v5.61h-5.61Zm0,15h5.61v5.61h-5.61Zm0,15h5.61v5.61h-5.61Zm0,29.91h5.61v5.61h-5.61Zm0,23.38h5.61v5.61h-5.61Zm-9.85-23.38h5.61v5.61h-5.61Zm0,23.38h5.61v5.61h-5.61Zm0,15h5.61v5.61h-5.61Zm-18.41-67h4.39v4.39h-4.39Zm0,5.56h4.39V170h-4.39Zm0,5.57h4.39v4.39h-4.39Zm0,5.56h4.39v4.4h-4.39Zm0,5.57h4.39v4.39h-4.39Zm0,5.57h4.39v4.39h-4.39Zm0,5.56h4.39v4.39h-4.39Zm0,5.57h4.39v4.39h-4.39Zm0,5.56h4.39V209h-4.39Zm0,5.57h4.39v4.39h-4.39Zm-5.65-50.09h4.39v4.39H925.8Zm0,5.56h4.39V170H925.8Zm0,5.57h4.39v4.39H925.8Zm0,5.56h4.39v4.4H925.8Zm0,5.57h4.39v4.39H925.8Zm0,5.57h4.39v4.39H925.8Zm0,5.56h4.39v4.39H925.8Zm0,5.57h4.39v4.39H925.8Zm0,5.56h4.39V209H925.8Zm0,5.57h4.39v4.39H925.8Zm-5.66-50.09h4.4v4.39h-4.4Zm0,5.56h4.4V170h-4.4Zm0,5.57h4.4v4.39h-4.4Zm0,5.56h4.4v4.4h-4.4Zm0,5.57h4.4v4.39h-4.4Zm0,5.57h4.4v4.39h-4.4Zm0,5.56h4.4v4.39h-4.4Zm0,5.57h4.4v4.39h-4.4Zm0,5.56h4.4V209h-4.4Zm0,5.57h4.4v4.39h-4.4Zm-5.65-50.09h4.39v4.39h-4.39Zm0,5.56h4.39V170h-4.39Zm0,5.57h4.39v4.39h-4.39Zm0,5.56h4.39v4.4h-4.39Zm0,5.57h4.39v4.39h-4.39Zm0,5.57h4.39v4.39h-4.39Zm0,5.56h4.39v4.39h-4.39Zm0,5.57h4.39v4.39h-4.39Zm0,5.56h4.39V209h-4.39Zm0,5.57h4.39v4.39h-4.39Zm-16.3-19.5h5.61v5.61h-5.61Zm0,17.49h5.61v5.61h-5.61Zm0,17.5h5.61v5.61h-5.61Zm-19-40.24h8.26v8.26h-8.26Zm0,15.88h8.26v8.26h-8.26ZM863.75,171.2H872v8.26h-8.26Zm0,51.17H872v8.26h-8.26ZM843.5,235.1h-5.61v-5.6h5.61Zm3.65-14.95h-5.61v-5.61h5.61Zm-3.65-35.53h5.6v5.61h-5.6Zm-3.4,15h5.61v5.61H840.1Zm-6.45-44.88h5.61v5.61h-5.61Zm0,15h5.61v5.61h-5.61Zm0,15h5.61v5.61h-5.61Zm-2.81,29.92h5.61v5.61h-5.61Zm-7-59.84h5.61v5.61H823.8Zm0,15h5.61v5.61H823.8Zm0,29.92h5.61v5.61H823.8Zm0,29.92h5.61v5.6H823.8Zm-24.43,15.37H787.82v-2.11h11.55ZM783,205.19h7.17v2.1H783Zm-8.52,5.2h15.69v2.1H774.5Zm15.69,5.09v2.1h-4.74v-2.1Zm-26.09,5.09h26v2.1h-26Zm0,5.55h35.27v2.1H764.1Zm0,5.55h35.27v2.1H764.1Zm0,5.54h35.27v2.11H764.1Z"/><rect class="cls-2" x="651.88" y="214.49" width="0.38" height="3.73"/><polygon class="cls-2" points="652.26 218.22 651.88 218.22 648.48 218.22 648.1 218.22 648.1 246.17 652.26 246.17 652.26 218.22"/><rect class="cls-3" x="1288.55" y="249.96" width="5.61" height="5.61"/><rect class="cls-3" x="1232.29" y="246.17" width="2.35" height="2.23"/><rect class="cls-3" x="1232.29" y="246.05" width="2.35" height="0.12"/><rect class="cls-3" x="1224.85" y="246.17" width="2.35" height="2.23"/><rect class="cls-3" x="1224.85" y="246.05" width="2.35" height="0.12"/><rect class="cls-3" x="1236.01" y="249.66" width="2.35" height="2.35"/><rect class="cls-3" x="1228.57" y="249.66" width="2.35" height="2.35"/><rect class="cls-3" x="1224.85" y="249.66" width="2.35" height="2.35"/><rect class="cls-3" x="1236.01" y="253.27" width="2.35" height="2.35"/><rect class="cls-3" x="1232.29" y="253.27" width="2.35" height="2.35"/><rect class="cls-3" x="1236.01" y="256.88" width="2.35" height="2.35"/><rect class="cls-3" x="1224.85" y="256.88" width="2.35" height="2.35"/><rect class="cls-3" x="1228.57" y="260.49" width="2.35" height="2.35"/><rect class="cls-3" x="1224.85" y="260.49" width="2.35" height="2.35"/><rect class="cls-3" x="1236.01" y="264.09" width="2.35" height="2.35"/><rect class="cls-3" x="1232.29" y="264.09" width="2.35" height="2.35"/><rect class="cls-3" x="1228.57" y="264.09" width="2.35" height="2.35"/><rect class="cls-3" x="1232.29" y="267.7" width="2.35" height="2.35"/><rect class="cls-3" x="1224.85" y="267.7" width="2.35" height="2.35"/><rect class="cls-3" x="1236.01" y="271.31" width="2.35" height="2.35"/><rect class="cls-3" x="1232.29" y="271.31" width="2.35" height="2.35"/><rect class="cls-3" x="1228.57" y="271.31" width="2.35" height="2.35"/><rect class="cls-3" x="1236.01" y="274.92" width="2.35" height="2.35"/><rect class="cls-3" x="1232.29" y="278.53" width="2.35" height="1.8"/><rect class="cls-3" x="1228.57" y="278.53" width="2.35" height="1.8"/><rect class="cls-3" x="702.29" y="267.16" width="2.35" height="2.35"/><rect class="cls-3" x="694.86" y="267.16" width="2.35" height="2.35"/><rect class="cls-3" x="706.01" y="270.77" width="2.35" height="2.35"/><rect class="cls-3" x="698.58" y="270.77" width="2.35" height="2.35"/><rect class="cls-3" x="694.86" y="270.77" width="2.35" height="2.35"/><rect class="cls-3" x="706.01" y="274.38" width="2.35" height="2.35"/><rect class="cls-3" x="702.29" y="274.38" width="2.35" height="2.35"/><rect class="cls-3" x="706.01" y="277.99" width="2.35" height="2.35"/><rect class="cls-3" x="694.86" y="277.99" width="2.35" height="2.35"/><rect class="cls-3" x="706.73" y="264.2" width="2.35" height="2.35"/><rect class="cls-3" x="702.29" y="260.18" width="2.35" height="2.35"/><rect class="cls-3" x="698.58" y="260.18" width="2.35" height="2.35"/><rect class="cls-3" x="1050.58" y="171.9" width="4.28" height="4.28"/><rect class="cls-3" x="1064.12" y="171.9" width="4.28" height="4.28"/><rect class="cls-3" x="1043.81" y="178.47" width="4.28" height="4.28"/><rect class="cls-3" x="1057.35" y="178.47" width="4.28" height="4.28"/><rect class="cls-3" x="1064.12" y="178.47" width="4.28" height="4.28"/><rect class="cls-3" x="1043.81" y="185.04" width="4.28" height="4.28"/><rect class="cls-3" x="1050.58" y="185.04" width="4.28" height="4.28"/><rect class="cls-3" x="1043.81" y="191.62" width="4.28" height="4.28"/><rect class="cls-3" x="1064.12" y="191.62" width="4.28" height="4.28"/><rect class="cls-3" x="1057.35" y="198.19" width="4.28" height="4.28"/><rect class="cls-3" x="1064.12" y="198.19" width="4.28" height="4.28"/><rect class="cls-3" x="1043.81" y="204.76" width="4.28" height="4.28"/><rect class="cls-3" x="1050.58" y="204.76" width="4.28" height="4.28"/><rect class="cls-3" x="1057.35" y="204.76" width="4.28" height="4.28"/><rect class="cls-3" x="1050.58" y="211.34" width="4.28" height="4.28"/><rect class="cls-3" x="1064.12" y="211.34" width="4.28" height="4.28"/><rect class="cls-3" x="1043.81" y="217.91" width="4.28" height="4.28"/><rect class="cls-3" x="1050.58" y="217.91" width="4.28" height="4.28"/><rect class="cls-3" x="1057.35" y="217.91" width="4.28" height="4.28"/><rect class="cls-3" x="1043.81" y="224.48" width="4.28" height="4.28"/><rect class="cls-3" x="1050.58" y="231.06" width="4.28" height="4.28"/><rect class="cls-3" x="1057.35" y="231.06" width="4.28" height="4.28"/><rect class="cls-3" x="725.66" y="246.17" width="4.28" height="0.42"/><rect class="cls-3" x="725.66" y="242.32" width="4.28" height="3.85"/><rect class="cls-3" x="732.43" y="246.17" width="4.28" height="0.42"/><rect class="cls-3" x="732.43" y="242.32" width="4.28" height="3.85"/><rect class="cls-3" x="739.2" y="246.17" width="4.28" height="0.42"/><rect class="cls-3" x="739.2" y="242.32" width="4.28" height="3.85"/><rect class="cls-3" x="725.66" y="248.89" width="4.28" height="4.28"/><rect class="cls-3" x="656.57" y="269.39" width="4.28" height="4.28"/><rect class="cls-3" x="652.26" y="269.39" width="1.82" height="4.28"/><rect class="cls-3" x="650.55" y="269.39" width="1.71" height="4.28"/><rect class="cls-3" x="649.8" y="269.39" width="0.75" height="4.28"/><rect class="cls-3" x="663.34" y="275.96" width="4.28" height="4.28"/><rect class="cls-3" x="732.43" y="255.46" width="4.28" height="4.28"/><rect class="cls-3" x="739.2" y="255.46" width="4.28" height="4.28"/><rect class="cls-3" x="1278.7" y="249.96" width="5.61" height="5.61"/><rect class="cls-3" x="1268.85" y="249.96" width="5.61" height="5.61"/><rect class="cls-3" x="1259" y="249.96" width="5.61" height="5.61"/><rect class="cls-3" x="1171.89" y="202.74" width="5.61" height="5.61"/><rect class="cls-3" x="1162.04" y="202.74" width="5.61" height="5.61"/><rect class="cls-3" x="1152.19" y="202.74" width="5.61" height="5.61"/><rect class="cls-3" x="1171.89" y="217.7" width="5.61" height="5.61"/><rect class="cls-3" x="1162.04" y="217.7" width="5.61" height="5.61"/><rect class="cls-3" x="1152.19" y="217.7" width="5.61" height="5.61"/><rect class="cls-3" x="1171.89" y="232.66" width="5.61" height="5.61"/><rect class="cls-3" x="1162.04" y="232.66" width="5.61" height="5.61"/><rect class="cls-3" x="1152.19" y="232.66" width="5.61" height="5.61"/><rect class="cls-3" x="1171.89" y="247.61" width="5.61" height="5.61"/><rect class="cls-3" x="1162.04" y="247.61" width="5.61" height="5.61"/><rect class="cls-3" x="1152.19" y="247.61" width="5.61" height="5.61"/><rect class="cls-3" x="1171.89" y="262.57" width="5.61" height="5.61"/><rect class="cls-3" x="1162.04" y="262.57" width="5.61" height="5.61"/><rect class="cls-3" x="1152.19" y="262.57" width="5.61" height="5.61"/><rect class="cls-3" x="1171.89" y="277.53" width="5.61" height="2.8"/><rect class="cls-3" x="1162.04" y="277.53" width="5.61" height="2.8"/><rect class="cls-3" x="1152.19" y="277.53" width="5.61" height="2.8"/><rect class="cls-3" x="844.95" y="154.7" width="4.15" height="5.61"/><rect class="cls-3" x="843.5" y="154.7" width="1.46" height="5.61"/><rect class="cls-3" x="833.65" y="154.7" width="5.61" height="5.61"/><rect class="cls-3" x="823.8" y="154.7" width="5.61" height="5.61"/><rect class="cls-3" x="833.65" y="169.66" width="5.61" height="5.61"/><rect class="cls-3" x="823.8" y="169.66" width="5.61" height="5.61"/><rect class="cls-3" x="843.5" y="184.62" width="5.61" height="5.61"/><rect class="cls-3" x="833.65" y="184.62" width="5.61" height="5.61"/><rect class="cls-3" x="840.1" y="199.58" width="5.61" height="5.61"/><rect class="cls-3" x="823.8" y="199.58" width="5.61" height="5.61"/><rect class="cls-3" x="841.54" y="214.54" width="5.61" height="5.61"/><rect class="cls-3" x="830.84" y="214.54" width="5.61" height="5.61"/><rect class="cls-3" x="898.19" y="190.66" width="5.61" height="5.61"/><rect class="cls-3" x="898.19" y="208.15" width="5.61" height="5.61"/><rect class="cls-3" x="898.19" y="225.65" width="5.61" height="5.61"/><rect class="cls-3" x="898.19" y="246.17" width="5.61" height="2.58"/><rect class="cls-3" x="898.19" y="243.14" width="5.61" height="3.03"/><rect class="cls-3" x="898.19" y="260.64" width="5.61" height="5.61"/><rect class="cls-3" x="837.89" y="229.5" width="5.61" height="5.61"/><rect class="cls-3" x="823.8" y="229.5" width="5.61" height="5.61"/><rect class="cls-3" x="979.41" y="113.97" width="5.61" height="5.61"/><rect class="cls-3" x="969.56" y="113.97" width="5.61" height="5.61"/><rect class="cls-3" x="959.71" y="113.97" width="5.61" height="5.61"/><rect class="cls-3" x="979.41" y="128.93" width="5.61" height="5.61"/><rect class="cls-3" x="959.71" y="128.93" width="5.61" height="5.61"/><rect class="cls-3" x="979.41" y="143.89" width="5.61" height="5.61"/><rect class="cls-3" x="969.56" y="143.89" width="5.61" height="5.61"/><rect class="cls-3" x="959.71" y="143.89" width="5.61" height="5.61"/><rect class="cls-3" x="979.41" y="158.85" width="5.61" height="5.61"/><rect class="cls-3" x="969.56" y="158.85" width="5.61" height="5.61"/><rect class="cls-3" x="959.71" y="158.85" width="5.61" height="5.61"/><rect class="cls-3" x="979.41" y="173.81" width="5.61" height="5.61"/><rect class="cls-3" x="969.56" y="173.81" width="5.61" height="5.61"/><rect class="cls-3" x="979.41" y="188.76" width="5.61" height="5.61"/><rect class="cls-3" x="959.71" y="188.76" width="5.61" height="5.61"/><rect class="cls-3" x="949.86" y="128.93" width="5.61" height="5.61"/><rect class="cls-3" x="949.86" y="143.89" width="5.61" height="5.61"/><rect class="cls-3" x="949.86" y="158.85" width="5.61" height="5.61"/><polygon class="cls-3" points="949.86 176.18 951.59 173.81 949.86 173.81 949.86 176.18"/><polygon class="cls-3" points="949.86 179.42 955.47 179.42 955.47 173.81 951.59 173.81 949.86 176.18 949.86 179.42"/><rect class="cls-3" x="949.86" y="188.76" width="5.61" height="5.61"/><rect class="cls-3" x="1111.59" y="133.69" width="3.31" height="5"/><polygon class="cls-3" points="1111.59 133.69 1105.85 133.69 1105.85 142.74 1114.89 142.74 1114.89 138.69 1111.59 138.69 1111.59 133.69"/><rect class="cls-3" x="1088.89" y="149.26" width="9.04" height="9.04"/><rect class="cls-3" x="931.45" y="160.07" width="4.39" height="4.39"/><rect class="cls-3" x="925.8" y="160.07" width="4.39" height="4.39"/><rect class="cls-3" x="920.14" y="160.07" width="4.39" height="4.39"/><rect class="cls-3" x="914.49" y="160.07" width="4.39" height="4.39"/><rect class="cls-3" x="931.45" y="165.63" width="4.39" height="4.39"/><rect class="cls-3" x="925.8" y="165.63" width="4.39" height="4.39"/><rect class="cls-3" x="920.14" y="165.63" width="4.39" height="4.39"/><rect class="cls-3" x="914.49" y="165.63" width="4.39" height="4.39"/><rect class="cls-3" x="931.45" y="171.2" width="4.39" height="4.39"/><rect class="cls-3" x="925.8" y="171.2" width="4.39" height="4.39"/><rect class="cls-3" x="920.14" y="171.2" width="4.39" height="4.39"/><rect class="cls-3" x="914.49" y="171.2" width="4.39" height="4.39"/><rect class="cls-3" x="931.45" y="176.76" width="4.39" height="4.39"/><rect class="cls-3" x="925.8" y="176.76" width="4.39" height="4.39"/><rect class="cls-3" x="920.14" y="176.76" width="4.39" height="4.39"/><rect class="cls-3" x="914.49" y="176.76" width="4.39" height="4.39"/><rect class="cls-3" x="931.45" y="182.33" width="4.39" height="4.39"/><rect class="cls-3" x="925.8" y="182.33" width="4.39" height="4.39"/><rect class="cls-3" x="920.14" y="182.33" width="4.39" height="4.39"/><rect class="cls-3" x="914.49" y="182.33" width="4.39" height="4.39"/><rect class="cls-3" x="931.45" y="187.9" width="4.39" height="4.39"/><rect class="cls-3" x="925.8" y="187.9" width="4.39" height="4.39"/><rect class="cls-3" x="920.14" y="187.9" width="4.39" height="4.39"/><rect class="cls-3" x="914.49" y="187.9" width="4.39" height="4.39"/><rect class="cls-3" x="931.45" y="193.46" width="4.39" height="4.39"/><rect class="cls-3" x="925.8" y="193.46" width="4.39" height="4.39"/><rect class="cls-3" x="920.14" y="193.46" width="4.39" height="4.39"/><rect class="cls-3" x="914.49" y="193.46" width="4.39" height="4.39"/><rect class="cls-3" x="931.45" y="199.03" width="4.39" height="4.39"/><rect class="cls-3" x="925.8" y="199.03" width="4.39" height="4.39"/><rect class="cls-3" x="920.14" y="199.03" width="4.39" height="4.39"/><rect class="cls-3" x="914.49" y="199.03" width="4.39" height="4.39"/><rect class="cls-3" x="931.45" y="204.59" width="4.39" height="4.39"/><rect class="cls-3" x="925.8" y="204.59" width="4.39" height="4.39"/><rect class="cls-3" x="920.14" y="204.59" width="4.39" height="4.39"/><rect class="cls-3" x="914.49" y="204.59" width="4.39" height="4.39"/><rect class="cls-3" x="931.45" y="210.16" width="4.39" height="4.39"/><rect class="cls-3" x="925.8" y="210.16" width="4.39" height="4.39"/><rect class="cls-3" x="920.14" y="210.16" width="4.39" height="4.39"/><rect class="cls-3" x="914.49" y="210.16" width="4.39" height="4.39"/><rect class="cls-3" x="1023.88" y="139.14" width="2.83" height="2.55"/><rect class="cls-3" x="1000.4" y="139.14" width="23.48" height="2.55"/><rect class="cls-3" x="1023.88" y="157.8" width="2.83" height="2.55"/><rect class="cls-3" x="1000.4" y="157.8" width="23.48" height="2.55"/><rect class="cls-3" x="1023.88" y="176.45" width="2.83" height="0.18"/><polygon class="cls-3" points="1023.88 176.45 1000.4 176.45 1000.4 179 1026.71 179 1026.71 176.63 1023.88 176.63 1023.88 176.45"/><rect class="cls-3" x="1000.4" y="195.11" width="26.31" height="2.55"/><rect class="cls-3" x="1000.4" y="213.76" width="26.31" height="2.55"/><rect class="cls-3" x="1023.88" y="145.45" width="2.83" height="2.55"/><rect class="cls-3" x="1015.23" y="145.45" width="8.65" height="2.55"/><rect class="cls-3" x="1023.88" y="151.62" width="2.83" height="2.55"/><rect class="cls-3" x="1015.23" y="151.62" width="8.65" height="2.55"/><rect class="cls-3" x="783.02" y="205.19" width="7.16" height="2.1"/><rect class="cls-3" x="764.1" y="220.57" width="25.99" height="2.1"/><rect class="cls-3" x="764.1" y="226.12" width="35.28" height="2.1"/><rect class="cls-3" x="764.1" y="231.67" width="35.28" height="2.1"/><rect class="cls-3" x="764.1" y="237.21" width="35.28" height="2.1"/><rect class="cls-3" x="787.82" y="242.76" width="11.55" height="2.1"/><rect class="cls-3" x="774.5" y="210.39" width="15.69" height="2.1"/><rect class="cls-3" x="785.45" y="215.48" width="4.73" height="2.1"/><rect class="cls-3" x="1088.89" y="166.65" width="9.04" height="9.04"/><rect class="cls-3" x="1105.85" y="189.74" width="9.04" height="9.04"/><rect class="cls-3" x="1105.85" y="216.62" width="9.04" height="9.04"/><rect class="cls-3" x="863.75" y="171.2" width="8.26" height="8.26"/><rect class="cls-3" x="879.23" y="185.41" width="8.26" height="8.26"/><rect class="cls-3" x="879.23" y="201.29" width="8.26" height="8.26"/><rect class="cls-3" x="863.75" y="222.37" width="8.26" height="8.26"/><rect class="cls-3" x="980.13" y="200.81" width="4.88" height="4.88"/><rect class="cls-3" x="949.86" y="212.14" width="5.61" height="5.61"/><rect class="cls-3" x="959.71" y="212.14" width="5.61" height="5.61"/><rect class="cls-3" x="969.56" y="212.14" width="5.61" height="5.61"/><rect class="cls-3" x="949.86" y="227.1" width="5.61" height="5.61"/><rect class="cls-3" x="969.56" y="227.1" width="5.61" height="5.61"/><rect class="cls-3" x="949.86" y="246.17" width="5.61" height="1.49"/><rect class="cls-3" x="949.86" y="242.05" width="5.61" height="4.12"/><rect class="cls-3" x="959.71" y="246.17" width="5.61" height="1.49"/><rect class="cls-3" x="959.71" y="242.05" width="5.61" height="4.12"/><rect class="cls-3" x="949.86" y="257.01" width="5.61" height="5.61"/><rect class="cls-3" x="969.56" y="257.01" width="5.61" height="5.61"/><rect class="cls-3" x="979.41" y="227.1" width="5.61" height="5.61"/><rect class="cls-3" x="979.41" y="246.17" width="5.61" height="1.49"/><rect class="cls-3" x="979.41" y="242.05" width="5.61" height="4.12"/><rect class="cls-3" x="1278.7" y="262.88" width="5.61" height="5.61"/><rect class="cls-3" x="1268.85" y="262.88" width="5.61" height="5.61"/><rect class="cls-3" x="1259" y="262.88" width="5.61" height="5.61"/><rect class="cls-3" x="1288.55" y="275.79" width="5.61" height="4.54"/><rect class="cls-3" x="1278.7" y="275.79" width="5.61" height="4.54"/><rect class="cls-3" x="1259" y="275.79" width="5.61" height="4.54"/><rect class="cls-4" x="65.72" y="280.34" width="2.35" height="0.54"/><rect class="cls-4" x="69.44" y="280.34" width="2.35" height="0.54"/><rect class="cls-4" x="6.2" y="280.34" width="5.61" height="1.07"/><rect class="cls-4" x="16.05" y="280.34" width="5.61" height="1.07"/><rect class="cls-4" x="35.75" y="280.34" width="5.61" height="1.07"/></g></g></g></svg>