<svg xmlns="http://www.w3.org/2000/svg" viewBox="0 0 49.7 48.8"><defs><style>.cls-1{fill:#1d80b6;}</style></defs><title>customer-services</title><g id="Layer_2" data-name="Layer 2"><g id="Layer_1-2" data-name="Layer 1"><path id="customer-care" class="cls-1" d="M21,26.84a2.56,2.56,0,1,1-2.55-2.55A2.55,2.55,0,0,1,21,26.84Zm10.36-2.55a2.55,2.55,0,1,0,2.55,2.55A2.56,2.56,0,0,0,31.31,24.29ZM49.7,25.42v4.85a4.41,4.41,0,0,1-4.41,4.41h-3.2C38.92,43.48,30.83,48.8,24.85,48.8S10.78,43.48,7.61,34.68H4.41A4.41,4.41,0,0,1,0,30.27V25.42a4.39,4.39,0,0,1,2.31-3.88c0-6.89,2.05-12.26,6-16S17.75,0,24.85,0,37.53,1.87,41.42,5.56s5.93,9.09,6,16A4.39,4.39,0,0,1,49.7,25.42Zm-9.33,1.44c0-1.14-.06-2.2-.14-3.24-2-1.79-5.51-3.15-10-3.65a6.59,6.59,0,0,1,1.4,2.68C28.89,20.48,23.5,21,19.43,16.16a8.86,8.86,0,0,1-.61-.77h0c-.72-1-1-1.57-1-.92C17.71,20,13.76,24.37,9.38,25c0,.61-.05,1.23-.05,1.88a20,20,0,0,0,1,6.42c2.46,3,6.52,3.81,10.12,4a4.58,4.58,0,0,1,3.91-1.8c2.36,0,4.28,1.36,4.28,3s-1.92,3-4.28,3a4.49,4.49,0,0,1-4-2,21,21,0,0,1-7.74-1.73c3.46,5.1,8.83,7.8,12.18,7.8C30.12,45.71,40.37,39.05,40.37,26.86ZM44.74,21C44.46,9,37.6,2.65,24.85,2.65S5.25,9,5,21H6.66a21.16,21.16,0,0,1,3.92-9.94c3.18-4.08,8-6.15,14.27-6.15S36,7,39.12,11.07A21.16,21.16,0,0,1,43,21Z"/></g></g></svg>