<svg xmlns="http://www.w3.org/2000/svg" xmlns:xlink="http://www.w3.org/1999/xlink" viewBox="0 0 49.7 49.7"><defs><style>.cls-1{isolation:isolate;}.cls-2{fill:url(#linear-gradient);}.cls-3{fill:url(#linear-gradient-2);}.cls-4{fill:url(#radial-gradient);}.cls-5{fill:url(#radial-gradient-2);}.cls-6{fill:url(#linear-gradient-3);}.cls-7{fill:url(#radial-gradient-3);}.cls-8{fill:url(#radial-gradient-4);}.cls-9{fill:url(#radial-gradient-5);}.cls-10,.cls-32{mix-blend-mode:screen;}.cls-10{fill:url(#radial-gradient-6);}.cls-11{fill:url(#linear-gradient-4);}.cls-12{fill:url(#linear-gradient-5);}.cls-13{fill:url(#linear-gradient-6);}.cls-14{fill:url(#linear-gradient-7);}.cls-15{fill:url(#linear-gradient-8);}.cls-16{fill:url(#linear-gradient-9);}.cls-17{fill:url(#linear-gradient-10);}.cls-18{fill:url(#linear-gradient-11);}.cls-19{fill:url(#linear-gradient-12);}.cls-20{fill:url(#linear-gradient-13);}.cls-21{fill:url(#linear-gradient-14);}.cls-22{fill:url(#linear-gradient-15);}.cls-23{fill:url(#linear-gradient-16);}.cls-24{fill:url(#linear-gradient-17);}.cls-25{fill:url(#linear-gradient-18);}.cls-26{fill:url(#radial-gradient-7);}.cls-27{fill:url(#radial-gradient-8);}.cls-28{fill:url(#radial-gradient-9);}.cls-29{fill:url(#radial-gradient-10);}.cls-30{fill:url(#radial-gradient-11);}.cls-31{fill:url(#radial-gradient-12);}.cls-32{fill:url(#radial-gradient-13);}</style><linearGradient id="linear-gradient" x1="6.73" y1="5.89" x2="43.38" y2="44.24" gradientUnits="userSpaceOnUse"><stop offset="0" stop-color="#edbc46"/><stop offset="0.12" stop-color="#f8da76"/><stop offset="0.21" stop-color="#ffed95"/><stop offset="0.45" stop-color="#a16327"/><stop offset="0.67" stop-color="#eda44c"/><stop offset="1" stop-color="#edbc46"/></linearGradient><linearGradient id="linear-gradient-2" x1="-1037.41" y1="2483.6" x2="-1001.68" y2="2520.98" gradientTransform="translate(-1036.44 2509.6) rotate(-179.05)" xlink:href="#linear-gradient"/><radialGradient id="radial-gradient" cx="-1580.28" cy="-2211.7" r="42.91" gradientTransform="translate(-1539.64 -2167.73) rotate(180)" gradientUnits="userSpaceOnUse"><stop offset="0" stop-color="#304053"/><stop offset="0.23" stop-color="#2d3c4f"/><stop offset="0.52" stop-color="#0e1d2f"/><stop offset="1" stop-color="#0e1329"/></radialGradient><radialGradient id="radial-gradient-2" cx="9.84" cy="6.68" r="40.79" gradientTransform="matrix(1, 0, 0, 1, 0, 0)" xlink:href="#radial-gradient"/><linearGradient id="linear-gradient-3" x1="8.34" y1="8.34" x2="49.34" y2="49.34" xlink:href="#linear-gradient"/><radialGradient id="radial-gradient-3" cx="12.38" cy="4.85" r="30.93" gradientTransform="matrix(1, 0, 0, 1, 0, 0)" xlink:href="#radial-gradient"/><radialGradient id="radial-gradient-4" cx="12.38" cy="4.85" r="30.93" gradientTransform="matrix(1, 0, 0, 1, 0, 0)" xlink:href="#radial-gradient"/><radialGradient id="radial-gradient-5" cx="12.38" cy="4.85" r="30.93" gradientTransform="matrix(1, 0, 0, 1, 0, 0)" xlink:href="#radial-gradient"/><radialGradient id="radial-gradient-6" cx="22.36" cy="-9.86" r="65.75" gradientUnits="userSpaceOnUse"><stop offset="0" stop-color="#ffc84c"/><stop offset="0.14" stop-color="#a16327"/><stop offset="0.16" stop-color="#965c24"/><stop offset="0.25" stop-color="#6e441b"/><stop offset="0.34" stop-color="#4c2f12"/><stop offset="0.44" stop-color="#301e0c"/><stop offset="0.55" stop-color="#1b1107"/><stop offset="0.66" stop-color="#0c0703"/><stop offset="0.8" stop-color="#030201"/><stop offset="1"/></radialGradient><linearGradient id="linear-gradient-4" x1="20.83" y1="4.02" x2="46.18" y2="37.08" xlink:href="#linear-gradient"/><linearGradient id="linear-gradient-5" x1="23.15" y1="2.24" x2="48.5" y2="35.3" xlink:href="#linear-gradient"/><linearGradient id="linear-gradient-6" x1="18.14" y1="6.08" x2="43.49" y2="39.14" xlink:href="#linear-gradient"/><linearGradient id="linear-gradient-7" x1="6.07" y1="15.34" x2="31.42" y2="48.4" xlink:href="#linear-gradient"/><linearGradient id="linear-gradient-8" x1="3.75" y1="17.12" x2="29.09" y2="50.18" xlink:href="#linear-gradient"/><linearGradient id="linear-gradient-9" x1="8.76" y1="13.28" x2="34.1" y2="46.34" xlink:href="#linear-gradient"/><linearGradient id="linear-gradient-10" x1="6.35" y1="21.79" x2="41.24" y2="52.62" xlink:href="#linear-gradient"/><linearGradient id="linear-gradient-11" x1="8.6" y1="19.23" x2="43.49" y2="50.07" xlink:href="#linear-gradient"/><linearGradient id="linear-gradient-12" x1="10.45" y1="17.15" x2="45.33" y2="47.98" xlink:href="#linear-gradient"/><linearGradient id="linear-gradient-13" x1="12.07" y1="15.31" x2="46.96" y2="46.14" xlink:href="#linear-gradient"/><linearGradient id="linear-gradient-14" x1="13.74" y1="13.42" x2="48.63" y2="44.26" xlink:href="#linear-gradient"/><linearGradient id="linear-gradient-15" x1="15.46" y1="11.48" x2="50.35" y2="42.31" xlink:href="#linear-gradient"/><linearGradient id="linear-gradient-16" x1="16.85" y1="9.91" x2="51.74" y2="40.74" xlink:href="#linear-gradient"/><linearGradient id="linear-gradient-17" x1="19.01" y1="7.47" x2="53.89" y2="38.3" xlink:href="#linear-gradient"/><linearGradient id="linear-gradient-18" x1="20.42" y1="5.86" x2="55.31" y2="36.7" xlink:href="#linear-gradient"/><radialGradient id="radial-gradient-7" cx="9.68" cy="8.48" r="25.3" gradientTransform="matrix(1, 0, 0, 1, 0, 0)" xlink:href="#radial-gradient"/><radialGradient id="radial-gradient-8" cx="9.68" cy="8.49" r="25.29" gradientTransform="matrix(1, 0, 0, 1, 0, 0)" xlink:href="#radial-gradient"/><radialGradient id="radial-gradient-9" cx="9.68" cy="8.48" r="25.29" gradientTransform="matrix(1, 0, 0, 1, 0, 0)" xlink:href="#radial-gradient"/><radialGradient id="radial-gradient-10" cx="9.47" cy="25.74" r="25.63" gradientTransform="matrix(1, 0, 0, 1, 0, 0)" xlink:href="#radial-gradient"/><radialGradient id="radial-gradient-11" cx="9.47" cy="25.74" r="25.65" gradientTransform="matrix(1, 0, 0, 1, 0, 0)" xlink:href="#radial-gradient"/><radialGradient id="radial-gradient-12" cx="9.47" cy="25.74" r="25.65" gradientTransform="matrix(1, 0, 0, 1, 0, 0)" xlink:href="#radial-gradient"/><radialGradient id="radial-gradient-13" cx="18.47" cy="16.18" r="12.43" xlink:href="#radial-gradient-6"/></defs><title>garansi</title><g class="cls-1"><g id="Layer_2" data-name="Layer 2"><g id="Layer_1-2" data-name="Layer 1"><g id="garansi"><circle class="cls-2" cx="24.85" cy="24.85" r="24.85"/><circle class="cls-3" cx="24.85" cy="24.85" r="24.23" transform="translate(-0.41 0.42) rotate(-0.95)"/><circle class="cls-4" cx="24.85" cy="24.85" r="23.57"/><path class="cls-5" d="M47.25,24.85a22.4,22.4,0,1,1-22.4-22.4A22.4,22.4,0,0,1,47.25,24.85Z"/><path class="cls-6" d="M46.11,24.85A21.26,21.26,0,1,1,24.85,3.6,21.26,21.26,0,0,1,46.11,24.85Z"/><path class="cls-7" d="M41.4,13.76a19.92,19.92,0,0,0-33.09,0Z"/><path class="cls-8" d="M43.7,31.28a19.89,19.89,0,0,0-.42-14H6.42a19.89,19.89,0,0,0-.42,14Z"/><path class="cls-9" d="M7.39,34.43a19.92,19.92,0,0,0,34.93,0Z"/><path class="cls-10" d="M11.43,41.33A51.49,51.49,0,0,1,42.09,12.42,21.25,21.25,0,1,0,11.43,41.33Z"/><polygon class="cls-11" points="26.19 11.08 24.92 10.33 23.65 11.08 23.98 9.64 22.87 8.66 24.34 8.53 24.92 7.17 25.51 8.53 26.98 8.66 25.87 9.64 26.19 11.08"/><polygon class="cls-12" points="29.66 10.77 28.82 10.27 27.97 10.77 28.19 9.81 27.45 9.16 28.43 9.07 28.81 8.17 29.2 9.07 30.18 9.16 29.44 9.81 29.66 10.77"/><polygon class="cls-13" points="21.7 10.77 20.86 10.27 20.02 10.77 20.23 9.81 19.49 9.16 20.47 9.07 20.86 8.17 21.25 9.07 22.22 9.16 21.49 9.81 21.7 10.77"/><polygon class="cls-14" points="23.48 37.98 24.75 38.73 26.02 37.98 25.7 39.42 26.8 40.4 25.34 40.53 24.75 41.89 24.17 40.53 22.7 40.4 23.8 39.42 23.48 37.98"/><polygon class="cls-15" points="20.01 38.29 20.86 38.79 21.7 38.29 21.49 39.25 22.22 39.9 21.25 39.99 20.86 40.89 20.47 39.99 19.49 39.9 20.23 39.25 20.01 38.29"/><polygon class="cls-16" points="27.97 38.29 28.81 38.79 29.66 38.29 29.44 39.25 30.18 39.9 29.2 39.99 28.82 40.89 28.43 39.99 27.45 39.9 28.18 39.25 27.97 38.29"/><path class="cls-17" d="M11.89,27.68H11l-.35-4.41h0l-.94,4.41H9.14l-.89-4.41h0l-.36,4.41H7l.68-6.89h.8l1,4.83h0l1-4.83h.8Z"/><path class="cls-18" d="M12.3,24.22a6.15,6.15,0,0,1,.44-2.91,1.63,1.63,0,0,1,1.46-.66,1.58,1.58,0,0,1,1.54.74,6.48,6.48,0,0,1,.38,2.66A11.36,11.36,0,0,1,16,26.43a1.71,1.71,0,0,1-.59,1,1.86,1.86,0,0,1-1.14.32,1.92,1.92,0,0,1-1.14-.29,1.8,1.8,0,0,1-.59-.94A9.13,9.13,0,0,1,12.3,24.22Zm2.84.05a7.18,7.18,0,0,0-.23-2.43.76.76,0,0,0-1.43.1,5.8,5.8,0,0,0-.21,1.86v.38a9.83,9.83,0,0,0,.17,2.14.76.76,0,0,0,.78.68.8.8,0,0,0,.65-.38,4.71,4.71,0,0,0,.27-2.1Z"/><path class="cls-19" d="M20.14,27.68h-.73L17.65,23h0v4.73h-.84V20.79h.74l1.77,4.73h0V20.79h.82Z"/><path class="cls-20" d="M23.44,27.68H21V20.79H23.4v.78H21.87v2.19h1.42v.78H21.87v2.38h1.57Z"/><path class="cls-21" d="M27.12,20.79l-1.35,3.95v2.94h-.93V24.79l-1.31-4h.92l.86,3.1h0l.87-3.09Z"/><path class="cls-22" d="M28.94,20.79H30a1.74,1.74,0,0,1,1.31.43,1.91,1.91,0,0,1,.43,1.36,1.57,1.57,0,0,1-1,1.67c.73.14,1.09.72,1.09,1.72a1.87,1.87,0,0,1-.39,1.27,1.46,1.46,0,0,1-1.13.44H28.94Zm.92.71v2.39a1.06,1.06,0,0,0,.77-.27,1.36,1.36,0,0,0,.24-.91,1.56,1.56,0,0,0-.21-.95A1,1,0,0,0,29.86,21.5Zm0,3.08V27a1.06,1.06,0,0,0,.78-.24,1.24,1.24,0,0,0,.24-.9,1.51,1.51,0,0,0-.24-1A1,1,0,0,0,29.86,24.58Z"/><path class="cls-23" d="M35.68,27.68h-.89l-.26-1.36H33.07l-.25,1.36h-.89l1.49-6.89h.76Zm-1.27-2.06-.61-3.27h0l-.57,3.27Z"/><path class="cls-24" d="M38.8,27.56a1.84,1.84,0,0,1-.83.2,1.93,1.93,0,0,1-1.45-.64,4.17,4.17,0,0,1-.61-2.69,5.18,5.18,0,0,1,.61-3A1.82,1.82,0,0,1,38,20.67a3.35,3.35,0,0,1,.8.11v.84a1.68,1.68,0,0,0-.59-.12,1.12,1.12,0,0,0-.93.55,4.22,4.22,0,0,0-.38,2.17A11.67,11.67,0,0,0,37,25.73a1.6,1.6,0,0,0,.39.86,1,1,0,0,0,.76.32,1.78,1.78,0,0,0,.67-.16Z"/><path class="cls-25" d="M43,27.68H41.92l-1.5-3.5h0v3.5h-.94V20.79h.94V24.2h0L42,20.79H43l-1.68,3.34Z"/><path class="cls-26" d="M7.77,15.81a.31.31,0,0,1-.3-.3.29.29,0,0,1,.09-.21.33.33,0,0,1,.42,0,.34.34,0,0,1,.08.21.29.29,0,0,1-.29.3Z"/><path class="cls-27" d="M39.71,15.51a.29.29,0,0,1,.29-.29h0a.29.29,0,0,1,.3.29h0a.29.29,0,0,1-.3.3h0A.29.29,0,0,1,39.71,15.51Zm-2,0a.3.3,0,0,1,.3-.29h0a.29.29,0,0,1,.29.29h0a.29.29,0,0,1-.29.3h0A.3.3,0,0,1,37.69,15.51Zm-2,0a.29.29,0,0,1,.3-.29h0a.29.29,0,0,1,.29.29h0a.29.29,0,0,1-.29.3h0A.29.29,0,0,1,35.68,15.51Zm-2,0a.3.3,0,0,1,.3-.29h0a.29.29,0,0,1,.29.29h0a.29.29,0,0,1-.29.3h0A.3.3,0,0,1,33.66,15.51Zm-2,0a.29.29,0,0,1,.29-.29h0a.29.29,0,0,1,.3.29h0a.29.29,0,0,1-.3.3h0A.29.29,0,0,1,31.65,15.51Zm-2,0a.29.29,0,0,1,.29-.29h0a.3.3,0,0,1,.3.29h0a.3.3,0,0,1-.3.3h0A.29.29,0,0,1,29.64,15.51Zm-2,0a.29.29,0,0,1,.29-.29h0a.29.29,0,0,1,.3.29h0a.29.29,0,0,1-.3.3h0A.29.29,0,0,1,27.62,15.51Zm-2,0a.29.29,0,0,1,.29-.29h0a.3.3,0,0,1,.3.29h0a.3.3,0,0,1-.3.3h0A.29.29,0,0,1,25.61,15.51Zm-2,0a.29.29,0,0,1,.3-.29h0a.29.29,0,0,1,.29.29h0a.29.29,0,0,1-.29.3h0A.29.29,0,0,1,23.59,15.51Zm-2,0a.3.3,0,0,1,.3-.29h0a.29.29,0,0,1,.29.29h0a.29.29,0,0,1-.29.3h0A.3.3,0,0,1,21.57,15.51Zm-2,0a.29.29,0,0,1,.3-.29h0a.29.29,0,0,1,.29.29h0a.29.29,0,0,1-.29.3h0A.29.29,0,0,1,19.56,15.51Zm-2,0a.29.29,0,0,1,.29-.29h0a.3.3,0,0,1,.3.29h0a.3.3,0,0,1-.3.3h0A.29.29,0,0,1,17.55,15.51Zm-2,0a.29.29,0,0,1,.29-.29h0a.29.29,0,0,1,.3.29h0a.29.29,0,0,1-.3.3h0A.29.29,0,0,1,15.53,15.51Zm-2,0a.29.29,0,0,1,.29-.29h0a.3.3,0,0,1,.3.29h0a.3.3,0,0,1-.3.3h0A.29.29,0,0,1,13.52,15.51Zm-2,0a.29.29,0,0,1,.3-.29h0a.29.29,0,0,1,.29.29h0a.29.29,0,0,1-.29.3h0A.29.29,0,0,1,11.5,15.51Zm-2,0a.29.29,0,0,1,.29-.29h0a.29.29,0,0,1,.3.29h0a.29.29,0,0,1-.3.3h0A.29.29,0,0,1,9.49,15.51Z"/><path class="cls-28" d="M42,15.81a.29.29,0,0,1-.21-.09.27.27,0,0,1-.09-.21.29.29,0,0,1,.09-.21.33.33,0,0,1,.42,0,.32.32,0,0,1,.08.21.3.3,0,0,1-.08.21A.29.29,0,0,1,42,15.81Z"/><path class="cls-29" d="M7.53,33.16a.31.31,0,0,1-.22-.09.3.3,0,0,1-.08-.21.3.3,0,0,1,.51-.21.29.29,0,0,1,.09.21.31.31,0,0,1-.09.21A.3.3,0,0,1,7.53,33.16Z"/><path class="cls-30" d="M39.92,32.86a.29.29,0,0,1,.29-.3h0a.29.29,0,0,1,.3.3h0a.29.29,0,0,1-.3.3h0A.29.29,0,0,1,39.92,32.86Zm-2.05,0a.3.3,0,0,1,.3-.3h0a.29.29,0,0,1,.3.3h0a.29.29,0,0,1-.3.3h0A.3.3,0,0,1,37.87,32.86Zm-2,0a.29.29,0,0,1,.3-.3h0a.29.29,0,0,1,.3.3h0a.29.29,0,0,1-.3.3h0A.29.29,0,0,1,35.83,32.86Zm-2,0a.29.29,0,0,1,.3-.3h0a.29.29,0,0,1,.29.3h0a.29.29,0,0,1-.29.3h0A.29.29,0,0,1,33.79,32.86Zm-2.05,0a.3.3,0,0,1,.3-.3h0a.29.29,0,0,1,.3.3h0a.29.29,0,0,1-.3.3h0A.3.3,0,0,1,31.74,32.86Zm-2,0a.29.29,0,0,1,.3-.3h0a.29.29,0,0,1,.3.3h0a.29.29,0,0,1-.3.3h0A.29.29,0,0,1,29.7,32.86Zm-2,0a.29.29,0,0,1,.3-.3h0a.3.3,0,0,1,.3.3h0a.3.3,0,0,1-.3.3h0A.29.29,0,0,1,27.66,32.86Zm-2,0a.29.29,0,0,1,.29-.3h0a.29.29,0,0,1,.3.3h0a.29.29,0,0,1-.3.3h0A.29.29,0,0,1,25.62,32.86Zm-2.05,0a.29.29,0,0,1,.3-.3h0a.29.29,0,0,1,.3.3h0a.29.29,0,0,1-.3.3h0A.29.29,0,0,1,23.57,32.86Zm-2,0a.29.29,0,0,1,.3-.3h0a.3.3,0,0,1,.3.3h0a.3.3,0,0,1-.3.3h0A.29.29,0,0,1,21.53,32.86Zm-2,0a.29.29,0,0,1,.29-.3h0a.29.29,0,0,1,.3.3h0a.29.29,0,0,1-.3.3h0A.29.29,0,0,1,19.49,32.86Zm-2,0a.3.3,0,0,1,.3-.3h0a.29.29,0,0,1,.3.3h0a.29.29,0,0,1-.3.3h0A.3.3,0,0,1,17.44,32.86Zm-2,0a.29.29,0,0,1,.3-.3h0a.3.3,0,0,1,.3.3h0a.3.3,0,0,1-.3.3h0A.29.29,0,0,1,15.4,32.86Zm-2,0a.29.29,0,0,1,.3-.3h0a.29.29,0,0,1,.29.3h0a.29.29,0,0,1-.29.3h0A.29.29,0,0,1,13.36,32.86Zm-2,0a.3.3,0,0,1,.3-.3h0a.29.29,0,0,1,.3.3h0a.29.29,0,0,1-.3.3h0A.3.3,0,0,1,11.31,32.86Zm-2,0a.29.29,0,0,1,.3-.3h0a.29.29,0,0,1,.3.3h0a.29.29,0,0,1-.3.3h0A.29.29,0,0,1,9.27,32.86Z"/><path class="cls-31" d="M42.26,33.16a.31.31,0,0,1-.3-.3.29.29,0,0,1,.09-.21.31.31,0,0,1,.42,0,.29.29,0,0,1,.09.21.27.27,0,0,1-.09.21A.29.29,0,0,1,42.26,33.16Z"/><path class="cls-32" d="M30.9,16.18A12.44,12.44,0,1,1,18.47,3.74,12.44,12.44,0,0,1,30.9,16.18Z"/></g></g></g></g></svg>