<svg xmlns="http://www.w3.org/2000/svg" xmlns:xlink="http://www.w3.org/1999/xlink" viewBox="0 0 445.51 186.22"><defs><style>.cls-1{isolation:isolate;}.cls-2{fill:#15729b;}.cls-3{fill:#e9e9e9;}.cls-4{fill:#18415a;}.cls-39,.cls-5{fill:#363f47;}.cls-6{fill:#40474d;}.cls-7{fill:#caca2c;}.cls-10,.cls-8{fill:#6b903d;}.cls-55,.cls-69,.cls-71,.cls-76,.cls-8,.cls-83,.cls-85,.cls-9{opacity:0.3;}.cls-21,.cls-23,.cls-26,.cls-27,.cls-39,.cls-41,.cls-44,.cls-46,.cls-52,.cls-55,.cls-56,.cls-57,.cls-60,.cls-65,.cls-77,.cls-8,.cls-82,.cls-83,.cls-84,.cls-85{mix-blend-mode:multiply;}.cls-11,.cls-21,.cls-23,.cls-27,.cls-39{opacity:0.2;}.cls-11,.cls-13,.cls-28,.cls-38,.cls-71,.cls-74{mix-blend-mode:screen;}.cls-12,.cls-69,.cls-73,.cls-76{mix-blend-mode:overlay;}.cls-14{fill:#778595;}.cls-15,.cls-26,.cls-70,.cls-85{fill:#547196;}.cls-16,.cls-19,.cls-27{fill:#405b7a;}.cls-16,.cls-52,.cls-73{opacity:0.5;}.cls-17{fill:#5588ac;}.cls-18,.cls-28,.cls-45,.cls-49{opacity:0.6;}.cls-20{fill:#dd3a28;}.cls-21,.cls-25{fill:#516d8b;}.cls-22{fill:#eb463e;}.cls-24{fill:#89241e;}.cls-26,.cls-36,.cls-46,.cls-57,.cls-77,.cls-82{opacity:0.4;}.cls-29{fill:#fdd83a;}.cls-30{fill:#eeb637;}.cls-31{fill:#e7ae46;}.cls-32{fill:#fcda49;}.cls-33{fill:#f5841f;}.cls-34{fill:#eb7a23;}.cls-35{fill:#f6901f;}.cls-37{fill:#ae6528;}.cls-38{opacity:0.8;}.cls-40{fill:#ffdda8;}.cls-41,.cls-44,.cls-60{opacity:0.7;}.cls-42,.cls-44,.cls-46{fill:#efcf92;}.cls-43{fill:url(#linear-gradient);}.cls-45,.cls-51{fill:#fff;}.cls-47{fill:#c5c0a2;}.cls-48{fill:#ffe1b7;}.cls-49{fill:#2b3f3c;}.cls-50{fill:#ffecd2;}.cls-53{fill:url(#linear-gradient-2);}.cls-54{fill:url(#linear-gradient-3);}.cls-55{fill:url(#linear-gradient-4);}.cls-56{fill:#cbc8c0;}.cls-57,.cls-60,.cls-65,.cls-78{fill:#adada4;}.cls-58{fill:#d2d2d2;}.cls-59,.cls-73,.cls-76{fill:#cfcfcf;}.cls-61{fill:#fde341;}.cls-62{fill:#828383;}.cls-63{fill:#505057;}.cls-64,.cls-75{fill:#888d91;}.cls-66{fill:#46474b;}.cls-67{fill:#4e4e4c;}.cls-68{fill:#686a76;}.cls-70,.cls-72{fill-rule:evenodd;}.cls-72,.cls-74{fill:#4b8dbd;}.cls-74{opacity:0.9;}.cls-75{stroke:#888d91;stroke-miterlimit:10;stroke-width:0.86px;}.cls-79{fill:#afb3b6;}.cls-80{fill:#efc928;}.cls-81,.cls-82{fill:#15a1a7;}</style><linearGradient id="linear-gradient" x1="224.96" y1="125.43" x2="224.96" y2="193.72" gradientUnits="userSpaceOnUse"><stop offset="0" stop-color="#2f3840"/><stop offset="0.27" stop-color="#2d3b44"/><stop offset="0.52" stop-color="#28464f"/><stop offset="0.76" stop-color="#205761"/><stop offset="0.99" stop-color="#14707b"/><stop offset="1" stop-color="#13717d"/></linearGradient><linearGradient id="linear-gradient-2" x1="219.91" y1="156.64" x2="219.91" y2="179.95" xlink:href="#linear-gradient"/><linearGradient id="linear-gradient-3" x1="224.44" y1="156.27" x2="273.75" y2="156.27" xlink:href="#linear-gradient"/><linearGradient id="linear-gradient-4" x1="232.03" y1="122.97" x2="266.25" y2="122.97" xlink:href="#linear-gradient"/></defs><title>kapal-layar</title><g class="cls-1"><g id="Layer_2" data-name="Layer 2"><g id="Layer_4" data-name="Layer 4"><path class="cls-2" d="M36.76,163.87S5.5,160.72.47,168.76s32.1,3.64,30.68,8.13-6.73,2.85-7,6S49.49,186,49.49,186s54.71-3,69.63-3.11S236,187.33,240.6,186s102.93-3.11,110.94-3.11,59.72,2.26,65.19-2.8,7.4-4.27,21.07-2.61,7.49-13.94-5.65-16.2-36.93,9.5-38.31,2.47S36.76,163.87,36.76,163.87Z"/><polygon class="cls-3" points="403.41 138.72 399.91 138.72 400.69 107.32 402.63 107.32 403.41 138.72"/><polygon class="cls-4" points="74.98 87.93 73.34 87.93 73.82 77.52 74.49 77.52 74.98 87.93"/><polygon class="cls-5" points="265.74 102.95 210.81 102.95 210.81 103.24 158.12 111.02 158.12 126.31 103.14 126.31 103.14 148.24 156.56 148.24 157.39 148.24 211.54 148.24 212.36 148.24 266.52 148.24 267.34 148.24 320.76 148.24 320.76 125.59 265.79 125.59 265.74 102.95"/><rect class="cls-6" x="335.57" y="123.88" width="52.69" height="20.31"/><rect class="cls-7" x="158.83" y="103.66" width="51.27" height="19.48"/><path class="cls-8" d="M158.83,103.66v19H210.1v-19Zm49,17.33H161.21V105.84h46.65Z"/><path class="cls-7" d="M159.92,104.75H209V122H159.92V104.75Zm-2.19-2.19v21.67H211.2V102.56Z"/><g class="cls-9"><rect class="cls-10" x="203.16" y="107.32" width="1.14" height="12.19"/></g><g class="cls-9"><rect class="cls-10" x="198.49" y="107.32" width="1.14" height="12.19"/></g><g class="cls-9"><rect class="cls-10" x="193.82" y="107.32" width="1.14" height="12.19"/></g><g class="cls-9"><rect class="cls-10" x="189.15" y="107.32" width="1.14" height="12.19"/></g><g class="cls-9"><rect class="cls-10" x="184.48" y="107.32" width="1.14" height="12.19"/></g><g class="cls-9"><rect class="cls-10" x="179.8" y="107.32" width="1.14" height="12.19"/></g><g class="cls-9"><rect class="cls-10" x="175.13" y="107.32" width="1.14" height="12.19"/></g><g class="cls-9"><rect class="cls-10" x="170.46" y="107.32" width="1.14" height="12.19"/></g><g class="cls-9"><rect class="cls-10" x="165.79" y="107.32" width="1.14" height="12.19"/></g><g class="cls-11"><g class="cls-12"><g class="cls-13"><rect class="cls-14" x="202.13" y="107.32" width="1.14" height="12.19"/></g></g><g class="cls-12"><g class="cls-13"><rect class="cls-14" x="197.46" y="107.32" width="1.14" height="12.19"/></g></g><g class="cls-12"><g class="cls-13"><rect class="cls-14" x="192.79" y="107.32" width="1.14" height="12.19"/></g></g><g class="cls-12"><g class="cls-13"><rect class="cls-14" x="188.11" y="107.32" width="1.14" height="12.19"/></g></g><g class="cls-12"><g class="cls-13"><rect class="cls-14" x="183.44" y="107.32" width="1.14" height="12.19"/></g></g><g class="cls-12"><g class="cls-13"><rect class="cls-14" x="178.77" y="107.32" width="1.14" height="12.19"/></g></g><g class="cls-12"><g class="cls-13"><rect class="cls-14" x="174.1" y="107.32" width="1.14" height="12.19"/></g></g><g class="cls-12"><g class="cls-13"><rect class="cls-14" x="169.42" y="107.32" width="1.14" height="12.19"/></g></g><g class="cls-12"><g class="cls-13"><rect class="cls-14" x="164.75" y="107.32" width="1.14" height="12.19"/></g></g></g><rect class="cls-15" x="213.81" y="103.66" width="51.27" height="19.48"/><rect class="cls-16" x="213.81" y="103.66" width="51.27" height="2.18"/><polygon class="cls-16" points="265.08 122.71 265.08 105.84 262.84 105.84 262.84 120.99 216.19 120.99 216.19 105.84 213.81 105.84 213.81 122.71 265.08 122.71"/><path class="cls-17" d="M214.9,104.75H264V122H214.9V104.75Zm-2.19-2.19v21.67h53.47V102.56Z"/><g class="cls-18"><rect class="cls-19" x="258.14" y="107.32" width="1.14" height="12.19"/></g><g class="cls-18"><rect class="cls-19" x="253.47" y="107.32" width="1.14" height="12.19"/></g><g class="cls-18"><rect class="cls-19" x="248.8" y="107.32" width="1.14" height="12.19"/></g><g class="cls-18"><rect class="cls-19" x="244.13" y="107.32" width="1.14" height="12.19"/></g><g class="cls-18"><rect class="cls-19" x="239.45" y="107.32" width="1.14" height="12.19"/></g><g class="cls-18"><rect class="cls-19" x="234.78" y="107.32" width="1.14" height="12.19"/></g><g class="cls-18"><rect class="cls-19" x="230.11" y="107.32" width="1.14" height="12.19"/></g><g class="cls-18"><rect class="cls-19" x="225.44" y="107.32" width="1.14" height="12.19"/></g><g class="cls-18"><rect class="cls-19" x="220.76" y="107.32" width="1.14" height="12.19"/></g><g class="cls-11"><rect class="cls-19" x="257.11" y="107.32" width="1.14" height="12.19"/><rect class="cls-19" x="252.44" y="107.32" width="1.14" height="12.19"/><rect class="cls-19" x="247.76" y="107.32" width="1.14" height="12.19"/><rect class="cls-19" x="243.09" y="107.32" width="1.14" height="12.19"/><rect class="cls-19" x="238.42" y="107.32" width="1.14" height="12.19"/><rect class="cls-19" x="233.75" y="107.32" width="1.14" height="12.19"/><rect class="cls-19" x="229.08" y="107.32" width="1.14" height="12.19"/><rect class="cls-19" x="224.4" y="107.32" width="1.14" height="12.19"/><rect class="cls-19" x="219.73" y="107.32" width="1.14" height="12.19"/></g><rect class="cls-20" x="103.85" y="126.49" width="51.27" height="19.48"/><rect class="cls-21" x="103.85" y="126.49" width="51.27" height="2.18"/><polygon class="cls-21" points="155.12 145.54 155.12 128.68 152.88 128.68 152.88 143.83 106.23 143.83 106.23 128.68 103.85 128.68 103.85 145.54 155.12 145.54"/><path class="cls-22" d="M104.94,127.59H154v17.29H104.94V127.59Zm-2.19-2.19v21.67h53.47V125.4Z"/><g class="cls-23"><rect class="cls-24" x="148.14" y="130.16" width="1.14" height="12.19"/></g><g class="cls-23"><rect class="cls-24" x="143.47" y="130.16" width="1.14" height="12.19"/></g><g class="cls-23"><rect class="cls-24" x="138.8" y="130.16" width="1.14" height="12.19"/></g><g class="cls-23"><rect class="cls-24" x="134.12" y="130.16" width="1.14" height="12.19"/></g><g class="cls-23"><rect class="cls-24" x="129.45" y="130.16" width="1.14" height="12.19"/></g><g class="cls-23"><rect class="cls-24" x="124.78" y="130.16" width="1.14" height="12.19"/></g><g class="cls-23"><rect class="cls-24" x="120.11" y="130.16" width="1.14" height="12.19"/></g><g class="cls-23"><rect class="cls-24" x="115.44" y="130.16" width="1.14" height="12.19"/></g><g class="cls-23"><rect class="cls-24" x="110.76" y="130.16" width="1.14" height="12.19"/></g><g class="cls-11"><rect class="cls-25" x="147.15" y="130.16" width="1.14" height="12.19"/><rect class="cls-25" x="142.48" y="130.16" width="1.14" height="12.19"/><rect class="cls-25" x="137.81" y="130.16" width="1.14" height="12.19"/><rect class="cls-25" x="133.14" y="130.16" width="1.14" height="12.19"/><rect class="cls-25" x="128.46" y="130.16" width="1.14" height="12.19"/><rect class="cls-25" x="123.79" y="130.16" width="1.14" height="12.19"/><rect class="cls-25" x="119.12" y="130.16" width="1.14" height="12.19"/><rect class="cls-25" x="114.45" y="130.16" width="1.14" height="12.19"/><rect class="cls-25" x="109.77" y="130.16" width="1.14" height="12.19"/></g><polygon class="cls-26" points="156.22 147.07 146.39 147.07 153.66 125.4 156.22 125.4 156.22 147.07"/><polygon class="cls-26" points="211.2 124.25 203.74 124.25 211.01 104.78 211.2 102.58 211.2 124.25"/><rect class="cls-20" x="158.83" y="126.49" width="51.27" height="19.48"/><rect class="cls-27" x="158.83" y="126.49" width="51.27" height="2.18"/><polygon class="cls-21" points="210.1 145.54 210.1 128.68 207.86 128.68 207.86 143.83 161.21 143.83 161.21 128.68 158.83 128.68 158.83 145.54 210.1 145.54"/><path class="cls-22" d="M159.92,127.59H209v17.29H159.92V127.59Zm-2.19-2.19v21.67H211.2V125.4Z"/><g class="cls-23"><rect class="cls-25" x="203.16" y="130.16" width="1.14" height="12.19"/></g><g class="cls-23"><rect class="cls-25" x="198.49" y="130.16" width="1.14" height="12.19"/></g><g class="cls-23"><rect class="cls-25" x="193.82" y="130.16" width="1.14" height="12.19"/></g><g class="cls-23"><rect class="cls-25" x="189.15" y="130.16" width="1.14" height="12.19"/></g><g class="cls-23"><rect class="cls-25" x="184.48" y="130.16" width="1.14" height="12.19"/></g><g class="cls-23"><rect class="cls-25" x="179.8" y="130.16" width="1.14" height="12.19"/></g><g class="cls-23"><rect class="cls-25" x="175.13" y="130.16" width="1.14" height="12.19"/></g><g class="cls-23"><rect class="cls-25" x="170.46" y="130.16" width="1.14" height="12.19"/></g><g class="cls-23"><rect class="cls-25" x="165.79" y="130.16" width="1.14" height="12.19"/></g><g class="cls-11"><g class="cls-28"><rect class="cls-25" x="202.13" y="130.16" width="1.14" height="12.19"/></g><g class="cls-28"><rect class="cls-25" x="197.46" y="130.16" width="1.14" height="12.19"/></g><g class="cls-28"><rect class="cls-25" x="192.79" y="130.16" width="1.14" height="12.19"/></g><g class="cls-28"><rect class="cls-25" x="188.11" y="130.16" width="1.14" height="12.19"/></g><g class="cls-28"><rect class="cls-25" x="183.44" y="130.16" width="1.14" height="12.19"/></g><g class="cls-28"><rect class="cls-25" x="178.77" y="130.16" width="1.14" height="12.19"/></g><g class="cls-28"><rect class="cls-25" x="174.1" y="130.16" width="1.14" height="12.19"/></g><g class="cls-28"><rect class="cls-25" x="169.42" y="130.16" width="1.14" height="12.19"/></g><g class="cls-28"><rect class="cls-25" x="164.75" y="130.16" width="1.14" height="12.19"/></g></g><rect class="cls-29" x="213.81" y="126.49" width="51.27" height="19.48"/><path class="cls-30" d="M213.81,126.49v19h51.27v-19Zm49,17.34H216.19V128.68h46.65Z"/><path class="cls-29" d="M214.9,127.59H264v17.29H214.9V127.59Zm-2.19-2.19v21.67h53.47V125.4Z"/><rect class="cls-31" x="258.14" y="130.16" width="1.14" height="12.19"/><rect class="cls-31" x="253.47" y="130.16" width="1.14" height="12.19"/><rect class="cls-31" x="248.8" y="130.16" width="1.14" height="12.19"/><rect class="cls-31" x="244.13" y="130.16" width="1.14" height="12.19"/><rect class="cls-31" x="239.45" y="130.16" width="1.14" height="12.19"/><rect class="cls-31" x="234.78" y="130.16" width="1.14" height="12.19"/><rect class="cls-31" x="230.11" y="130.16" width="1.14" height="12.19"/><rect class="cls-31" x="225.44" y="130.16" width="1.14" height="12.19"/><rect class="cls-31" x="220.76" y="130.16" width="1.14" height="12.19"/><g class="cls-11"><g class="cls-13"><rect class="cls-32" x="257.11" y="130.16" width="1.14" height="12.19"/></g><g class="cls-13"><rect class="cls-32" x="252.44" y="130.16" width="1.14" height="12.19"/></g><g class="cls-13"><rect class="cls-32" x="247.77" y="130.16" width="1.14" height="12.19"/></g><g class="cls-13"><rect class="cls-32" x="243.09" y="130.16" width="1.14" height="12.19"/></g><g class="cls-13"><rect class="cls-32" x="238.42" y="130.16" width="1.14" height="12.19"/></g><g class="cls-13"><rect class="cls-32" x="233.75" y="130.16" width="1.14" height="12.19"/></g><g class="cls-13"><rect class="cls-32" x="229.08" y="130.16" width="1.14" height="12.19"/></g><g class="cls-13"><rect class="cls-32" x="224.4" y="130.16" width="1.14" height="12.19"/></g><g class="cls-13"><rect class="cls-32" x="219.73" y="130.16" width="1.14" height="12.19"/></g></g><rect class="cls-33" x="268.78" y="126.49" width="51.27" height="19.48"/><rect class="cls-34" x="268.78" y="126.49" width="51.27" height="2.18"/><polygon class="cls-34" points="320.06 145.54 320.06 128.68 317.82 128.68 317.82 143.83 271.17 143.83 271.17 128.68 268.78 128.68 268.78 145.54 320.06 145.54"/><path class="cls-35" d="M269.88,127.59H319v17.29H269.88V127.59Zm-2.19-2.19v21.67h53.46V125.4Z"/><g class="cls-36"><rect class="cls-37" x="313.12" y="130.16" width="1.14" height="12.19"/></g><g class="cls-36"><rect class="cls-37" x="308.45" y="130.16" width="1.14" height="12.19"/></g><g class="cls-36"><rect class="cls-37" x="303.78" y="130.16" width="1.14" height="12.19"/></g><g class="cls-36"><rect class="cls-37" x="299.1" y="130.16" width="1.14" height="12.19"/></g><g class="cls-36"><rect class="cls-37" x="294.43" y="130.16" width="1.14" height="12.19"/></g><g class="cls-36"><rect class="cls-37" x="289.76" y="130.16" width="1.14" height="12.19"/></g><g class="cls-36"><rect class="cls-37" x="285.09" y="130.16" width="1.14" height="12.19"/></g><g class="cls-36"><rect class="cls-37" x="280.42" y="130.16" width="1.14" height="12.19"/></g><g class="cls-36"><rect class="cls-37" x="275.74" y="130.16" width="1.14" height="12.19"/></g><g class="cls-11"><g class="cls-38"><rect class="cls-19" x="312.09" y="130.16" width="1.14" height="12.19"/></g><g class="cls-38"><rect class="cls-19" x="307.42" y="130.16" width="1.14" height="12.19"/></g><g class="cls-38"><rect class="cls-19" x="302.74" y="130.16" width="1.14" height="12.19"/></g><g class="cls-38"><rect class="cls-19" x="298.07" y="130.16" width="1.14" height="12.19"/></g><g class="cls-38"><rect class="cls-19" x="293.4" y="130.16" width="1.14" height="12.19"/></g><g class="cls-38"><rect class="cls-19" x="288.73" y="130.16" width="1.14" height="12.19"/></g><g class="cls-38"><rect class="cls-19" x="284.05" y="130.16" width="1.14" height="12.19"/></g><g class="cls-38"><rect class="cls-19" x="279.38" y="130.16" width="1.14" height="12.19"/></g><g class="cls-38"><rect class="cls-19" x="274.71" y="130.16" width="1.14" height="12.19"/></g></g><rect class="cls-15" x="336.27" y="122.45" width="51.27" height="19.48"/><rect class="cls-16" x="336.27" y="122.45" width="51.27" height="2.18"/><polygon class="cls-16" points="387.55 141.5 387.55 124.63 385.31 124.63 385.31 139.78 338.66 139.78 338.66 124.63 336.27 124.63 336.27 141.5 387.55 141.5"/><path class="cls-17" d="M337.37,123.54h49.08v17.29H337.37V123.54Zm-2.19-2.19V143h53.46V121.35Z"/><rect class="cls-19" x="380.61" y="126.11" width="1.14" height="12.19"/><rect class="cls-19" x="375.94" y="126.11" width="1.14" height="12.19"/><rect class="cls-19" x="371.26" y="126.11" width="1.14" height="12.19"/><rect class="cls-19" x="366.59" y="126.11" width="1.14" height="12.19"/><rect class="cls-19" x="361.92" y="126.11" width="1.14" height="12.19"/><rect class="cls-19" x="357.25" y="126.11" width="1.14" height="12.19"/><rect class="cls-19" x="352.58" y="126.11" width="1.14" height="12.19"/><rect class="cls-19" x="347.9" y="126.11" width="1.14" height="12.19"/><rect class="cls-19" x="343.23" y="126.11" width="1.14" height="12.19"/><g class="cls-11"><rect class="cls-19" x="379.58" y="126.11" width="1.14" height="12.19"/><rect class="cls-19" x="374.9" y="126.11" width="1.14" height="12.19"/><rect class="cls-19" x="370.23" y="126.11" width="1.14" height="12.19"/><rect class="cls-19" x="365.56" y="126.11" width="1.14" height="12.19"/><rect class="cls-19" x="360.89" y="126.11" width="1.14" height="12.19"/><rect class="cls-19" x="356.21" y="126.11" width="1.14" height="12.19"/><rect class="cls-19" x="351.54" y="126.11" width="1.14" height="12.19"/><rect class="cls-19" x="346.87" y="126.11" width="1.14" height="12.19"/><rect class="cls-19" x="342.2" y="126.11" width="1.14" height="12.19"/></g><rect class="cls-39" x="103.14" y="141.5" width="217.62" height="6.74"/><rect class="cls-39" x="335.18" y="136.74" width="53.46" height="6.74"/><rect class="cls-40" x="45" y="126.49" width="24.34" height="12.1" rx="1.76"/><rect class="cls-15" x="56.75" y="129.46" width="3.18" height="3.7"/><rect class="cls-15" x="49.49" y="129.46" width="3.18" height="3.7"/><g class="cls-41"><polygon class="cls-42" points="59.19 126.49 56.75 139 63.83 138.59 63.83 126.49 59.19 126.49"/></g><rect class="cls-40" x="62.4" y="104.67" width="22.69" height="33.92"/><path class="cls-43" d="M334.85,138.34l-4.93,5.42H94.35l-3.72-6.55H34.05a49.91,49.91,0,0,0,4.83,23.69c4,8.56,14.39,11.64,18.61,11.64,11.24,0,210.53.83,210.53.83s120.26-1.16,127.92-8c19.14-17.06,20-27,20-27Z"/><path class="cls-44" d="M80.87,105.45h-3.6l.31-1.17h-3.4l-.2,1.17H70.86l-.2-1.17H67.58l-3.53.5.49,5.63h4.81l2.06,5.83h2.14l1.94-5.83h4.07Zm-8.45,9.15L72,112h.9Z"/><polygon class="cls-3" points="73.4 116.02 71.56 116.02 70.78 104.28 74.18 104.28 73.4 116.02"/><polygon class="cls-45" points="73.4 115.4 72.81 115.4 72.81 107.42 73.99 107.13 73.4 115.4"/><polygon class="cls-46" points="73.99 107.13 74.12 105.45 70.86 105.45 71.02 107.86 73.99 107.13"/><polygon class="cls-47" points="328.59 145.71 95.23 145.71 91.51 139.16 33.27 139.16 33.27 136.82 92.87 136.82 96.59 143.37 328.33 143.37 333.27 137.95 416.73 137.95 416.73 140.28 333.52 140.28 328.59 145.71"/><polygon class="cls-48" points="65.19 105.45 82.76 105.45 82.76 96.37 77.82 96.37 77.82 91.11 82.76 91.12 83.54 85.58 65.19 85.58 65.19 105.45"/><rect class="cls-15" x="70.78" y="91.11" width="3.18" height="4.48"/><rect class="cls-15" x="80.27" y="112.54" width="3.18" height="3.7"/><rect class="cls-15" x="80.27" y="120.54" width="3.18" height="3.7"/><rect class="cls-15" x="80.27" y="128.54" width="3.18" height="3.7"/><rect class="cls-15" x="75.74" y="91.11" width="6.29" height="5.26"/><rect class="cls-48" x="65.19" y="104.11" width="17.57" height="1.34"/><polygon class="cls-42" points="82.76 91.12 83.54 85.58 79.55 85.58 79.2 89.68 71.13 89.71 70.78 91.11 82.76 91.12"/><rect class="cls-49" x="75.74" y="91.11" width="6.29" height="0.86"/><rect class="cls-49" x="70.78" y="91.11" width="3.18" height="0.86"/><rect class="cls-50" x="75.74" y="96.37" width="7.02" height="1.24"/><rect class="cls-50" x="70.78" y="95.59" width="3.18" height="1.24"/><rect class="cls-3" x="399" y="120.29" width="5.32" height="1.31"/><rect class="cls-3" x="399.62" y="107.32" width="4.09" height="1.31"/><rect class="cls-51" x="107.64" y="130.89" width="6.31" height="1.12"/><rect class="cls-51" x="112.35" y="133.08" width="3.58" height="1.12"/><rect class="cls-51" x="107.64" y="133.08" width="3.32" height="1.12"/><rect class="cls-51" x="162.52" y="130.89" width="6.31" height="1.12"/><rect class="cls-51" x="167.23" y="133.08" width="3.58" height="1.12"/><rect class="cls-51" x="162.52" y="133.08" width="3.32" height="1.12"/><rect class="cls-4" x="72.58" y="79.03" width="3.16" height="0.78"/><rect class="cls-4" x="72.58" y="77.13" width="3.16" height="0.78"/><g class="cls-52"><path class="cls-53" d="M38.86,160.66c.26.59.52,1.19.8,1.8,3.6,7.67,12.3,8.77,17.11,10.54H292c35.5-3,97-1.18,102.43-6.06,2.48-2.22,4.65-4.31,6.56-6.28Z"/></g><g class="cls-23"><path class="cls-54" d="M252.79,156.14h-.26v-9h2.4v-2h-2.4v-1.72H245v1.72h-2.32v2H245V156l-5.78-12.63H235l-10.52,13.41,1.31,2.68h0l-.11,9.7H230l1.45-8h35.14l1.45,8h4.33l-.11-9.7h.18l1.32-2.68L263.3,143.37h-4.61Zm-23.65,0,8-10.34,4.73,10.34Zm26.75,0,4.9-10.72,8.26,10.72Z"/></g><path class="cls-55" d="M266.18,102.56h-7.95v9.16h-.18v1.06h0v3.74a.88.88,0,0,0,0,.24H258v.15h-2.31V102.56H239.54l1.15,2.43H233.8a1.41,1.41,0,0,0-1.5,1.41v2.95H232V110h.27v2.9l2.37,6a.66.66,0,0,0,.57.37H245.9v4.92h-4.72v3.8h2.72v6.82h.89l-6.54,8.49h4.2l5.61-7.28v7.28h7.59V135l6.31,8.26,0,.12h4.34l-6.49-8.49h.82v-6.82h2.73v-3.8h-4.73v-4.92h7.6V118h0V102.56ZM248.06,115.3v1.61h-2.23v-8.48l2.23,1Z"/><rect class="cls-56" x="226.25" y="161.68" width="52.07" height="1.61"/><polygon class="cls-57" points="257.25 169.16 225.72 163.3 272.82 163.3 277.89 163.3 315.67 169.16 257.25 169.16"/><rect class="cls-58" x="302.9" y="57.37" width="2.27" height="28.02" transform="translate(88.3 297.2) rotate(-59.52)"/><rect class="cls-58" x="262.91" y="55.38" width="27.87" height="2.27" transform="translate(85.34 264.27) rotate(-58.87)"/><polygon class="cls-59" points="291.97 154.15 282.17 152.79 282.17 113.41 286.26 98.41 291.97 98.41 291.97 154.15"/><polygon class="cls-60" points="282.17 139.36 284.65 138.3 284.65 128.68 291.97 126.56 291.97 124.51 282.17 124.51 282.17 139.36"/><polygon class="cls-60" points="291.97 142.32 284.28 143.44 284.28 154.42 282.17 154.75 282.17 140.58 291.97 140.58 291.97 142.32"/><polygon class="cls-61" points="307.46 49.88 304.39 52.32 303.08 54.98 303 58.89 305.74 60.23 308.8 57.79 310.11 55.14 310.19 51.23 307.46 49.88"/><polygon class="cls-59" points="291.97 104.24 282.17 102.88 282.17 63.5 286.26 48.5 291.97 48.5 291.97 104.24"/><polygon class="cls-60" points="285.75 50.38 286.61 50.15 291.97 51.07 291.97 48.5 286.26 48.5 285.75 50.38"/><polygon class="cls-62" points="181.19 66.11 180.85 65.41 188.42 61.69 188.42 20.7 189.19 20.7 189.19 62.18 181.19 66.11"/><polygon class="cls-62" points="201.31 66.1 193.32 61.8 193.32 18.71 194.1 18.71 194.1 61.34 201.68 65.42 201.31 66.1"/><rect class="cls-63" x="260.77" y="156.25" width="52.69" height="2.59"/><path class="cls-64" d="M317.68,156.63H257.37l-1.7-3.47L286,114.22h3.39l30,38.94Zm-55.93-4.29h51.56L287.64,119Z"/><rect class="cls-64" x="286.95" y="143.56" width="21.07" height="3.64" transform="translate(41.51 355.41) rotate(-65.41)"/><rect class="cls-64" x="274.9" y="133.25" width="3.64" height="22.75" transform="translate(-35.08 128.24) rotate(-24.59)"/><polygon class="cls-65" points="273.55 88.13 236.09 9.72 241.08 8.92 282.17 83.66 282.17 91.9 273.55 88.13"/><polygon class="cls-59" points="237.17 10.25 241.48 7.6 278.69 76.38 283.08 76.47 283.08 89.56 274.62 86.54 237.17 10.25"/><polygon class="cls-57" points="240.66 6.06 235.61 8.76 239.55 16.94 243.55 11.42 240.66 6.06"/><rect class="cls-64" x="276.8" y="114.33" width="21.55" height="10.19"/><rect class="cls-66" x="279.38" y="102.72" width="16.38" height="11.63"/><rect class="cls-58" x="269.76" y="-1.85" width="2.27" height="56.02" transform="translate(54.43 191.12) rotate(-42.83)"/><rect class="cls-61" x="273.28" y="110.92" width="28.59" height="4.87"/><rect class="cls-59" x="279.12" y="61.68" width="15.89" height="2.59"/><rect class="cls-64" x="279.17" y="138.06" width="15.89" height="2.59"/><polygon class="cls-64" points="257.25 169.16 262.85 169.16 265.42 154.97 257.41 154.97 257.25 169.16"/><polygon class="cls-64" points="311.98 169.16 317.58 169.16 317.42 154.97 309.42 154.97 311.98 169.16"/><polygon class="cls-57" points="298.35 118.38 281.41 118.38 280.06 123.51 276.8 123.51 276.8 115.78 298.35 115.78 298.35 118.38"/><polygon class="cls-67" points="310.08 55.27 290.1 45.41 288.55 43.56 284.01 41.1 282.42 42.7 280.46 42.21 279.59 44.23 281.39 45.38 281.74 47.8 286.1 49.39 288.31 49.29 308.85 57.69 310.08 55.27"/><path class="cls-68" d="M330.8,77.55a1.83,1.83,0,0,1,1.82,1.82V96.32a2.66,2.66,0,0,1-1.73,2.37l-10.84,3.48a14.2,14.2,0,0,1-3.55.55H297.12a1.76,1.76,0,0,1-1.76-1.81L296,79.37a1.89,1.89,0,0,1,1.87-1.82Z"/><path class="cls-61" d="M262.38,96.73l2.37,6.08a2.39,2.39,0,0,0,2.23,1.81h12.31v-17s.09-1.42-1.59-1.42H263.75A1.8,1.8,0,0,0,261.81,88V90.9l.44,5v.42Z"/><g class="cls-69"><polygon class="cls-59" points="270.52 103.63 266.88 103.63 274.25 87.17 277.89 87.17 270.52 103.63"/></g><path class="cls-70" d="M265.61,104.16a.37.37,0,0,1-.32-.2l-3-7.65V88.87h8.18v15.29Z"/><path class="cls-61" d="M270,89.33v14.38h-4.31l-3-7.49V89.33Zm.91-.91h-9.09v8l3.07,7.75a.82.82,0,0,0,.73.47h5.29V88.42Z"/><g class="cls-71"><polygon class="cls-72" points="269.97 94.05 265.52 103.43 264.43 100.69 269.97 89.66 269.97 94.05"/></g><polygon class="cls-60" points="295.76 106.11 279.38 107.63 279.38 104.08 295.76 104.08 295.76 106.11"/><polygon class="cls-60" points="282.17 101.46 291.97 102.98 291.97 99.44 282.17 99.44 282.17 101.46"/><polygon class="cls-60" points="282.17 65.39 291.97 66.5 291.97 64.28 282.17 64.28 282.17 65.39"/><rect class="cls-63" x="276.8" y="123.24" width="21.55" height="1.28"/><rect class="cls-73" x="292.09" y="110.92" width="7.34" height="4.86"/><rect class="cls-74" x="288.79" y="61.68" width="6.14" height="2.59"/><path class="cls-61" d="M330.8,76.75a1.82,1.82,0,0,1,1.82,1.81v17c-.45.9-.78,1.61-1.73,1.92l-10.84,3.47a13.84,13.84,0,0,1-3.55.56H297.13c-1,0-1.82,1-1.82,0V78.56a1.81,1.81,0,0,1,1.82-1.81Z"/><path class="cls-75" d="M295.31,101c0,1,.81.46,1.82.46H316.5a13.84,13.84,0,0,0,3.55-.56l10.84-3.47a2.5,2.5,0,0,0,1.53-2.38H295.31Z"/><path class="cls-76" d="M298.21,76.75h-1.08c-1,0-1.82.81-1.05,1.81v17h2.13Z"/><g class="cls-77"><rect class="cls-78" x="295.31" y="80.23" width="37.32" height="0.91"/></g><g class="cls-77"><rect class="cls-78" x="295.31" y="84.93" width="37.32" height="0.91"/></g><g class="cls-77"><rect class="cls-78" x="295.31" y="89.63" width="37.32" height="0.91"/></g><g class="cls-77"><rect class="cls-78" x="295.31" y="94.33" width="37.32" height="0.91"/></g><path class="cls-79" d="M295.08,94.85v1.36h37.54V94.85Z"/><polygon class="cls-76" points="316.19 80.24 309.89 80.24 311.58 76.75 317.88 76.75 316.19 80.24"/><polygon class="cls-76" points="313.98 84.78 307.68 84.78 309.37 81.29 315.67 81.29 313.98 84.78"/><polygon class="cls-76" points="311.73 89.53 305.43 89.53 307.12 86.04 313.42 86.04 311.73 89.53"/><polygon class="cls-76" points="309.52 94.13 303.22 94.13 304.91 90.64 311.21 90.64 309.52 94.13"/><rect class="cls-61" x="273.68" y="101.5" width="42.51" height="3.12"/><polygon class="cls-80" points="316.19 104.62 291.17 104.62 293.51 101.5 316.19 101.5 316.19 104.62"/><rect class="cls-68" x="295.15" y="101.5" width="21.04" height="1.22"/><path class="cls-68" d="M316.38,102.92H295v-1.61h21.42Zm-21-.39H316v-.83H295.35Z"/><g class="cls-69"><path class="cls-59" d="M262.72,96.35v-8.3c0-.41.2-.91,1-.91H277.7a.89.89,0,0,1,.57.15.56.56,0,0,1,.11.31h0v15.15l.91,1.87v-17s.09-1.42-1.59-1.42H263.75A1.8,1.8,0,0,0,261.81,88v8.32Z"/></g><rect class="cls-61" x="261.47" y="91.81" width="9.44" height="0.86"/><rect class="cls-65" x="279.17" y="138.06" width="11.21" height="2.59"/><path class="cls-61" d="M255.18,8.05a4.57,4.57,0,1,0-6.44-.53A4.57,4.57,0,0,0,255.18,8.05Z"/><polygon class="cls-61" points="250.75 1.9 232.29 0.99 190.24 17.2 189.71 21.41 252.56 7.71 254.45 2.48 250.75 1.9"/><path class="cls-80" d="M196.06,20a4.93,4.93,0,0,0-1.16-3.51,4.8,4.8,0,0,0-.85-.78l-3.81,1.47-.53,4.21Z"/><path class="cls-59" d="M253.12,5.62a1.38,1.38,0,1,0-2-.16A1.39,1.39,0,0,0,253.12,5.62Z"/><path class="cls-61" d="M193.85,23a4.24,4.24,0,1,0-6-.49A4.25,4.25,0,0,0,193.85,23Z"/><path class="cls-59" d="M192.34,21.17a1.9,1.9,0,1,0-2.68-.22A1.9,1.9,0,0,0,192.34,21.17Z"/><polygon class="cls-61" points="195.76 62.26 186.47 62.35 186.47 59.75 195.76 59.66 195.76 62.26"/><rect class="cls-81" x="160.78" y="66.51" width="59.86" height="22.74"/><rect class="cls-82" x="160.78" y="66.51" width="59.86" height="2.55"/><polygon class="cls-82" points="220.64 88.75 220.64 69.06 218.03 69.06 218.03 86.75 163.56 86.75 163.56 69.06 160.78 69.06 160.78 88.75 220.64 88.75"/><path class="cls-81" d="M162.05,67.79h57.31V88H162.05V67.79Zm-2.55-2.56v25.3h62.42V65.23Z"/><g class="cls-83"><rect class="cls-81" x="212.57" y="70.79" width="1.33" height="14.23"/></g><g class="cls-83"><rect class="cls-81" x="207.12" y="70.79" width="1.33" height="14.23"/></g><g class="cls-83"><rect class="cls-81" x="201.66" y="70.79" width="1.33" height="14.23"/></g><g class="cls-83"><rect class="cls-81" x="196.21" y="70.79" width="1.33" height="14.23"/></g><g class="cls-83"><rect class="cls-81" x="190.75" y="70.79" width="1.33" height="14.23"/></g><g class="cls-83"><rect class="cls-81" x="185.3" y="70.79" width="1.33" height="14.23"/></g><g class="cls-83"><rect class="cls-81" x="179.84" y="70.79" width="1.33" height="14.23"/></g><g class="cls-83"><rect class="cls-81" x="174.39" y="70.79" width="1.33" height="14.23"/></g><g class="cls-83"><rect class="cls-81" x="168.93" y="70.79" width="1.33" height="14.23"/></g><g class="cls-11"><rect class="cls-81" x="211.33" y="70.79" width="1.33" height="14.23"/><rect class="cls-81" x="205.88" y="70.79" width="1.33" height="14.23"/><rect class="cls-81" x="200.42" y="70.79" width="1.33" height="14.23"/><rect class="cls-81" x="194.97" y="70.79" width="1.33" height="14.23"/><rect class="cls-81" x="189.51" y="70.79" width="1.33" height="14.23"/><rect class="cls-81" x="184.06" y="70.79" width="1.33" height="14.23"/><rect class="cls-81" x="178.6" y="70.79" width="1.33" height="14.23"/><rect class="cls-81" x="173.15" y="70.79" width="1.33" height="14.23"/><rect class="cls-81" x="167.69" y="70.79" width="1.33" height="14.23"/></g><g class="cls-84"><polygon class="cls-78" points="291.86 124.52 293.09 126.11 298.51 126.11 297.28 124.52 291.86 124.52"/><polygon class="cls-78" points="277.94 124.52 276.7 126.11 282.14 126.11 283.38 124.52 277.94 124.52"/></g><rect class="cls-85" x="157.73" y="102.56" width="48.32" height="8.68"/></g></g></g></svg>