<svg xmlns="http://www.w3.org/2000/svg" viewBox="0 0 46.68 49.7"><defs><style>.cls-1{fill:#1d80b6;}.cls-2{fill:#66cef2;}.cls-3{fill:#fff;}</style></defs><title>live-track</title><g id="Layer_2" data-name="Layer 2"><g id="Layer_1-2" data-name="Layer 1"><g id="live-track"><rect class="cls-1" y="12.36" width="3.24" height="26.6" rx="0.66"/><rect class="cls-1" x="6.63" y="12.36" width="4.58" height="26.6" rx="0.66"/><rect class="cls-1" x="14.88" y="12.36" width="2.29" height="26.6" rx="0.66"/><path class="cls-1" d="M24.58,12.36h-4a.67.67,0,0,0-.66.66V26.17a13.09,13.09,0,0,1,5.36-4.46V13A.66.66,0,0,0,24.58,12.36Z"/><path class="cls-1" d="M29.31,12.36h0a.67.67,0,0,0-.66.66V20.7c.45-.06.89-.11,1.34-.13V13A.66.66,0,0,0,29.31,12.36Z"/><path class="cls-1" d="M33.05,12.36h-.44A.67.67,0,0,0,32,13v7.6a11.35,11.35,0,0,1,1.76.3V13A.67.67,0,0,0,33.05,12.36Z"/><path class="cls-1" d="M37.92,12.36H35.79a.67.67,0,0,0-.67.66v8.32a13,13,0,0,1,3.46,1.91V13A.67.67,0,0,0,37.92,12.36Z"/><path class="cls-2" d="M45.93,45.35l-5.47-5.47a11.68,11.68,0,1,0-3.6,3.6L42.33,49a2.55,2.55,0,0,0,3.6-3.61Zm-15.3-3.69a8,8,0,1,1,8-8A8,8,0,0,1,30.63,41.66Z"/><path class="cls-1" d="M39.07,8.88a1.39,1.39,0,0,1-1.41,1.37H1.41A1.39,1.39,0,0,1,0,8.88V1.37A1.39,1.39,0,0,1,1.41,0H37.66a1.39,1.39,0,0,1,1.41,1.37Z"/><path class="cls-3" d="M2.71,6.38H4.45a.27.27,0,0,1,.3.3v.65c0,.2-.1.29-.3.29H1.77c-.2,0-.3-.09-.3-.29V3.06a.27.27,0,0,1,.3-.3h.65c.2,0,.29.1.29.3Z"/><path class="cls-3" d="M6.66,2.76a.26.26,0,0,1,.29.3V7.33a.25.25,0,0,1-.29.29H6c-.2,0-.3-.09-.3-.29V3.06a.27.27,0,0,1,.3-.3Z"/><path class="cls-3" d="M10,5.52,10.83,3a.34.34,0,0,1,.34-.23h.71c.21,0,.3.13.23.33l-1.47,4.3a.34.34,0,0,1-.35.23H9.63a.33.33,0,0,1-.34-.23L7.81,3.09c-.08-.2,0-.33.23-.33h.7A.35.35,0,0,1,9.09,3Z"/><path class="cls-3" d="M16.28,7.33c0,.2-.1.29-.3.29H13.17c-.2,0-.3-.09-.3-.29V3.06a.27.27,0,0,1,.3-.3H16a.27.27,0,0,1,.3.3v.65A.27.27,0,0,1,16,4H14.11v.61h1.38a.26.26,0,0,1,.3.29v.56a.27.27,0,0,1-.3.3H14.11v.61H16a.27.27,0,0,1,.3.3Z"/><path class="cls-3" d="M22.58,5.5c-.13.13-.32.29-.51.45l-.62.49h1.48a.26.26,0,0,1,.29.3v.59a.25.25,0,0,1-.29.29h-3.1a.25.25,0,0,1-.29-.29V7a.67.67,0,0,1,.29-.57L20.31,6c.38-.31.77-.65,1.11-1l.41-.38A1.18,1.18,0,0,0,22,4.46a.53.53,0,0,0,0-.28.58.58,0,0,0-.57-.31.75.75,0,0,0-.46.18,1.8,1.8,0,0,0-.35.38.27.27,0,0,1-.41.07l-.54-.38c-.33-.21,0-.48.13-.7A2.21,2.21,0,0,1,20,3.15a2.1,2.1,0,0,1,1.38-.52,1.86,1.86,0,0,1,1,.29,1.71,1.71,0,0,1,.65.78,1.57,1.57,0,0,1,.09.93A2.11,2.11,0,0,1,22.58,5.5Z"/><path class="cls-3" d="M27,2.76a.27.27,0,0,1,.3.3V5.58h.29a.26.26,0,0,1,.29.3V6.3a.26.26,0,0,1-.29.29h-.29v.74c0,.2-.1.29-.3.29h-.55c-.2,0-.29-.09-.29-.29V6.59H24.26A.26.26,0,0,1,24,6.3V5.79a.56.56,0,0,1,.13-.37l2.07-2.48a.42.42,0,0,1,.36-.18Zm-.84,2.82V4.44l-1,1.14Z"/><path class="cls-3" d="M32.72,7.33a.25.25,0,0,1-.29.29h-.65c-.2,0-.3-.09-.3-.29V5.82H30.14V7.33c0,.2-.1.29-.3.29h-.65c-.2,0-.3-.09-.3-.29V3.06a.27.27,0,0,1,.3-.3h.65a.27.27,0,0,1,.3.3V4.57h1.34V3.06a.27.27,0,0,1,.3-.3h.65a.26.26,0,0,1,.29.3Z"/><path class="cls-3" d="M37.6,4.36a1.59,1.59,0,0,1-.55,1.25l-.14.1-.08,0,.66,1.54c.08.21,0,.34-.23.34h-.73a.34.34,0,0,1-.34-.23l-.57-1.5H35V7.33c0,.2-.1.29-.3.29h-.65a.25.25,0,0,1-.29-.29V3.06a.26.26,0,0,1,.29-.3h2a1.56,1.56,0,0,1,1,.37,1.6,1.6,0,0,1,.32.46A2,2,0,0,1,37.6,4.36Zm-1.2,0A.37.37,0,0,0,36,4H35v.81H36A.41.41,0,0,0,36.4,4.36Z"/></g></g></g></svg>