<svg xmlns="http://www.w3.org/2000/svg" viewBox="0 0 312.04 204.27"><defs><style>.cls-1{isolation:isolate;}.cls-2{fill:#afafaf;}.cls-2,.cls-8{opacity:0.5;}.cls-3{fill:#f6c40a;}.cls-4{fill:#feec48;}.cls-5,.cls-8{fill:#f0aa00;}.cls-6{fill:#ef7700;}.cls-7{fill:#fceb70;}.cls-8{mix-blend-mode:multiply;}.cls-9{fill:#253d44;}.cls-10{fill:#2a454e;}.cls-11{fill:#dbdbdd;}.cls-12{fill:#bfbfbf;}.cls-13{fill:#f24141;}.cls-14{fill:#fff;opacity:0.64;}.cls-15{fill:#385a63;}.cls-16{fill:#f76666;}</style></defs><title>ongkos-kirim</title><g class="cls-1"><g id="Layer_2" data-name="Layer 2"><g id="Layer_3" data-name="Layer 3"><ellipse class="cls-2" cx="162.94" cy="198.87" rx="86.02" ry="5.4"/><ellipse class="cls-2" cx="28.18" cy="190.68" rx="26.8" ry="4.11"/><ellipse class="cls-2" cx="284.45" cy="197.46" rx="26.8" ry="4.11"/><path class="cls-3" d="M294.48,135c0,.34,0,.68,0,1,0,.6,0,1.19-.11,1.78s-.1,1-.17,1.52a30,30,0,0,1-1.71,6.64c-.12.35-.25.68-.4,1a30.79,30.79,0,0,1-7.77,11,31.15,31.15,0,0,1-10,6.11l-1.18.4c-.28.1-.55.18-.84.27a29.45,29.45,0,0,1-3.52.8c-.37.07-.73.12-1.11.17a29.64,29.64,0,0,1-4.13.28l-1.29,0-.65,0c-.67,0-1.34-.1-2-.19-.47-.06-.93-.12-1.39-.21-.68-.12-1.37-.26-2-.43l-.92-.23a31.85,31.85,0,0,1-5-1.86,30.59,30.59,0,0,1-4-2.27c-.62-.42-1.22-.86-1.81-1.31s-1.38-1.14-2-1.74a32,32,0,0,1-4.35-5,31,31,0,0,1,31.91-48,31.72,31.72,0,0,1,6.31,2.07h0c.81.37,1.61.78,2.38,1.21a31.11,31.11,0,0,1,14.78,19,30.43,30.43,0,0,1,1,6.79C294.47,134.1,294.48,134.52,294.48,135Z"/><path class="cls-4" d="M294.45,133.68l-1.1,1.67L274.27,164l-1.18.4c-.28.1-.55.18-.84.27a29.45,29.45,0,0,1-3.52.8c-.37.07-.73.12-1.11.17l7.19-10.81,10.38-15.6,1-1.55h0l2.83-4.26,4.36-6.55A30.43,30.43,0,0,1,294.45,133.68Z"/><path class="cls-4" d="M276.25,106.71l-4.56,6.86h0l-.56.85-5.19,7.8-2.57,3.86-.27.4-2.47,3.71L258.1,134l-.27.41-1,1.5-.88,1.33-2.44,3.68h0l-.25.38-6.31,9.47-4.56,6.86a32,32,0,0,1-4.35-5l5-7.46,7.15-10.75.27-.41.89-1.34,1.64-2.46,2.85-4.29,8.68-13.06.49-.73h0l5-7.48A31.72,31.72,0,0,1,276.25,106.71Z"/><path class="cls-4" d="M287.82,115.77,283,123h0l-.7,1-5,7.48-2.58,3.89L270.38,142h0l-3.73,5.59v0l-.27.4-.27.42L263,153.14l-3,4.45-.74,1.12-4.06,6.11a31.85,31.85,0,0,1-5-1.86,30.59,30.59,0,0,1-4-2.27c-.62-.42-1.22-.86-1.81-1.31l2.81-4.22,1.69-2.54,5.94-8.94.26-.39,2.22-3.33.15-.24.16-.23.79-1.19,1.59-2.39,1-1.5.28-.41,2.52-3.8,2.44-3.66.27-.41,2.22-3.32,4.81-7.23.58-.89,4.5-6.77A31.09,31.09,0,0,1,287.82,115.77Z"/><circle class="cls-5" cx="263.49" cy="134.96" r="22.9"/><path class="cls-6" d="M286.39,135a22.84,22.84,0,0,1-9.25,18.38,22.9,22.9,0,0,0-28.2-36.08A22.91,22.91,0,0,1,286.39,135Z"/><path class="cls-6" d="M247.05,126.38a.61.61,0,0,1,.13-.41.53.53,0,0,1,.41-.15h7.89a6.06,6.06,0,0,1,4.27,1.75,5.83,5.83,0,0,1,1.76,4.19,5.16,5.16,0,0,1-.23,1.58,5.86,5.86,0,0,1-1.58,2.59,6.8,6.8,0,0,1-1.22.91l3.14,5.91c.06.11.13.25.22.4a.84.84,0,0,1,.13.4.38.38,0,0,1-.12.3.54.54,0,0,1-.35.11h-4.19a.56.56,0,0,1-.37-.13.6.6,0,0,1-.22-.32l-3-5.59h-2v5.51c0,.35-.19.53-.57.53h-3.62a.57.57,0,0,1-.39-.13.51.51,0,0,1-.15-.4Zm9.56,5.42a2.12,2.12,0,0,0-.13-.73,2.47,2.47,0,0,0-.38-.67,2.24,2.24,0,0,0-.59-.51,1.93,1.93,0,0,0-.75-.27l-.64,0c-.2,0-.42,0-.66,0h-1.68V134h2.63l.38,0a1.8,1.8,0,0,0,.77-.25,2,2,0,0,0,.58-.5,2.25,2.25,0,0,0,.35-.67A2.48,2.48,0,0,0,256.61,131.8Z"/><path class="cls-6" d="M264,128.59a.75.75,0,0,1,.33-.17l.33,0h1.84a.86.86,0,0,1,.38.07.56.56,0,0,1,.25.2,1.38,1.38,0,0,1,.17.29c0,.11.09.23.13.36l.51,1.48.69-.9a4.66,4.66,0,0,1,.83-.83,3.92,3.92,0,0,1,1.13-.61,4.5,4.5,0,0,1,1.61-.25,7.65,7.65,0,0,1,3.09.62,7.35,7.35,0,0,1,2.43,1.7,7.7,7.7,0,0,1,1.59,2.54,8.56,8.56,0,0,1,.58,3.15,8.66,8.66,0,0,1-.58,3.16,7.81,7.81,0,0,1-1.59,2.54,7.35,7.35,0,0,1-2.43,1.7,7.49,7.49,0,0,1-3.09.63,4.51,4.51,0,0,1-1.36-.19,3.73,3.73,0,0,1-1-.5,4.3,4.3,0,0,1-.79-.67c-.23-.24-.45-.49-.67-.73v5.69a.94.94,0,0,1-.22.62.88.88,0,0,1-.69.26h-2.79a1,1,0,0,1-.32-.06,1.23,1.23,0,0,1-.32-.17.92.92,0,0,1-.24-.28.66.66,0,0,1-.1-.37V129.29a.79.79,0,0,1,.09-.4A1.33,1.33,0,0,1,264,128.59Zm11.4,7.62a4.3,4.3,0,0,0-.25-1.48,3.76,3.76,0,0,0-.72-1.23,3.51,3.51,0,0,0-1.11-.83,3.39,3.39,0,0,0-1.43-.3,3.76,3.76,0,0,0-1.46.28,4,4,0,0,0-1.21.79,3.83,3.83,0,0,0-.85,1.16A3.92,3.92,0,0,0,268,136v.18a3.89,3.89,0,0,0,1.14,2.75,4,4,0,0,0,1.23.82,3.88,3.88,0,0,0,1.51.31,3.4,3.4,0,0,0,1.43-.31,3.49,3.49,0,0,0,1.11-.82,3.76,3.76,0,0,0,.72-1.23A4.45,4.45,0,0,0,275.43,136.21Z"/><path class="cls-7" d="M247.28,125.75a.59.59,0,0,1,.13-.41.51.51,0,0,1,.4-.15h7.89a5.82,5.82,0,0,1,2.36.47,6.12,6.12,0,0,1,1.92,1.27,6.22,6.22,0,0,1,1.29,1.89,5.77,5.77,0,0,1,.47,2.3,5.49,5.49,0,0,1-.23,1.58,6,6,0,0,1-.63,1.41,6,6,0,0,1-1,1.18,5.9,5.9,0,0,1-1.21.91l3.14,5.91a4.39,4.39,0,0,0,.22.41.81.81,0,0,1,.13.4.35.35,0,0,1-.13.3.52.52,0,0,1-.35.1h-4.19a.63.63,0,0,1-.37-.12.53.53,0,0,1-.21-.33l-3-5.58h-2v5.51c0,.35-.18.52-.56.52h-3.63a.56.56,0,0,1-.39-.13.5.5,0,0,1-.14-.39Zm9.56,5.42a2.1,2.1,0,0,0-.14-.73,2.49,2.49,0,0,0-.37-.68,2.41,2.41,0,0,0-.59-.51A2,2,0,0,0,255,129l-.64,0-.65,0H252v4.49h2.25l.39,0,.38,0a2.18,2.18,0,0,0,.77-.25,2,2,0,0,0,.57-.51,2,2,0,0,0,.36-.67A2.46,2.46,0,0,0,256.84,131.17Z"/><path class="cls-7" d="M264.25,128a.75.75,0,0,1,.33-.17,1.35,1.35,0,0,1,.33,0h1.85a.86.86,0,0,1,.38.07.71.71,0,0,1,.25.2,1.46,1.46,0,0,1,.17.3q.06.17.12.36l.52,1.48q.33-.45.69-.9a4.29,4.29,0,0,1,.82-.83,4.14,4.14,0,0,1,1.14-.62,4.71,4.71,0,0,1,1.61-.24,7.63,7.63,0,0,1,3.08.61,7.35,7.35,0,0,1,2.43,1.7,8,8,0,0,1,1.6,2.54,9,9,0,0,1,0,6.31,7.94,7.94,0,0,1-1.6,2.55,7.47,7.47,0,0,1-5.51,2.32,4.28,4.28,0,0,1-1.37-.19,4,4,0,0,1-1-.49,4.73,4.73,0,0,1-.79-.67l-.67-.74v5.7a.91.91,0,0,1-.22.62.84.84,0,0,1-.68.26h-2.8a1,1,0,0,1-.32-.07.94.94,0,0,1-.31-.17.93.93,0,0,1-.25-.27.79.79,0,0,1-.1-.37V128.65a.82.82,0,0,1,.1-.4A1.23,1.23,0,0,1,264.25,128Zm11.41,7.62a4.36,4.36,0,0,0-.26-1.49,3.82,3.82,0,0,0-.72-1.22,3.37,3.37,0,0,0-1.11-.83,3.22,3.22,0,0,0-1.43-.31,3.8,3.8,0,0,0-1.46.29,3.93,3.93,0,0,0-1.21.78,4.16,4.16,0,0,0-.84,1.17,3.47,3.47,0,0,0-.36,1.43v.18a3.64,3.64,0,0,0,.31,1.51,3.76,3.76,0,0,0,.83,1.23,4,4,0,0,0,1.23.83,3.79,3.79,0,0,0,1.5.3,3.36,3.36,0,0,0,1.43-.3,3.51,3.51,0,0,0,1.11-.83,3.66,3.66,0,0,0,.72-1.23A4.39,4.39,0,0,0,275.66,135.58Z"/><path class="cls-8" d="M293.35,135.35a31.11,31.11,0,0,0-4.29-1.91c-.91-.33-1.85-.63-2.79-.87-.34-.1-.69-.18-1-.26a31.74,31.74,0,0,0-7.08-.79h-.82a31.51,31.51,0,0,0-6.57.86,31.13,31.13,0,0,0-5,1.61l-.94.41a30.22,30.22,0,0,0-2.88,1.5,33.51,33.51,0,0,0-3.52,2.39c-.35.28-.7.56-1,.85-.46-.65-.94-1.29-1.45-1.91a32.47,32.47,0,0,0-4.65-4.58c-.35-.28-.7-.55-1.06-.81h0l-.26-.19a32.05,32.05,0,0,0-16.07-5.94A31.09,31.09,0,0,0,238,152.62a32,32,0,0,0,4.35,5c.66.6,1.33,1.18,2,1.74s1.2.89,1.81,1.3h0l.24.15q.66.43,1.35.84l.59.34c.59.33,1.18.65,1.79.94a31.85,31.85,0,0,0,5,1.86l.92.23c.67.17,1.36.31,2,.43.46.09.92.15,1.39.21.66.09,1.33.14,2,.19l.65,0,1.29,0a29.64,29.64,0,0,0,4.13-.28c.38,0,.74-.1,1.11-.17a29.45,29.45,0,0,0,3.52-.8c.29-.09.56-.17.84-.27l1.18-.4a31.11,31.11,0,0,0,17.8-17.09c.15-.33.28-.66.4-1a30,30,0,0,0,1.71-6.64c.07-.5.13-1,.17-1.52s.1-1.18.11-1.78C294.1,135.76,293.72,135.56,293.35,135.35Z"/><path class="cls-3" d="M312,165.76a31,31,0,0,1-20.2,29.06,30.66,30.66,0,0,1-6.37,1.61l-.29,0a29.6,29.6,0,0,1-4.12.28,31.33,31.33,0,0,1-4.37-.31,31.69,31.69,0,0,1-3.92-.82A30.56,30.56,0,0,1,262,190.18c-.37-.28-.73-.59-1.09-.88l-.95-.85a32.2,32.2,0,0,1-4.36-5,30.24,30.24,0,0,1-1.83-3c-.29-.53-.56-1.08-.82-1.62s-.58-1.3-.82-2a26.91,26.91,0,0,1-1.21-3.95,30.6,30.6,0,0,1-.84-7.14c0-.94,0-1.87.13-2.8a30.93,30.93,0,0,1,7.09-17.09l.31-.35h0a30.88,30.88,0,0,1,2.24-2.33l.47-.44a32.55,32.55,0,0,1,3.34-2.61l.62-.41a30.34,30.34,0,0,1,6.49-3.19,29.79,29.79,0,0,1,4-1.11l1.23-.23a30.91,30.91,0,0,1,4.12-.4h1l1.16,0a26.53,26.53,0,0,1,3.24.3c.31,0,.62.08.92.13h0c.38.07.74.13,1.11.22l.19,0a31.35,31.35,0,0,1,4.63,1.4c.5.19,1,.41,1.49.63h0l.53.24.63.31,1.23.65a31.08,31.08,0,0,1,9.17,7.86,29.79,29.79,0,0,1,2.28,3.3A30.64,30.64,0,0,1,311,157.7a2.68,2.68,0,0,1,.07.27,31.66,31.66,0,0,1,1,6.51C312,164.91,312,165.33,312,165.76Z"/><path class="cls-4" d="M311,158l-25.57,38.46-.29,0a29.6,29.6,0,0,1-4.12.28,31.58,31.58,0,0,1-4.38-.31l31-46.56A30.67,30.67,0,0,1,311,157.7,2.61,2.61,0,0,1,311,158Z"/><path class="cls-4" d="M295,138.07l-.8,1.21-3.74,5.61-.57.86-4,6-2.28,3.42h0l-.3.45-2.86,4.31-1.12,1.67-3.24,4.87v0l-.46.69-.81,1.22-3.52,5.3-.16.24-5.7,8.56-4.53,6.81-.95-.85a32.2,32.2,0,0,1-4.36-5,30.24,30.24,0,0,1-1.83-3c-.29-.53-.56-1.08-.82-1.62l5.66-8.52,2.95-4.41,1-1.56,4.49-6.74,9.08-13.66.41-.61h0l5.66-8.51a26.53,26.53,0,0,1,3.24.3c.31,0,.62.08.92.13h0c.38.07.74.13,1.11.22l.19,0a31.35,31.35,0,0,1,4.63,1.4c.5.19,1,.41,1.49.63h0l.53.24Z"/><path class="cls-4" d="M280.1,134.79,274,144h0l-.36.53-8.85,13.31-1.61,2.42-3.63,5.46-1.31,2-6.12,9.19a26.91,26.91,0,0,1-1.21-3.95l5.21-7.85,2.46-3.7,2.42-3.63,2.14-3.21,4.48-6.74.54-.82.14-.21h0l3-4.55,4.66-7A30.91,30.91,0,0,1,280.1,134.79Z"/><circle class="cls-5" cx="281.05" cy="165.76" r="22.9"/><path class="cls-6" d="M304,165.76a22.86,22.86,0,0,1-9.25,18.39,22.9,22.9,0,0,0-28.19-36.08A22.91,22.91,0,0,1,304,165.76Z"/><path class="cls-6" d="M263.73,164a.6.6,0,0,1,0-.43.47.47,0,0,1,.3-.3l7.16-3.3a6.06,6.06,0,0,1,6.58,1,5.83,5.83,0,0,1,1.39,1.89,5.51,5.51,0,0,1,.45,1.54,5.61,5.61,0,0,1,0,1.53,5.75,5.75,0,0,1-.38,1.48,6.18,6.18,0,0,1-.72,1.34l5.32,4.05.37.28a.76.76,0,0,1,.29.31.33.33,0,0,1,0,.32.54.54,0,0,1-.27.24l-3.81,1.75a.58.58,0,0,1-.39.05.59.59,0,0,1-.33-.21l-5-3.83-1.8.83,2.31,5a.48.48,0,0,1-.29.71l-3.3,1.52a.6.6,0,0,1-.41,0,.55.55,0,0,1-.3-.3Zm11,.93a2.31,2.31,0,0,0-1.05-1.06,2.51,2.51,0,0,0-.75-.23,2,2,0,0,0-.8.08c-.22.08-.42.15-.6.23s-.39.15-.6.25l-1.53.71,1.87,4.07,2-.94.35-.17.33-.2a1.84,1.84,0,0,0,.59-.55,1.81,1.81,0,0,0,.32-.69,2.42,2.42,0,0,0,0-.76A2.33,2.33,0,0,0,274.69,164.93Z"/><path class="cls-6" d="M280.08,158.91a.68.68,0,0,1,.23-.29,1.4,1.4,0,0,1,.28-.17l1.68-.78a1,1,0,0,1,.38-.09.68.68,0,0,1,.31.08,1.17,1.17,0,0,1,.27.2,3.44,3.44,0,0,1,.27.27l1.08,1.13c.09-.36.17-.73.25-1.11a4.74,4.74,0,0,1,.41-1.1,4.19,4.19,0,0,1,.77-1,4.72,4.72,0,0,1,1.36-.9,7.7,7.7,0,0,1,3.06-.73,7.35,7.35,0,0,1,2.92.53,7.94,7.94,0,0,1,2.51,1.64,9,9,0,0,1,2.64,5.73,7.77,7.77,0,0,1-.39,3,7.29,7.29,0,0,1-1.49,2.56,7.64,7.64,0,0,1-2.54,1.86,4.55,4.55,0,0,1-1.32.4,4.31,4.31,0,0,1-1.14,0,5.15,5.15,0,0,1-1-.28l-.92-.39,2.38,5.17a1,1,0,0,1,.06.66.86.86,0,0,1-.51.52l-2.54,1.17a1,1,0,0,1-.32.07,1.09,1.09,0,0,1-.36,0,.79.79,0,0,1-.34-.15.76.76,0,0,1-.24-.29l-7.76-16.86a.76.76,0,0,1-.08-.4A1.55,1.55,0,0,1,280.08,158.91Zm13.55,2.15a4.48,4.48,0,0,0-.85-1.24,4.1,4.1,0,0,0-1.17-.81,3.32,3.32,0,0,0-1.36-.29,3.23,3.23,0,0,0-1.43.32,3.7,3.7,0,0,0-1.2.87,3.76,3.76,0,0,0-.77,1.22,3.89,3.89,0,0,0-.28,1.41,3.66,3.66,0,0,0,.27,1.45l.08.16a3.57,3.57,0,0,0,.91,1.25,3.93,3.93,0,0,0,1.26.77,4,4,0,0,0,1.47.23,3.73,3.73,0,0,0,1.49-.35,3.17,3.17,0,0,0,1.17-.88,3.35,3.35,0,0,0,.67-1.21,3.89,3.89,0,0,0,.14-1.42A4.47,4.47,0,0,0,293.63,161.06Z"/><path class="cls-7" d="M263.67,163.33a.67.67,0,0,1-.05-.43.52.52,0,0,1,.31-.31l7.16-3.3a6.18,6.18,0,0,1,4.62-.2,6.07,6.07,0,0,1,2,1.18,5.73,5.73,0,0,1,1.39,1.89,5.55,5.55,0,0,1,.45,1.53,5.68,5.68,0,0,1,0,1.54,6.22,6.22,0,0,1-1.1,2.81l5.32,4.06.37.28a.76.76,0,0,1,.29.31.33.33,0,0,1,0,.32.54.54,0,0,1-.27.24L280.34,175a.58.58,0,0,1-.39.05.59.59,0,0,1-.33-.21l-5-3.83-1.8.83,2.31,5a.48.48,0,0,1-.29.71l-3.3,1.52a.6.6,0,0,1-.41.05.55.55,0,0,1-.3-.3Zm11,.93a2,2,0,0,0-.43-.61,2.33,2.33,0,0,0-.62-.46,2.49,2.49,0,0,0-.75-.22,2,2,0,0,0-.8.08c-.22.08-.42.15-.6.23s-.39.15-.6.25l-1.53.71,1.87,4.07,2-.94.35-.18a3,3,0,0,0,.33-.19,1.84,1.84,0,0,0,.59-.55,2.06,2.06,0,0,0,.32-.69,2.42,2.42,0,0,0,0-.76A2.33,2.33,0,0,0,274.63,164.26Z"/><path class="cls-7" d="M280,158.24a.71.71,0,0,1,.23-.3,2.61,2.61,0,0,1,.28-.17l1.68-.77a1,1,0,0,1,.38-.09.68.68,0,0,1,.31.08,1.48,1.48,0,0,1,.27.19l.27.28,1.08,1.13c.09-.37.17-.73.25-1.11a5.2,5.2,0,0,1,.4-1.1,4.31,4.31,0,0,1,.78-1,4.72,4.72,0,0,1,1.36-.9,7.54,7.54,0,0,1,3.06-.73,7.35,7.35,0,0,1,2.92.53,7.94,7.94,0,0,1,2.51,1.64,8.51,8.51,0,0,1,1.84,2.63,8.73,8.73,0,0,1,.8,3.1,7.77,7.77,0,0,1-.39,3,7.29,7.29,0,0,1-1.49,2.56A7.64,7.64,0,0,1,294,169a4.52,4.52,0,0,1-1.33.4,3.85,3.85,0,0,1-1.13,0,4.37,4.37,0,0,1-1-.28l-.92-.38L292,173.9a1,1,0,0,1,.06.66.86.86,0,0,1-.51.52L289,176.25a1,1,0,0,1-.32.07,1.09,1.09,0,0,1-.36,0,.93.93,0,0,1-.34-.15.76.76,0,0,1-.24-.29L280,159a.76.76,0,0,1-.08-.4A1.55,1.55,0,0,1,280,158.24Zm13.55,2.15a4.17,4.17,0,0,0-.86-1.24,3.93,3.93,0,0,0-1.16-.81,3.32,3.32,0,0,0-1.36-.29,3.23,3.23,0,0,0-1.43.32,3.89,3.89,0,0,0-2,2.08,4,4,0,0,0-.28,1.42,3.58,3.58,0,0,0,.27,1.44l.08.17a3.67,3.67,0,0,0,.91,1.25,3.93,3.93,0,0,0,1.26.77,4.27,4.27,0,0,0,1.47.23,3.73,3.73,0,0,0,1.49-.35,3.26,3.26,0,0,0,1.17-.88,3.44,3.44,0,0,0,.67-1.21,3.91,3.91,0,0,0,.14-1.42A4.47,4.47,0,0,0,293.57,160.39Z"/><path class="cls-8" d="M263.28,157.64v.2c0,.8,0,1.6-.1,2.39a30.77,30.77,0,0,1-.6,4.09c-.11.54-.24,1.07-.38,1.6a31.64,31.64,0,0,1-2.86,7.13,32.22,32.22,0,0,1-5.58,7.38c-.29-.53-.56-1.08-.82-1.62s-.58-1.3-.82-2a26.91,26.91,0,0,1-1.21-3.95,30.6,30.6,0,0,1-.84-7.14c0-.94,0-1.87.13-2.8a30.93,30.93,0,0,1,7.09-17.09l.31-.35h0a30.88,30.88,0,0,1,2.24-2.33,30.3,30.3,0,0,1,1.74,4.15h0c.05.17.11.33.16.5a34.8,34.8,0,0,1,1,4.14c.06.38.13.77.17,1.17s.13.91.18,1.37C263.23,155.54,263.28,156.58,263.28,157.64Z"/><path class="cls-3" d="M257.17,160.4A31,31,0,0,1,237,189.46a31.26,31.26,0,0,1-19.08.8,30.6,30.6,0,0,1-10.77-5.44q-1.06-.82-2-1.74a31,31,0,0,1,21.11-53.67,31.06,31.06,0,0,1,6.44.67,31.72,31.72,0,0,1,6.31,2.07h0c.81.37,1.61.78,2.39,1.21a31,31,0,0,1,15.81,25.76C257.16,159.54,257.17,160,257.17,160.4Z"/><path class="cls-4" d="M238.94,132.15l-33.86,50.93a30.69,30.69,0,0,1-4.36-5l31.91-48A31.72,31.72,0,0,1,238.94,132.15Z"/><path class="cls-4" d="M250.51,141.21l-32.62,49a30.6,30.6,0,0,1-10.77-5.44l34.22-51.46A31.05,31.05,0,0,1,250.51,141.21Z"/><circle class="cls-5" cx="226.18" cy="160.4" r="22.9" transform="translate(-43.71 96.79) rotate(-22.08)"/><path class="cls-6" d="M249.08,160.4a22.87,22.87,0,0,1-9.24,18.39,22.9,22.9,0,0,0-28.2-36.08,22.9,22.9,0,0,1,37.44,17.69Z"/><path class="cls-6" d="M214.46,147a.64.64,0,0,1,.26-.35.53.53,0,0,1,.43,0l7.48,2.51a6,6,0,0,1,2.09,1.2,6.19,6.19,0,0,1,1.41,1.82,6.06,6.06,0,0,1,.62,2.2,5.65,5.65,0,0,1-.29,2.33,5.19,5.19,0,0,1-.72,1.43,6.21,6.21,0,0,1-1,1.13,5.72,5.72,0,0,1-1.29.81,6.1,6.1,0,0,1-1.44.48l1.1,6.6a3.44,3.44,0,0,0,.08.46,1,1,0,0,1,0,.42.4.4,0,0,1-.22.24.5.5,0,0,1-.36,0l-4-1.33a.67.67,0,0,1-.31-.24.56.56,0,0,1-.1-.38l-1-6.23-1.88-.63-1.75,5.22a.48.48,0,0,1-.7.32l-3.44-1.16a.53.53,0,0,1-.33-.24.49.49,0,0,1,0-.43Zm7.34,8.19a2,2,0,0,0,.11-.74,2.5,2.5,0,0,0-.15-.76,2.26,2.26,0,0,0-.39-.67,1.94,1.94,0,0,0-.63-.5l-.59-.24-.62-.23-1.6-.53-1.42,4.24,2.13.72.37.11.37.09a2,2,0,0,0,.81,0,2.09,2.09,0,0,0,.7-.3,2,2,0,0,0,.55-.52A2.34,2.34,0,0,0,221.8,155.18Z"/><path class="cls-6" d="M229.85,154.49a.82.82,0,0,1,.37-.06l.32.07,1.75.59a.84.84,0,0,1,.34.19.68.68,0,0,1,.18.27,1.75,1.75,0,0,1,.06.33c0,.12,0,.25,0,.39v1.56l.94-.63a4.7,4.7,0,0,1,1-.53,4.49,4.49,0,0,1,1.27-.22,4.83,4.83,0,0,1,1.61.28,7.75,7.75,0,0,1,2.73,1.57,7.41,7.41,0,0,1,1.76,2.38,7.88,7.88,0,0,1,.7,2.92,9,9,0,0,1-2,6,7.76,7.76,0,0,1-2.32,1.9,7.44,7.44,0,0,1-2.85.85,7.55,7.55,0,0,1-3.12-.4,4.15,4.15,0,0,1-1.23-.61,3.81,3.81,0,0,1-.81-.79,4.92,4.92,0,0,1-.54-.89c-.13-.31-.27-.61-.4-.91l-1.81,5.39a.92.92,0,0,1-.41.53.87.87,0,0,1-.73,0l-2.65-.89a.8.8,0,0,1-.28-.16,1,1,0,0,1-.25-.26.94.94,0,0,1-.14-.34.7.7,0,0,1,0-.38l5.91-17.59a.68.68,0,0,1,.22-.35A1.25,1.25,0,0,1,229.85,154.49Zm8.39,10.86a4.29,4.29,0,0,0,.23-1.49,3.85,3.85,0,0,0-.29-1.4,3.31,3.31,0,0,0-2.05-1.88,3.71,3.71,0,0,0-1.47-.19,3.85,3.85,0,0,0-1.4.35,4.13,4.13,0,0,0-1.17.84,3.78,3.78,0,0,0-.8,1.24l0,.17a3.88,3.88,0,0,0-.2,1.54,4,4,0,0,0,.4,1.42,3.94,3.94,0,0,0,2.23,2,3.36,3.36,0,0,0,1.46.16,3.32,3.32,0,0,0,1.31-.43,3.64,3.64,0,0,0,1.08-.93A4.37,4.37,0,0,0,238.24,165.35Z"/><path class="cls-7" d="M214.88,146.46a.64.64,0,0,1,.26-.35.53.53,0,0,1,.43,0l7.48,2.51a6,6,0,0,1,2.08,1.2,5.89,5.89,0,0,1,1.75,6.35,5.58,5.58,0,0,1-.72,1.42,6,6,0,0,1-1,1.14,6.21,6.21,0,0,1-1.29.81,6.1,6.1,0,0,1-1.44.48l1.09,6.6c0,.13.05.28.08.45a.77.77,0,0,1,0,.43.36.36,0,0,1-.21.24.53.53,0,0,1-.37,0l-4-1.33a.62.62,0,0,1-.31-.24.56.56,0,0,1-.1-.38l-1-6.23-1.87-.63-1.76,5.22a.48.48,0,0,1-.7.32l-3.44-1.16a.54.54,0,0,1-.32-.24.53.53,0,0,1,0-.43Zm7.34,8.18a2.19,2.19,0,0,0,.11-.73,2.5,2.5,0,0,0-.15-.76,2.26,2.26,0,0,0-.39-.67,1.94,1.94,0,0,0-.63-.5l-.6-.24c-.18-.08-.39-.15-.61-.23l-1.6-.54-1.43,4.25,2.13.72.38.11.37.09a2,2,0,0,0,.81,0,2.09,2.09,0,0,0,.7-.3,2.32,2.32,0,0,0,.91-1.21Z"/><path class="cls-7" d="M230.27,154a.82.82,0,0,1,.37-.06l.32.07,1.75.59a.84.84,0,0,1,.34.19.65.65,0,0,1,.17.27,1.14,1.14,0,0,1,.07.33c0,.12,0,.25,0,.39l0,1.56.94-.63a4.5,4.5,0,0,1,1.05-.53,4.16,4.16,0,0,1,1.27-.22,4.78,4.78,0,0,1,1.6.28,7.67,7.67,0,0,1,2.73,1.57,7.44,7.44,0,0,1,1.77,2.38,8.08,8.08,0,0,1,.7,2.92,8.59,8.59,0,0,1-.46,3.17,8.72,8.72,0,0,1-1.55,2.81A7.89,7.89,0,0,1,239,171a7.49,7.49,0,0,1-6,.45,4.62,4.62,0,0,1-1.24-.61A4.35,4.35,0,0,1,231,170a5.49,5.49,0,0,1-.53-.89l-.4-.91-1.81,5.39a1,1,0,0,1-.41.53.87.87,0,0,1-.73,0l-2.65-.89a.72.72,0,0,1-.28-.16,1,1,0,0,1-.25-.26.85.85,0,0,1-.14-.34.7.7,0,0,1,0-.38l5.91-17.59a.74.74,0,0,1,.21-.35A1.3,1.3,0,0,1,230.27,154Zm8.39,10.86a4.54,4.54,0,0,0,.23-1.49,3.85,3.85,0,0,0-.3-1.4,3.41,3.41,0,0,0-.78-1.14,3.45,3.45,0,0,0-1.26-.74,3.75,3.75,0,0,0-1.48-.19,3.85,3.85,0,0,0-1.39.35,3.71,3.71,0,0,0-1.17.84,3.62,3.62,0,0,0-.8,1.24l-.06.17a3.87,3.87,0,0,0-.19,1.54,3.58,3.58,0,0,0,.4,1.42,3.85,3.85,0,0,0,2.23,2,3.32,3.32,0,0,0,1.45.16,3.37,3.37,0,0,0,1.32-.43,3.76,3.76,0,0,0,1.07-.93A4.39,4.39,0,0,0,238.66,164.82Z"/><path class="cls-3" d="M99.28,135c0,.34,0,.68,0,1,0,.6-.06,1.19-.11,1.78s-.1,1-.18,1.52a29.43,29.43,0,0,1-1.7,6.64c-.12.35-.25.68-.4,1a30.79,30.79,0,0,1-7.77,11,31.15,31.15,0,0,1-10,6.11l-1.18.4c-.28.1-.56.18-.84.27a29.45,29.45,0,0,1-3.52.8c-.37.07-.74.12-1.11.17a29.74,29.74,0,0,1-4.13.28l-1.29,0-.66,0c-.67,0-1.33-.1-2-.19-.47-.06-.93-.12-1.39-.21-.69-.12-1.37-.26-2.05-.43l-.91-.23A31.85,31.85,0,0,1,55,163a29.32,29.32,0,0,1-4-2.27c-.62-.42-1.22-.86-1.81-1.31s-1.39-1.14-2-1.74a32,32,0,0,1-4.35-5,31,31,0,0,1,31.9-48A31.3,31.3,0,0,1,81,106.71h0c.82.37,1.62.78,2.39,1.21a31.2,31.2,0,0,1,14.78,19,31.62,31.62,0,0,1,1,6.79C99.27,134.1,99.28,134.52,99.28,135Z"/><path class="cls-4" d="M99.25,133.68l-1.11,1.67L79.07,164l-1.18.4c-.28.1-.56.18-.84.27a29.45,29.45,0,0,1-3.52.8c-.37.07-.74.12-1.11.17l7.19-10.81L90,139.25l1-1.55h0l2.84-4.26,4.36-6.55A31.62,31.62,0,0,1,99.25,133.68Z"/><path class="cls-4" d="M81,106.71l-4.55,6.86h0l-.56.85-5.19,7.8-2.57,3.86-.27.4-2.47,3.71L62.9,134l-.28.41-1,1.5-.88,1.33-2.45,3.68h0l-.26.38-6.3,9.47-4.56,6.86a32,32,0,0,1-4.35-5l5-7.46,7.15-10.75.26-.41.9-1.34,1.63-2.46,2.86-4.29,8.68-13.06.49-.73h0l5-7.48A31.3,31.3,0,0,1,81,106.71Z"/><path class="cls-4" d="M92.61,115.77,87.81,123h0l-.71,1-5,7.48-2.59,3.89L75.18,142h0l-3.72,5.59v0l-.27.4-.27.42-3.14,4.71-3,4.45-.74,1.12L60,164.82A31.85,31.85,0,0,1,55,163a29.32,29.32,0,0,1-4-2.27c-.62-.42-1.22-.86-1.81-1.31L52,155.16l1.68-2.54,5.95-8.94.26-.39L62.14,140l.15-.24.16-.23.79-1.19,1.59-2.39,1-1.5.28-.41,2.52-3.8,2.44-3.66.26-.41,2.22-3.32,4.81-7.23.59-.89,4.5-6.77A30.93,30.93,0,0,1,92.61,115.77Z"/><circle class="cls-5" cx="68.28" cy="134.96" r="22.9"/><path class="cls-6" d="M91.18,135a22.83,22.83,0,0,1-9.24,18.38,22.9,22.9,0,0,0-28.2-36.08A22.91,22.91,0,0,1,91.18,135Z"/><path class="cls-6" d="M51.85,126.38A.61.61,0,0,1,52,126a.52.52,0,0,1,.4-.15h7.89a6,6,0,0,1,2.36.47,6.15,6.15,0,0,1,1.92,1.28,6.05,6.05,0,0,1,1.29,1.88,5.78,5.78,0,0,1,.47,2.31,5.49,5.49,0,0,1-.23,1.58,5.71,5.71,0,0,1-.63,1.4,6.11,6.11,0,0,1-1,1.19,6.72,6.72,0,0,1-1.21.91l3.14,5.91a4.37,4.37,0,0,0,.22.4.84.84,0,0,1,.13.4.35.35,0,0,1-.13.3.51.51,0,0,1-.34.11H62.11a.58.58,0,0,1-.38-.13.54.54,0,0,1-.21-.32l-3-5.59h-2v5.51c0,.35-.18.53-.56.53H52.38a.61.61,0,0,1-.39-.13.54.54,0,0,1-.14-.4Zm9.56,5.42a2.12,2.12,0,0,0-.13-.73,2.47,2.47,0,0,0-.38-.67,2.41,2.41,0,0,0-.59-.51,2,2,0,0,0-.76-.27l-.64,0c-.2,0-.41,0-.65,0H56.57V134h2.64l.38,0a1.8,1.8,0,0,0,.77-.25,1.84,1.84,0,0,0,.57-.5,2.07,2.07,0,0,0,.36-.67A2.48,2.48,0,0,0,61.41,131.8Z"/><path class="cls-6" d="M68.82,128.59a.87.87,0,0,1,.33-.17l.33,0h1.85a.86.86,0,0,1,.38.07.62.62,0,0,1,.25.2,1.38,1.38,0,0,1,.17.29l.13.36.51,1.48q.35-.43.69-.9a4.59,4.59,0,0,1,.82-.83,4.12,4.12,0,0,1,1.14-.61A4.5,4.5,0,0,1,77,128.2a7.6,7.6,0,0,1,3.08.62,7.39,7.39,0,0,1,2.44,1.7,7.87,7.87,0,0,1,1.59,2.54,8.56,8.56,0,0,1,.57,3.15,8.65,8.65,0,0,1-.57,3.16,8,8,0,0,1-1.59,2.54A7.57,7.57,0,0,1,77,144.24a4.62,4.62,0,0,1-1.37-.19,4,4,0,0,1-1-.5,4.23,4.23,0,0,1-.78-.67l-.68-.73v5.69a.89.89,0,0,1-.22.62.84.84,0,0,1-.68.26h-2.8a.94.94,0,0,1-.31-.06,1.23,1.23,0,0,1-.32-.17,1.12,1.12,0,0,1-.25-.28.75.75,0,0,1-.09-.37V129.29a.79.79,0,0,1,.09-.4A1.29,1.29,0,0,1,68.82,128.59Zm11.41,7.62a4.31,4.31,0,0,0-.26-1.48,3.76,3.76,0,0,0-.72-1.23,3.51,3.51,0,0,0-1.11-.83,3.36,3.36,0,0,0-1.43-.3,3.79,3.79,0,0,0-1.46.28,4.15,4.15,0,0,0-1.21.79,4,4,0,0,0-.84,1.16,3.92,3.92,0,0,0-.36,1.43v.18a3.69,3.69,0,0,0,.31,1.52A3.87,3.87,0,0,0,74,139a4,4,0,0,0,1.23.82,3.8,3.8,0,0,0,1.5.31,3.37,3.37,0,0,0,1.43-.31,3.49,3.49,0,0,0,1.11-.82,3.76,3.76,0,0,0,.72-1.23A4.45,4.45,0,0,0,80.23,136.21Z"/><path class="cls-7" d="M52.07,125.75a.6.6,0,0,1,.14-.41.51.51,0,0,1,.4-.15H60.5a5.85,5.85,0,0,1,2.36.47,6,6,0,0,1,1.91,1.27,5.88,5.88,0,0,1,1.29,1.89,5.6,5.6,0,0,1,.47,2.3,5.48,5.48,0,0,1-.22,1.58,6,6,0,0,1-.63,1.41,6,6,0,0,1-1,1.18,6.19,6.19,0,0,1-1.21.91l3.13,5.91.22.41a.84.84,0,0,1,.14.4.38.38,0,0,1-.13.3.54.54,0,0,1-.35.1H62.33a.61.61,0,0,1-.37-.12.53.53,0,0,1-.21-.33l-3-5.58h-2v5.51c0,.35-.19.52-.56.52H52.61a.56.56,0,0,1-.39-.13.47.47,0,0,1-.15-.39Zm9.57,5.42a2.1,2.1,0,0,0-.14-.73,2.28,2.28,0,0,0-.38-.68,2.36,2.36,0,0,0-.58-.51,2,2,0,0,0-.76-.27l-.64,0-.65,0H56.8v4.49h2.25l.39,0,.38,0a2.18,2.18,0,0,0,.77-.25,2.32,2.32,0,0,0,.57-.51,2.14,2.14,0,0,0,.35-.67A2.21,2.21,0,0,0,61.64,131.17Z"/><path class="cls-7" d="M69.05,128a.66.66,0,0,1,.33-.17,1.24,1.24,0,0,1,.33,0h1.84a.88.88,0,0,1,.39.07.82.82,0,0,1,.25.2,1.43,1.43,0,0,1,.16.3,3,3,0,0,1,.13.36l.51,1.48.69-.9a4.66,4.66,0,0,1,.83-.83,4.07,4.07,0,0,1,1.13-.62,4.77,4.77,0,0,1,1.62-.24,7.63,7.63,0,0,1,3.08.61,7.35,7.35,0,0,1,2.43,1.7,7.81,7.81,0,0,1,1.59,2.54,8.87,8.87,0,0,1,0,6.31,7.75,7.75,0,0,1-1.59,2.55,7.47,7.47,0,0,1-5.51,2.32,4.28,4.28,0,0,1-1.37-.19,4,4,0,0,1-1-.49,4.73,4.73,0,0,1-.79-.67l-.67-.74v5.7a.91.91,0,0,1-.22.62.87.87,0,0,1-.68.26h-2.8a1,1,0,0,1-.32-.07,1.1,1.1,0,0,1-.32-.17.9.9,0,0,1-.24-.27.69.69,0,0,1-.1-.37V128.65a.82.82,0,0,1,.09-.4A1.28,1.28,0,0,1,69.05,128Zm11.41,7.62a4.36,4.36,0,0,0-.26-1.49,3.82,3.82,0,0,0-.72-1.22,3.37,3.37,0,0,0-1.11-.83,3.22,3.22,0,0,0-1.43-.31,3.8,3.8,0,0,0-1.46.29,3.93,3.93,0,0,0-1.21.78,3.8,3.8,0,0,0-.84,1.17,3.47,3.47,0,0,0-.36,1.43v.18a3.8,3.8,0,0,0,.3,1.51,3.92,3.92,0,0,0,.83,1.23,4,4,0,0,0,1.24.83,3.79,3.79,0,0,0,1.5.3,3.36,3.36,0,0,0,1.43-.3,3.51,3.51,0,0,0,1.11-.83,3.66,3.66,0,0,0,.72-1.23A4.39,4.39,0,0,0,80.46,135.58Z"/><path class="cls-8" d="M98.14,135.35a31,31,0,0,0-4.28-1.91c-.91-.33-1.85-.63-2.79-.87-.35-.1-.69-.18-1-.26a31.83,31.83,0,0,0-7.09-.79h-.81A32.67,32.67,0,0,0,70.57,134l-.93.41a30.22,30.22,0,0,0-2.88,1.5,32.5,32.5,0,0,0-3.52,2.39c-.36.28-.7.56-1,.85-.47-.65-.94-1.29-1.45-1.91a32.47,32.47,0,0,0-4.65-4.58c-.35-.28-.7-.55-1.06-.81h0l-.25-.19a32.05,32.05,0,0,0-16.07-5.94,31.09,31.09,0,0,0,4.12,26.91,32,32,0,0,0,4.35,5q1,.9,2,1.74c.58.46,1.19.89,1.81,1.3h0l.24.15q.66.43,1.35.84l.59.34c.58.33,1.18.65,1.79.94a31.85,31.85,0,0,0,5,1.86l.91.23c.68.17,1.36.31,2.05.43.46.09.92.15,1.39.21.66.09,1.32.14,2,.19l.66,0,1.29,0a29.74,29.74,0,0,0,4.13-.28c.37,0,.74-.1,1.11-.17a29.45,29.45,0,0,0,3.52-.8c.28-.09.56-.17.84-.27l1.18-.4a31.11,31.11,0,0,0,17.8-17.09c.15-.33.28-.66.4-1a29.43,29.43,0,0,0,1.7-6.64c.08-.5.13-1,.18-1.52s.09-1.18.11-1.78C98.89,135.76,98.52,135.56,98.14,135.35Z"/><path class="cls-3" d="M116.84,165.76a31,31,0,0,1-20.21,29.06,30.57,30.57,0,0,1-6.36,1.61l-.29,0a29.64,29.64,0,0,1-4.13.28,31.55,31.55,0,0,1-4.37-.31,32.07,32.07,0,0,1-3.92-.82,30.73,30.73,0,0,1-10.78-5.44c-.36-.28-.72-.59-1.08-.88s-.65-.57-1-.85a31.62,31.62,0,0,1-4.35-5,28.45,28.45,0,0,1-1.83-3c-.3-.53-.57-1.08-.82-1.62s-.58-1.3-.82-2a28.21,28.21,0,0,1-1.22-3.95,31.14,31.14,0,0,1-.83-7.14c0-.94,0-1.87.13-2.8a30.32,30.32,0,0,1,1.87-8.16,30.73,30.73,0,0,1,5.22-8.93l.31-.35h0a30.88,30.88,0,0,1,2.24-2.33l.46-.44a32.67,32.67,0,0,1,3.35-2.61c.2-.14.4-.28.62-.41a30.34,30.34,0,0,1,6.49-3.19,29.65,29.65,0,0,1,4-1.11l1.24-.23a30.91,30.91,0,0,1,4.12-.4h.95l1.16,0a26.7,26.7,0,0,1,3.25.3c.31,0,.62.08.92.13h0c.37.07.74.13,1.11.22l.19,0a31.72,31.72,0,0,1,4.63,1.4c.5.19,1,.41,1.49.63h0l.53.24.62.31c.42.21.84.43,1.23.65a31.12,31.12,0,0,1,9.18,7.86,28.41,28.41,0,0,1,2.27,3.3,30.67,30.67,0,0,1,3.33,7.82,2.61,2.61,0,0,1,.06.27,30.35,30.35,0,0,1,1,6.51C116.83,164.91,116.84,165.33,116.84,165.76Z"/><path class="cls-4" d="M115.84,158,90.26,196.43l-.28,0a29.74,29.74,0,0,1-4.13.28,31.55,31.55,0,0,1-4.37-.31l31-46.56a30.67,30.67,0,0,1,3.33,7.82A2.61,2.61,0,0,1,115.84,158Z"/><path class="cls-4" d="M99.77,138.07l-.8,1.21-3.73,5.61-.57.86-4,6-2.28,3.42h0l-.3.45-2.87,4.31-1.11,1.67-3.24,4.87v0l-.46.69-.81,1.22-3.52,5.3-.17.24-5.7,8.56L65.7,189.3c-.33-.28-.65-.57-1-.85a31.62,31.62,0,0,1-4.35-5,28.45,28.45,0,0,1-1.83-3c-.3-.53-.57-1.08-.82-1.62l5.66-8.52,2.94-4.41,1-1.56,4.48-6.74L81,143.92l.4-.61h0L87,134.8a26.7,26.7,0,0,1,3.25.3c.31,0,.62.08.92.13h0c.37.07.74.13,1.11.22l.19,0a31.72,31.72,0,0,1,4.63,1.4c.5.19,1,.41,1.49.63h0l.53.24Z"/><path class="cls-4" d="M84.9,134.79,78.79,144h0l-.35.53-8.85,13.31L68,160.23l-3.63,5.46-1.32,2-6.11,9.19a28.21,28.21,0,0,1-1.22-3.95l5.21-7.85,2.47-3.7,2.42-3.63,2.13-3.21,4.49-6.74L73,147l.13-.21h0l3-4.55,4.66-7A30.91,30.91,0,0,1,84.9,134.79Z"/><circle class="cls-5" cx="85.85" cy="165.76" r="22.9"/><path class="cls-6" d="M108.74,165.76a22.85,22.85,0,0,1-9.24,18.39,22.9,22.9,0,0,0-28.2-36.08,22.91,22.91,0,0,1,37.44,17.69Z"/><path class="cls-6" d="M68.53,164a.6.6,0,0,1,0-.43.49.49,0,0,1,.31-.3L76,160a5.9,5.9,0,0,1,2.34-.56,6,6,0,0,1,2.28.36,5.9,5.9,0,0,1,2,1.17,5.69,5.69,0,0,1,1.39,1.89,5.22,5.22,0,0,1,.46,1.54,6,6,0,0,1,0,1.53,6.19,6.19,0,0,1-.38,1.48,6.64,6.64,0,0,1-.72,1.34l5.32,4.05.37.28a.76.76,0,0,1,.29.31.36.36,0,0,1,0,.32.54.54,0,0,1-.27.24l-3.81,1.75a.58.58,0,0,1-.72-.16l-5-3.83-1.8.83,2.31,5a.48.48,0,0,1-.3.71l-3.29,1.52a.6.6,0,0,1-.41,0,.55.55,0,0,1-.3-.3Zm11,.93a2.33,2.33,0,0,0-.43-.61,2.14,2.14,0,0,0-.63-.45,2.36,2.36,0,0,0-.74-.23,2,2,0,0,0-.8.08c-.22.08-.42.15-.6.23l-.61.25-1.53.71L76,169l2-.94.35-.17.33-.2a2,2,0,0,0,.59-.55,1.79,1.79,0,0,0,.31-.69,2.15,2.15,0,0,0,0-.76A2.32,2.32,0,0,0,79.49,164.93Z"/><path class="cls-6" d="M84.88,158.91a.74.74,0,0,1,.22-.29,1.46,1.46,0,0,1,.29-.17l1.67-.78a1,1,0,0,1,.38-.09.69.69,0,0,1,.32.08,1.17,1.17,0,0,1,.27.2l.27.27,1.08,1.13c.08-.36.17-.73.25-1.11a4.71,4.71,0,0,1,.4-1.1,4.24,4.24,0,0,1,.78-1,4.72,4.72,0,0,1,1.36-.9,7.7,7.7,0,0,1,3.06-.73,7.39,7.39,0,0,1,2.92.53,8.06,8.06,0,0,1,2.51,1.64,8.68,8.68,0,0,1,1.84,2.63,8.5,8.5,0,0,1,.79,3.1,7.77,7.77,0,0,1-.38,3,7.45,7.45,0,0,1-1.49,2.56,7.68,7.68,0,0,1-2.55,1.86,4.55,4.55,0,0,1-1.32.4,4.24,4.24,0,0,1-1.13,0,5.06,5.06,0,0,1-1-.28l-.91-.39,2.38,5.17a1,1,0,0,1,.06.66.88.88,0,0,1-.52.52l-2.54,1.17a.94.94,0,0,1-.31.07,1.09,1.09,0,0,1-.36,0,.79.79,0,0,1-.34-.15.68.68,0,0,1-.24-.29l-7.76-16.86a.77.77,0,0,1-.09-.4A1.58,1.58,0,0,1,84.88,158.91Zm13.55,2.15a4.51,4.51,0,0,0-.86-1.24A3.84,3.84,0,0,0,96.4,159a3.27,3.27,0,0,0-1.35-.29,3.23,3.23,0,0,0-1.43.32,3.6,3.6,0,0,0-1.2.87,4,4,0,0,0-.78,1.22,4.11,4.11,0,0,0-.27,1.41,3.66,3.66,0,0,0,.27,1.45l.07.16a3.84,3.84,0,0,0,.91,1.25,4.08,4.08,0,0,0,1.27.77,4,4,0,0,0,1.47.23,3.73,3.73,0,0,0,1.49-.35,3.35,3.35,0,0,0,1.17-.88,3.19,3.19,0,0,0,.66-1.21,3.68,3.68,0,0,0,.15-1.42A4.73,4.73,0,0,0,98.43,161.06Z"/><path class="cls-7" d="M68.47,163.33a.61.61,0,0,1,0-.43.53.53,0,0,1,.3-.31l7.17-3.3a6.16,6.16,0,0,1,4.61-.2,6,6,0,0,1,2,1.18,5.59,5.59,0,0,1,1.39,1.89,5.25,5.25,0,0,1,.46,1.53,6.12,6.12,0,0,1,0,1.54,6.22,6.22,0,0,1-1.1,2.81l5.32,4.06.37.28a.83.83,0,0,1,.29.31.36.36,0,0,1,0,.32.54.54,0,0,1-.27.24L85.14,175a.58.58,0,0,1-.72-.16l-5-3.83-1.8.83,2.3,5a.48.48,0,0,1-.29.71l-3.29,1.52a.61.61,0,0,1-.41.05.55.55,0,0,1-.3-.3Zm11,.93a2.17,2.17,0,0,0-.43-.61,2.37,2.37,0,0,0-.63-.46,2.35,2.35,0,0,0-.74-.22,2,2,0,0,0-.8.08c-.22.08-.42.15-.6.23l-.61.25-1.53.71L76,168.31l2-.94.35-.18a3,3,0,0,0,.33-.19,2,2,0,0,0,.59-.55,1.86,1.86,0,0,0,.31-.69,2.15,2.15,0,0,0,0-.76A2.61,2.61,0,0,0,79.43,164.26Z"/><path class="cls-7" d="M84.82,158.24a.78.78,0,0,1,.22-.3l.29-.17L87,157a1,1,0,0,1,.38-.09.69.69,0,0,1,.32.08,1.48,1.48,0,0,1,.27.19l.26.28,1.09,1.13c.08-.37.17-.73.25-1.11a4.71,4.71,0,0,1,.4-1.1,4.06,4.06,0,0,1,.78-1,4.72,4.72,0,0,1,1.36-.9,7.54,7.54,0,0,1,3.06-.73,7.3,7.3,0,0,1,2.91.53,7.83,7.83,0,0,1,2.51,1.64,8.87,8.87,0,0,1,2.64,5.73,7.77,7.77,0,0,1-.38,3,7.32,7.32,0,0,1-1.5,2.56A7.54,7.54,0,0,1,98.81,169a4.55,4.55,0,0,1-1.32.4,3.84,3.84,0,0,1-1.13,0,4.46,4.46,0,0,1-1-.28l-.91-.38,2.38,5.17a1,1,0,0,1,.06.66.88.88,0,0,1-.52.52l-2.54,1.17a.94.94,0,0,1-.31.07,1.09,1.09,0,0,1-.36,0,.93.93,0,0,1-.34-.15.68.68,0,0,1-.24-.29L84.82,159a.77.77,0,0,1-.09-.4A1.19,1.19,0,0,1,84.82,158.24Zm13.55,2.15a4.36,4.36,0,0,0-.86-1.24,3.84,3.84,0,0,0-1.17-.81,3.27,3.27,0,0,0-1.35-.29,3.2,3.2,0,0,0-1.43.32,3.6,3.6,0,0,0-1.2.87,3.92,3.92,0,0,0-.78,1.21,4.21,4.21,0,0,0-.27,1.42,3.58,3.58,0,0,0,.27,1.44l.07.17a4,4,0,0,0,.91,1.25,4.08,4.08,0,0,0,1.27.77,4.2,4.2,0,0,0,1.47.23,3.73,3.73,0,0,0,1.49-.35A3.35,3.35,0,0,0,98,164.5a3.26,3.26,0,0,0,.66-1.21,3.7,3.7,0,0,0,.15-1.42A4.73,4.73,0,0,0,98.37,160.39Z"/><path class="cls-8" d="M68.08,157.64v.2c0,.8,0,1.6-.1,2.39a32.5,32.5,0,0,1-.6,4.09c-.12.54-.24,1.07-.38,1.6a31.94,31.94,0,0,1-8.44,14.51c-.3-.53-.57-1.08-.82-1.62s-.58-1.3-.82-2a28.21,28.21,0,0,1-1.22-3.95,31.14,31.14,0,0,1-.83-7.14c0-.94,0-1.87.13-2.8a30.32,30.32,0,0,1,1.87-8.16,30.73,30.73,0,0,1,5.22-8.93l.31-.35h0a30.88,30.88,0,0,1,2.24-2.33,31.6,31.6,0,0,1,1.74,4.15h0c.06.17.12.33.17.5a33,33,0,0,1,1,4.14q.11.57.18,1.17c.07.45.12.91.17,1.37C68,155.54,68.08,156.58,68.08,157.64Z"/><path class="cls-3" d="M62,160.4a31,31,0,0,1-50.06,24.42c-.71-.55-1.38-1.13-2-1.74a31,31,0,0,1,27.56-53,31.72,31.72,0,0,1,6.31,2.07h0c.82.37,1.62.78,2.39,1.21a31.11,31.11,0,0,1,14.78,19,30.43,30.43,0,0,1,1,6.79C62,159.54,62,160,62,160.4Z"/><path class="cls-4" d="M43.74,132.15,9.87,183.08a31.11,31.11,0,0,1-4.35-5l31.91-48A31.72,31.72,0,0,1,43.74,132.15Z"/><path class="cls-4" d="M55.31,141.21l-32.62,49a30.73,30.73,0,0,1-10.78-5.44l34.22-51.46A31.09,31.09,0,0,1,55.31,141.21Z"/><circle class="cls-5" cx="30.98" cy="160.4" r="22.9" transform="translate(-58.02 23.41) rotate(-22.08)"/><path class="cls-6" d="M53.88,160.4a22.88,22.88,0,0,1-9.25,18.39,22.9,22.9,0,0,0-28.19-36.08A22.9,22.9,0,0,1,53.88,160.4Z"/><path class="cls-6" d="M19.26,147a.64.64,0,0,1,.26-.35.53.53,0,0,1,.43,0l7.48,2.51a6,6,0,0,1,2.08,1.2,6,6,0,0,1,2,4,5.79,5.79,0,0,1-1,3.76,6.21,6.21,0,0,1-1,1.13,6,6,0,0,1-1.29.81,6.1,6.1,0,0,1-1.44.48l1.09,6.6c0,.13.05.28.08.46a.74.74,0,0,1,0,.42.36.36,0,0,1-.21.24.53.53,0,0,1-.37,0l-4-1.33a.67.67,0,0,1-.31-.24.56.56,0,0,1-.1-.38l-1-6.23-1.87-.63-1.76,5.22a.48.48,0,0,1-.7.32l-3.43-1.16a.53.53,0,0,1-.33-.24.53.53,0,0,1,0-.43Zm7.34,8.19a2.29,2.29,0,0,0,.11-.74,2.5,2.5,0,0,0-.15-.76,2.26,2.26,0,0,0-.39-.67,1.94,1.94,0,0,0-.63-.5l-.6-.24c-.18-.08-.39-.15-.61-.23l-1.6-.53-1.43,4.24,2.13.72.38.11.37.09a2,2,0,0,0,.81,0,2.17,2.17,0,0,0,1.25-.82A2.34,2.34,0,0,0,26.6,155.18Z"/><path class="cls-6" d="M34.65,154.49a.82.82,0,0,1,.37-.06l.32.07,1.75.59a.84.84,0,0,1,.34.19.65.65,0,0,1,.17.27,1.21,1.21,0,0,1,.07.33,2.54,2.54,0,0,1,0,.39l0,1.56.94-.63a4.7,4.7,0,0,1,1-.53,4.49,4.49,0,0,1,1.27-.22,4.87,4.87,0,0,1,1.61.28,7.71,7.71,0,0,1,2.72,1.57,7.44,7.44,0,0,1,1.77,2.38,8.08,8.08,0,0,1,.7,2.92,8.59,8.59,0,0,1-.46,3.17,8.72,8.72,0,0,1-1.55,2.81,7.76,7.76,0,0,1-2.32,1.9,7.38,7.38,0,0,1-6,.45,4,4,0,0,1-2.05-1.4,5.49,5.49,0,0,1-.53-.89l-.4-.91-1.81,5.39a1,1,0,0,1-.41.53.87.87,0,0,1-.73,0l-2.65-.89a.8.8,0,0,1-.28-.16,1,1,0,0,1-.25-.26.79.79,0,0,1-.14-.34.7.7,0,0,1,0-.38l5.91-17.59a.74.74,0,0,1,.21-.35A1.3,1.3,0,0,1,34.65,154.49ZM43,165.35a4.54,4.54,0,0,0,.23-1.49,3.85,3.85,0,0,0-.3-1.4,3.41,3.41,0,0,0-.78-1.14,3.45,3.45,0,0,0-1.26-.74,3.75,3.75,0,0,0-1.48-.19,3.85,3.85,0,0,0-1.39.35,4.13,4.13,0,0,0-1.17.84,3.78,3.78,0,0,0-.8,1.24L36,163a3.87,3.87,0,0,0-.19,1.54,3.76,3.76,0,0,0,.4,1.42,3.85,3.85,0,0,0,2.23,2,3.38,3.38,0,0,0,2.77-.27,3.61,3.61,0,0,0,1.07-.93A4.19,4.19,0,0,0,43,165.35Z"/><path class="cls-7" d="M19.68,146.46a.6.6,0,0,1,.26-.35.53.53,0,0,1,.43,0l7.48,2.51a6,6,0,0,1,2.08,1.2,6,6,0,0,1,2,4,5.82,5.82,0,0,1-.28,2.33,5.58,5.58,0,0,1-.72,1.42,6,6,0,0,1-1.05,1.14,5.89,5.89,0,0,1-1.28.81,6.41,6.41,0,0,1-1.44.48l1.09,6.6c0,.13,0,.28.08.45a.77.77,0,0,1,0,.43.35.35,0,0,1-.22.24.5.5,0,0,1-.36,0l-4-1.33a.7.7,0,0,1-.32-.24.56.56,0,0,1-.09-.38l-1-6.23-1.88-.63-1.75,5.22a.48.48,0,0,1-.7.32l-3.44-1.16a.6.6,0,0,1-.33-.24.53.53,0,0,1,0-.43ZM27,154.64a2.19,2.19,0,0,0,.1-.73,2.22,2.22,0,0,0-.14-.76,2.26,2.26,0,0,0-.39-.67A2.09,2.09,0,0,0,26,152l-.59-.24-.61-.23-1.6-.54-1.43,4.25,2.13.72.38.11.37.09a2,2,0,0,0,.81,0,2.18,2.18,0,0,0,.7-.3,2.26,2.26,0,0,0,.55-.52A2.83,2.83,0,0,0,27,154.64Z"/><path class="cls-7" d="M35.07,154a.8.8,0,0,1,.36-.06l.33.07,1.75.59a.92.92,0,0,1,.34.19A.65.65,0,0,1,38,155a.88.88,0,0,1,.06.33c0,.12,0,.25,0,.39l0,1.56.94-.63a4.42,4.42,0,0,1,1-.53,4.23,4.23,0,0,1,1.28-.22,4.82,4.82,0,0,1,1.6.28,7.67,7.67,0,0,1,2.73,1.57,7.26,7.26,0,0,1,1.76,2.38,7.69,7.69,0,0,1,.7,2.92,8.39,8.39,0,0,1-.46,3.17,8.51,8.51,0,0,1-1.54,2.81,7.8,7.8,0,0,1-2.33,1.9,7.26,7.26,0,0,1-2.84.84,7.34,7.34,0,0,1-3.12-.39,4,4,0,0,1-2-1.4,4.85,4.85,0,0,1-.53-.89c-.14-.31-.28-.61-.41-.91l-1.81,5.39a1,1,0,0,1-.4.53.87.87,0,0,1-.73,0l-2.66-.89a.9.9,0,0,1-.28-.16,1.2,1.2,0,0,1-.24-.26,1,1,0,0,1-.15-.34.71.71,0,0,1,0-.38l5.9-17.59a.84.84,0,0,1,.22-.35A1.13,1.13,0,0,1,35.07,154Zm8.38,10.86a4.07,4.07,0,0,0,.23-1.49,3.85,3.85,0,0,0-.29-1.4,3.31,3.31,0,0,0-2-1.88,3.68,3.68,0,0,0-1.47-.19,3.9,3.9,0,0,0-1.4.35,4,4,0,0,0-1.17.84,3.75,3.75,0,0,0-.79,1.24l-.06.17a3.7,3.7,0,0,0-.19,1.54,3.75,3.75,0,0,0,.39,1.42,4.15,4.15,0,0,0,.91,1.18,3.84,3.84,0,0,0,1.33.77,3.32,3.32,0,0,0,1.45.16,3.42,3.42,0,0,0,1.32-.43,3.76,3.76,0,0,0,1.07-.93A4.37,4.37,0,0,0,43.45,164.82Z"/><rect class="cls-9" x="110.99" y="26.48" width="106.24" height="31.11"/><rect class="cls-10" x="89.41" y="3.23" width="145.52" height="190.99" rx="6.52"/><rect class="cls-11" x="109.29" y="24.22" width="106.24" height="31.11"/><rect class="cls-12" x="109.29" y="24.22" width="106.24" height="6.46"/><rect class="cls-9" x="111.85" y="67.13" width="19.67" height="19.67" rx="2.63"/><rect class="cls-9" x="140.23" y="67.13" width="19.67" height="19.67" rx="2.63"/><rect class="cls-9" x="168.61" y="67.13" width="19.67" height="19.67" rx="2.63"/><rect class="cls-9" x="196.99" y="67.13" width="19.67" height="19.67" rx="2.63"/><rect class="cls-9" x="111.85" y="96.98" width="19.67" height="19.67" rx="2.63"/><rect class="cls-9" x="140.23" y="96.98" width="19.67" height="19.67" rx="2.63"/><rect class="cls-9" x="168.61" y="96.98" width="19.67" height="19.67" rx="2.63"/><rect class="cls-9" x="196.99" y="96.98" width="19.67" height="19.67" rx="2.63"/><rect class="cls-9" x="111.85" y="126.83" width="19.67" height="19.67" rx="2.63"/><rect class="cls-9" x="140.23" y="126.83" width="19.67" height="19.67" rx="2.63"/><rect class="cls-9" x="168.61" y="126.83" width="19.67" height="19.67" rx="2.63"/><rect class="cls-9" x="111.85" y="156.69" width="19.67" height="19.67" rx="2.63"/><rect class="cls-9" x="140.23" y="156.69" width="19.67" height="19.67" rx="2.63"/><rect class="cls-9" x="168.61" y="156.69" width="19.67" height="19.67" rx="2.63"/><path class="cls-9" d="M199.62,126.83a2.63,2.63,0,0,0-2.63,2.63v44.27a2.63,2.63,0,0,0,2.63,2.63H214a2.63,2.63,0,0,0,2.63-2.63V129.46a2.63,2.63,0,0,0-2.63-2.63Z"/><rect class="cls-11" x="110.73" y="65.2" width="19.67" height="19.67" rx="2.63"/><rect class="cls-11" x="139.11" y="65.2" width="19.67" height="19.67" rx="2.63"/><rect class="cls-11" x="167.49" y="65.2" width="19.67" height="19.67" rx="2.63"/><rect class="cls-13" x="195.87" y="65.2" width="19.67" height="19.67" rx="2.63"/><rect class="cls-11" x="110.73" y="95.05" width="19.67" height="19.67" rx="2.63"/><rect class="cls-11" x="139.11" y="95.05" width="19.67" height="19.67" rx="2.63"/><rect class="cls-11" x="167.49" y="95.05" width="19.67" height="19.67" rx="2.63"/><rect class="cls-13" x="195.87" y="95.05" width="19.67" height="19.67" rx="2.63"/><rect class="cls-11" x="110.73" y="124.91" width="19.67" height="19.67" rx="2.63"/><rect class="cls-11" x="139.11" y="124.91" width="19.67" height="19.67" rx="2.63"/><rect class="cls-11" x="167.49" y="124.91" width="19.67" height="19.67" rx="2.63"/><rect class="cls-13" x="110.73" y="154.76" width="19.67" height="19.67" rx="2.63"/><rect class="cls-11" x="139.11" y="154.76" width="19.67" height="19.67" rx="2.63"/><rect class="cls-13" x="167.49" y="154.76" width="19.67" height="19.67" rx="2.63"/><path class="cls-13" d="M198.5,124.91a2.62,2.62,0,0,0-2.63,2.62V171.8a2.63,2.63,0,0,0,2.63,2.63h14.41a2.63,2.63,0,0,0,2.63-2.63V127.53a2.62,2.62,0,0,0-2.63-2.62Z"/><rect class="cls-14" x="184.37" y="24.22" width="18.24" height="31.11"/><rect class="cls-14" x="161.84" y="24.22" width="9.12" height="31.11"/><path class="cls-15" d="M228.41,3.23a6.52,6.52,0,0,1,6.52,6.52v178a6.52,6.52,0,0,1-6.52,6.52H95.93a6.52,6.52,0,0,1-6.52-6.52V9.75a6.52,6.52,0,0,1,6.52-6.52H228.41m0-3.23H95.93a9.76,9.76,0,0,0-9.75,9.75v178a9.76,9.76,0,0,0,9.75,9.76H228.41a9.76,9.76,0,0,0,9.75-9.76V9.75A9.76,9.76,0,0,0,228.41,0Z"/><rect class="cls-16" x="199.85" y="124.91" width="9.57" height="49.52"/><rect class="cls-16" x="199.85" y="95.22" width="9.57" height="19.37"/><rect class="cls-16" x="199.85" y="65.21" width="9.57" height="19.71"/><rect class="cls-16" x="113.94" y="154.77" width="9.57" height="19.65"/><rect class="cls-16" x="171.11" y="154.77" width="9.57" height="19.65"/><path class="cls-15" d="M148,185.38h29.84a4.91,4.91,0,0,1,4.91,4.91v4.58a0,0,0,0,1,0,0H143.11a0,0,0,0,1,0,0v-4.58A4.91,4.91,0,0,1,148,185.38Z"/><path class="cls-15" d="M148,2.23h29.84a4.91,4.91,0,0,1,4.91,4.91v4.58a0,0,0,0,1,0,0H143.11a0,0,0,0,1,0,0V7.14A4.91,4.91,0,0,1,148,2.23Z" transform="translate(325.88 13.96) rotate(180)"/></g></g></g></svg>