<svg xmlns="http://www.w3.org/2000/svg" viewBox="0 0 332.38 287.63"><defs><style>.cls-1{isolation:isolate;}.cls-2{fill:#afafaf;}.cls-2,.cls-8{opacity:0.5;}.cls-3{fill:#f6c40a;}.cls-4{fill:#feec48;}.cls-5,.cls-8{fill:#f0aa00;}.cls-6{fill:#ef7700;}.cls-7{fill:#fceb70;}.cls-8{mix-blend-mode:multiply;}.cls-9{fill:#3f2f28;}.cls-10{fill:#281e1c;}.cls-11{fill:#e8e8e8;}.cls-12{fill:#1d80b6;}.cls-13{fill:#f7fcb2;}</style></defs><title>pembayaran-suplier</title><g class="cls-1"><g id="Layer_2" data-name="Layer 2"><g id="Layer_3" data-name="Layer 3"><ellipse class="cls-2" cx="79.7" cy="151.15" rx="79.7" ry="5.97"/><ellipse class="cls-2" cx="252.68" cy="281.66" rx="79.7" ry="5.97"/><path class="cls-3" d="M95.44,32.5a29.13,29.13,0,0,1-10.5,22.44,29.37,29.37,0,0,1-13,6.24h0c-.4.08-.81.15-1.22.21-.72.12-1.45.2-2.19.26s-1.55.1-2.34.1l-.93,0c-.65,0-1.29-.06-1.93-.12-.93-.09-1.85-.22-2.76-.4A28.9,28.9,0,0,1,56,59.93a28.38,28.38,0,0,1-3.09-1.36l-.35-.19-.38-.2c-.77-.41-1.51-.87-2.23-1.34-.38-.26-.77-.53-1.14-.81a1,1,0,0,1-.17-.12c-.31-.23-.6-.46-.9-.7l-.37-.31c-.17-.13-.34-.29-.51-.45s-.35-.29-.52-.45l-.9-.87c-.27-.28-.54-.56-.8-.85s-.46-.5-.68-.76a1.29,1.29,0,0,1-.16-.18l-.67-.84c-.23-.3-.46-.59-.68-.89s-.48-.68-.71-1c-.34-.52-.67-1.05-1-1.6s-.64-1.16-.93-1.77a.18.18,0,0,1,0-.09h0c-.1-.2-.2-.39-.29-.59a31.53,31.53,0,0,1-1.4-3.78l-.14-.5c-.09-.31-.17-.63-.24-.94l-.15-.68c-.07-.31-.13-.62-.18-.94-.14-.78-.26-1.57-.33-2.37v0l0-.24-.06-1c0-.13,0-.25,0-.37,0-.41,0-.82,0-1.23A29.24,29.24,0,0,1,66.2,3.26H67a31.72,31.72,0,0,1,4.61.48A29,29,0,0,1,82.37,8.14a29,29,0,0,1,11,13.68c.2.52.4,1,.57,1.57A29.21,29.21,0,0,1,95.44,32.5Z"/><path class="cls-4" d="M94,23.39l-6.18,9.29h0s0,0,0,0h0l-1.19,1.78-7,10.45L76.27,50l-1.55,2.33-3.51,5.29h0l-1,1.44-1.71,2.56c-.77.07-1.55.1-2.34.1l-.93,0c-.65,0-1.29-.06-1.93-.12l1.56-2.34,3.37-5.08L68.4,54l.72-1.1,4.56-6.85,3-4.53,9.23-13.87,1-1.44,2.3-3.44,2.77-4.17a29.26,29.26,0,0,1,1.48,3.21C93.62,22.34,93.82,22.86,94,23.39Z"/><path class="cls-4" d="M82.37,8.14,78.14,14.5l-.7,1-4.12,6.21L72.46,23l-.26.38-2.5,3.77L65.2,34,61,40.24l-.26.38-6.55,9.87L50,56.84c-.38-.26-.77-.53-1.14-.81a1,1,0,0,1-.17-.12c-.31-.23-.6-.46-.9-.7l-.37-.31c-.17-.13-.34-.29-.51-.45s-.35-.29-.52-.45l-.9-.87c-.27-.28-.54-.56-.8-.85s-.46-.5-.68-.76a1.29,1.29,0,0,1-.16-.18l-.67-.84c-.23-.3-.46-.59-.68-.89s-.48-.68-.71-1l4.75-7.14,6.58-9.89,6.23-9.38.26-.38,1.57-2.36,5.15-7.77.51-.76,4.76-7.16A29,29,0,0,1,82.37,8.14Z"/><path class="cls-4" d="M67,3.27l-5.4,8.12h0l-.39.58L48,31.87l-3,4.54-5.4,8.12a31.53,31.53,0,0,1-1.4-3.78l-.14-.5c-.09-.31-.17-.63-.24-.94l-.15-.68c-.07-.31-.13-.62-.18-.94a23.29,23.29,0,0,1-.33-2.37v0l0-.24-.06-1c0-.13,0-.25,0-.37,0-.41,0-.82,0-1.23A29.24,29.24,0,0,1,66.2,3.26Z"/><circle class="cls-5" cx="66.2" cy="32.51" r="21.61"/><path class="cls-6" d="M87.8,32.51A21.58,21.58,0,0,1,77.25,51.07,21.61,21.61,0,0,0,54,14.67,21.62,21.62,0,0,1,87.8,32.51Z"/><path class="cls-6" d="M49.37,28.43a.32.32,0,0,1,.08-.24.3.3,0,0,1,.24-.1h4.77a3.57,3.57,0,0,1,1.42.29,3.85,3.85,0,0,1,1.16.77,3.5,3.5,0,0,1,.78,1.14,3.45,3.45,0,0,1,.28,1.39,3.06,3.06,0,0,1-.14,1,3.19,3.19,0,0,1-.38.84,3.35,3.35,0,0,1-.57.72,4,4,0,0,1-.74.55l1.9,3.57c0,.07.08.15.13.24a.59.59,0,0,1,.08.25.19.19,0,0,1-.08.18.33.33,0,0,1-.21.06H55.56a.34.34,0,0,1-.22-.07.34.34,0,0,1-.13-.2l-1.79-3.37h-1.2v3.32c0,.21-.11.32-.34.32H49.69a.36.36,0,0,1-.24-.08.33.33,0,0,1-.08-.24Zm5.77,3.28a1.14,1.14,0,0,0-.08-.44,1.27,1.27,0,0,0-.23-.41,1.5,1.5,0,0,0-.35-.31,1.2,1.2,0,0,0-.46-.16l-.39,0H52.22v2.71h1.59L54,33a1.18,1.18,0,0,0,.47-.15,1.1,1.1,0,0,0,.34-.3,1.25,1.25,0,0,0,.22-.41A1.43,1.43,0,0,0,55.14,31.71Z"/><path class="cls-6" d="M60.34,28.42a.38.38,0,0,1,.11-.23.34.34,0,0,1,.25-.1h2.55a.34.34,0,0,1,.35.29l2,6.69,2-6.69a.39.39,0,0,1,.38-.29h2.52a.37.37,0,0,1,.24.1.35.35,0,0,1,.12.23c.17,1.73.35,3.45.53,5.15s.36,3.42.53,5.16v0c0,.19-.11.29-.33.29H69.54c-.23,0-.35-.11-.36-.32L68.54,33l-1.66,5.74a.46.46,0,0,1-.11.18.24.24,0,0,1-.18.1H64.65a.37.37,0,0,1-.29-.28L62.7,33l-.65,5.69c0,.21-.13.32-.36.32H59.61a.28.28,0,0,1-.32-.32Z"/><path class="cls-6" d="M73.9,28.43a.32.32,0,0,1,.08-.24.33.33,0,0,1,.24-.1h4.9a3.13,3.13,0,0,1,1.22.25,3.21,3.21,0,0,1,1,.68A3.16,3.16,0,0,1,82,30a3.05,3.05,0,0,1,.25,1.24,2.86,2.86,0,0,1-.17,1,2.91,2.91,0,0,1-.49.86,3.71,3.71,0,0,1,.84,1.15,3.35,3.35,0,0,1,.31,1.43A3.21,3.21,0,0,1,82.51,37a3.43,3.43,0,0,1-.7,1.06,3.17,3.17,0,0,1-1,.71,2.91,2.91,0,0,1-1.24.27H74.22A.36.36,0,0,1,74,39a.29.29,0,0,1-.08-.24Zm5.55,2.91a1.11,1.11,0,0,0-.08-.41,1.13,1.13,0,0,0-.23-.34,1,1,0,0,0-.36-.23,1.06,1.06,0,0,0-.45-.09H76.75v2.14h1.56a1.34,1.34,0,0,0,.46-.08,1,1,0,0,0,.36-.22,1,1,0,0,0,.24-.34A1.18,1.18,0,0,0,79.45,31.34Zm.39,4.29a1.42,1.42,0,0,0-.08-.45,1.58,1.58,0,0,0-.24-.39,1.09,1.09,0,0,0-.36-.28.9.9,0,0,0-.46-.11h-2v2.46h2a1.06,1.06,0,0,0,.45-.1,1.44,1.44,0,0,0,.37-.28,1.47,1.47,0,0,0,.24-.4A1.38,1.38,0,0,0,79.84,35.63Z"/><path class="cls-7" d="M49.75,28.07a.33.33,0,0,1,.09-.25.3.3,0,0,1,.24-.09h4.77a3.56,3.56,0,0,1,1.42.28,3.85,3.85,0,0,1,1.16.77,3.73,3.73,0,0,1,.78,1.14,3.45,3.45,0,0,1,.28,1.39,3.32,3.32,0,0,1-.14,1,3.4,3.4,0,0,1-.38.85,3.82,3.82,0,0,1-1.31,1.26L58.56,38a2.05,2.05,0,0,0,.13.25.52.52,0,0,1,.08.24.22.22,0,0,1-.08.18.33.33,0,0,1-.21.06H56a.34.34,0,0,1-.22-.07.34.34,0,0,1-.13-.2L53.81,35h-1.2v3.33c0,.21-.11.31-.34.31H50.08a.36.36,0,0,1-.24-.07.32.32,0,0,1-.09-.24Zm5.78,3.27a1.41,1.41,0,0,0-.08-.44,1.39,1.39,0,0,0-.23-.41,1.5,1.5,0,0,0-.35-.31,1.4,1.4,0,0,0-.46-.16L54,30H52.61v2.7H54.2l.23,0a1.15,1.15,0,0,0,.81-.45,1.25,1.25,0,0,0,.22-.41A1.43,1.43,0,0,0,55.53,31.34Z"/><path class="cls-7" d="M60.73,28.05a.41.41,0,0,1,.11-.23.32.32,0,0,1,.25-.09h2.55A.33.33,0,0,1,64,28l2,6.7L68,28a.38.38,0,0,1,.38-.28h2.52a.36.36,0,0,1,.24.09.35.35,0,0,1,.12.23c.17,1.73.35,3.45.53,5.16s.35,3.42.53,5.15v0c0,.19-.11.28-.33.28H69.92a.3.3,0,0,1-.35-.32l-.64-5.7L67.27,38.4a.52.52,0,0,1-.11.17.26.26,0,0,1-.18.11H65a.32.32,0,0,1-.19-.1.33.33,0,0,1-.1-.18l-1.66-5.73-.65,5.69c0,.22-.13.32-.36.32H60c-.21,0-.31-.1-.31-.32Z"/><path class="cls-7" d="M74.28,28.07a.33.33,0,0,1,.09-.25.32.32,0,0,1,.24-.09h4.9a3.12,3.12,0,0,1,1.22.24,3.39,3.39,0,0,1,1,.68,3.33,3.33,0,0,1,.68,1,3.07,3.07,0,0,1,.25,1.25,3.13,3.13,0,0,1-.17,1,3,3,0,0,1-.49.85A3.64,3.64,0,0,1,82.85,34a3.27,3.27,0,0,1,.31,1.42,3.21,3.21,0,0,1-.26,1.27,3.32,3.32,0,0,1-.7,1.06,3.37,3.37,0,0,1-1,.72,3.06,3.06,0,0,1-1.24.26H74.61a.36.36,0,0,1-.24-.07.32.32,0,0,1-.09-.24ZM79.84,31a1.15,1.15,0,0,0-.08-.41,1.13,1.13,0,0,0-.23-.34,1.11,1.11,0,0,0-.36-.23,1.06,1.06,0,0,0-.45-.09H77.14V32H78.7a1.35,1.35,0,0,0,.46-.07,1.11,1.11,0,0,0,.36-.23.86.86,0,0,0,.23-.33A1,1,0,0,0,79.84,31Zm.39,4.29a1.36,1.36,0,0,0-.08-.44,1.47,1.47,0,0,0-.24-.4,1.25,1.25,0,0,0-.36-.28.92.92,0,0,0-.46-.11h-2v2.46h2a1,1,0,0,0,.45-.1,1.25,1.25,0,0,0,.37-.28,1.28,1.28,0,0,0,.24-.39A1.44,1.44,0,0,0,80.23,35.26Z"/><path class="cls-8" d="M95.44,32.5A29.21,29.21,0,0,0,94,23.39c-.17-.53-.37-1.05-.57-1.57a33.17,33.17,0,0,0-4.25,1A28.73,28.73,0,0,0,86,23.87c-.43.17-.84.35-1.25.53A34.07,34.07,0,0,0,70.4,36.57a33.77,33.77,0,0,0-3.19-1.73c-.66-.32-1.33-.61-2-.88-.52-.21-1-.4-1.57-.59A33.58,33.58,0,0,0,53.1,31.56h-.49a34.08,34.08,0,0,0-4.66.32A33.09,33.09,0,0,0,37.09,35.3v0a23.29,23.29,0,0,0,.33,2.37c0,.32.11.63.18.94l.15.68c.07.31.15.63.24.94l.14.5a31.53,31.53,0,0,0,1.4,3.78c.09.2.19.39.29.59h0a.18.18,0,0,0,0,.09q.44.91.93,1.77c.31.55.64,1.08,1,1.6.23.34.46.68.71,1s.45.59.68.89l.67.84a1.29,1.29,0,0,0,.16.18c.22.26.44.52.68.76s.53.57.8.85l.9.87c.17.16.34.31.52.45s.34.32.51.45l.37.31c.3.24.59.47.9.7a1,1,0,0,0,.17.12c.37.28.76.55,1.14.81.72.47,1.46.93,2.23,1.34l.38.2.35.19A28.38,28.38,0,0,0,56,59.93a28.9,28.9,0,0,0,4.55,1.28c.91.18,1.83.31,2.76.4.64.06,1.28.11,1.93.12l.93,0c.79,0,1.57,0,2.34-.1s1.47-.14,2.19-.26c.41-.06.82-.13,1.22-.21h0a28.65,28.65,0,0,0,7.33-2.53c.56-.28,1.1-.58,1.64-.89l.5-.31c.37-.22.73-.45,1.09-.69l.56-.39c.32-.23.65-.47,1-.71l.56-.43.35-.29h0A29.16,29.16,0,0,0,95.44,32.5Z"/><path class="cls-3" d="M79.76,63.9a29.23,29.23,0,0,1-26.9,29.15c-.77.06-1.55.09-2.35.09-1,0-1.91,0-2.85-.13a28.73,28.73,0,0,1-7.15-1.63,28.33,28.33,0,0,1-6.21-3.15c-.25-.16-.5-.33-.75-.52A29,29,0,0,1,26.09,80c-.43-.65-.84-1.32-1.22-2s-.71-1.35-1-2-.61-1.42-.87-2.15a29.29,29.29,0,0,1,14.44-36,29.48,29.48,0,0,1,7.34-2.52c.36-.07.73-.14,1.1-.19A26.64,26.64,0,0,1,49,34.7c.51,0,1,0,1.54,0H51a2.26,2.26,0,0,1,.26,0c.77,0,1.54.07,2.29.15s1.56.19,2.32.33a29.65,29.65,0,0,1,3.43.86l.26.09a28.83,28.83,0,0,1,3.31,1.31c.31.14.62.3.91.45.72.37,1.43.77,2.11,1.19l.76.49c.49.32,1,.66,1.43,1A28.07,28.07,0,0,1,72,44.06a23.29,23.29,0,0,1,1.7,2A27.82,27.82,0,0,1,76.26,50s0,0,0,0c.22.41.43.82.62,1.24a26.92,26.92,0,0,1,1.41,3.52,26.29,26.29,0,0,1,1,3.86A29.29,29.29,0,0,1,79.76,63.9Z"/><path class="cls-4" d="M72,44.06,40.51,91.38a28.74,28.74,0,0,1-6.21-3.14c-.25-.17-.5-.34-.75-.53L65.92,39.05l.76.49A28.67,28.67,0,0,1,72,44.06Z"/><path class="cls-4" d="M53.58,34.82,24.87,78c-.37-.67-.71-1.36-1-2.06s-.61-1.42-.87-2.15L49,34.7c.51,0,1,0,1.54,0h.78C52.06,34.69,52.83,34.74,53.58,34.82Z"/><circle class="cls-5" cx="50.52" cy="63.9" r="21.61"/><path class="cls-6" d="M72.13,63.9A21.6,21.6,0,0,1,61.57,82.47,21.61,21.61,0,0,0,38.3,46.07,21.63,21.63,0,0,1,72.13,63.9Z"/><path class="cls-6" d="M37.54,54.55a.38.38,0,0,1,.17-.2.34.34,0,0,1,.26,0l4.39,1.85a3.65,3.65,0,0,1,1.21.82,3.53,3.53,0,0,1,.76,1.16,3.66,3.66,0,0,1,.28,1.35,3.52,3.52,0,0,1-.28,1.39,3.27,3.27,0,0,1-.5.83,3.69,3.69,0,0,1-.68.63,3.53,3.53,0,0,1-.81.44,4,4,0,0,1-.89.22l.36,4c0,.07,0,.16,0,.27a.69.69,0,0,1,0,.26.2.2,0,0,1-.14.13.34.34,0,0,1-.22,0l-2.33-1a.4.4,0,0,1-.18-.16.31.31,0,0,1,0-.23l-.34-3.81-1.11-.46-1.29,3.07a.3.3,0,0,1-.44.16l-2-.86a.31.31,0,0,1-.19-.16.28.28,0,0,1,0-.25Zm4.05,5.26a1.29,1.29,0,0,0,.1-.44,1.41,1.41,0,0,0,0-.46,1.9,1.9,0,0,0-.21-.43,1.12,1.12,0,0,0-.36-.32L40.73,58l-.36-.16-.94-.4-1,2.5,1.25.53.22.08.22.07a1.12,1.12,0,0,0,.48,0A1.26,1.26,0,0,0,41,60.5a1.39,1.39,0,0,0,.35-.29A1.28,1.28,0,0,0,41.59,59.81Z"/><path class="cls-6" d="M47.66,58.8a.44.44,0,0,1,.19-.17.32.32,0,0,1,.27,0l2.35,1a.34.34,0,0,1,.21.4l-.75,7,4.47-5.39a.38.38,0,0,1,.45-.11l2.33,1a.32.32,0,0,1,.18.18.33.33,0,0,1,0,.26c-.51,1.66-1,3.31-1.51,4.95l-1.52,5v0c-.08.18-.22.22-.42.14L52,72.17a.32.32,0,0,1-.2-.44l1.63-5.5-3.76,4.64a.5.5,0,0,1-.17.12.28.28,0,0,1-.21,0l-1.79-.76a.27.27,0,0,1-.13-.16.28.28,0,0,1,0-.21L48,64l-2.81,5a.3.3,0,0,1-.45.16l-1.93-.81a.28.28,0,0,1-.16-.42Z"/><path class="cls-6" d="M60.14,64.08a.31.31,0,0,1,.18-.19.27.27,0,0,1,.25,0l4.52,1.91a3.1,3.1,0,0,1,1.69,1.72A3,3,0,0,1,67,68.71,3.24,3.24,0,0,1,66.77,70a2.94,2.94,0,0,1-.56.88,2.77,2.77,0,0,1-.78.59,3.68,3.68,0,0,1,.32,1.4,3.22,3.22,0,0,1-.27,1.43,3.18,3.18,0,0,1-.73,1.07,3.41,3.41,0,0,1-2.28,1,3,3,0,0,1-1.24-.24L56.32,74a.32.32,0,0,1-.19-.17.31.31,0,0,1,0-.25Zm4,4.84a1.06,1.06,0,0,0,.09-.42,1.14,1.14,0,0,0-.08-.4,1,1,0,0,0-.24-.35,1.14,1.14,0,0,0-.38-.25l-1.46-.62-.83,2,1.44.61a1.24,1.24,0,0,0,.45.11,1,1,0,0,0,.42-.07,1.08,1.08,0,0,0,.35-.22A1.13,1.13,0,0,0,64.13,68.92ZM62.83,73a1.28,1.28,0,0,0,.09-.44,1.42,1.42,0,0,0-.06-.46,1.34,1.34,0,0,0-.23-.4.93.93,0,0,0-.37-.28l-1.8-.76L59.5,73l1.8.76a1,1,0,0,0,.45.08,1.35,1.35,0,0,0,.45-.11,1.32,1.32,0,0,0,.63-.66Z"/><path class="cls-7" d="M38,54.36a.38.38,0,0,1,.17-.2.34.34,0,0,1,.26,0L42.87,56a3.54,3.54,0,0,1,1.2.81,3.58,3.58,0,0,1,.76,3.91,3.11,3.11,0,0,1-.5.82,3.17,3.17,0,0,1-.68.64,3.49,3.49,0,0,1-.81.43,3.41,3.41,0,0,1-.89.22l.36,4c0,.08,0,.17,0,.28a.49.49,0,0,1,0,.25.24.24,0,0,1-.14.14.29.29,0,0,1-.22,0l-2.33-1a.31.31,0,0,1-.18-.16.3.3,0,0,1,0-.23l-.34-3.8L38,61.89,36.67,65a.29.29,0,0,1-.43.16l-2-.85A.32.32,0,0,1,34,64.1a.31.31,0,0,1,0-.25Zm4.05,5.26a1.23,1.23,0,0,0,.1-.44,1.44,1.44,0,0,0,0-.46,1.38,1.38,0,0,0-.21-.42,1.15,1.15,0,0,0-.36-.33l-.34-.17-.36-.17-.94-.39-1,2.49,1.25.53.22.08a1.14,1.14,0,0,0,.22.07,1,1,0,0,0,.48,0,1.26,1.26,0,0,0,.44-.14,1.39,1.39,0,0,0,.36-.29A1.47,1.47,0,0,0,42.09,59.62Z"/><path class="cls-7" d="M48.16,58.61a.44.44,0,0,1,.19-.17.36.36,0,0,1,.27,0l2.35,1a.35.35,0,0,1,.22.4l-.76,7L54.9,61.4a.38.38,0,0,1,.45-.11l2.33,1a.39.39,0,0,1,.18.18.34.34,0,0,1,0,.26c-.51,1.66-1,3.32-1.51,5s-1,3.29-1.52,5v0a.27.27,0,0,1-.41.14L52.5,72a.31.31,0,0,1-.2-.44L53.93,66l-3.76,4.64a.5.5,0,0,1-.17.12.27.27,0,0,1-.21,0L48,70.08a.31.31,0,0,1-.14-.17.44.44,0,0,1,0-.21l.7-5.92-2.8,5a.31.31,0,0,1-.46.16l-1.93-.81a.28.28,0,0,1-.16-.42Z"/><path class="cls-7" d="M60.65,63.89a.32.32,0,0,1,.17-.19.3.3,0,0,1,.26,0l4.51,1.9a3.08,3.08,0,0,1,1,.7,3.28,3.28,0,0,1,.67,1,3.24,3.24,0,0,1,.23,1.2,3,3,0,0,1-.25,1.24,2.94,2.94,0,0,1-.56.88,2.81,2.81,0,0,1-.78.6,3.45,3.45,0,0,1,.32,1.39A3.22,3.22,0,0,1,66,74.07a3,3,0,0,1-.73,1.07,3.17,3.17,0,0,1-1,.7,3.24,3.24,0,0,1-1.23.27,3,3,0,0,1-1.24-.24L56.82,73.8a.38.38,0,0,1-.19-.16.34.34,0,0,1,0-.26Zm4,4.84a1,1,0,0,0,.09-.41,1.1,1.1,0,0,0-.08-.4,1,1,0,0,0-.24-.36,1.14,1.14,0,0,0-.38-.25l-1.46-.61-.83,2,1.44.6a1.29,1.29,0,0,0,.45.11,1,1,0,0,0,.42-.06,1,1,0,0,0,.35-.23A1,1,0,0,0,64.63,68.73Zm-1.3,4.1a1,1,0,0,0,.09-.44,1.12,1.12,0,0,0-.06-.45,1.39,1.39,0,0,0-.23-.41,1,1,0,0,0-.37-.28L61,70.5l-1,2.27,1.8.75a.92.92,0,0,0,.46.08,1.14,1.14,0,0,0,.44-.11,1.41,1.41,0,0,0,.37-.27A1.16,1.16,0,0,0,63.33,72.83Z"/><path class="cls-8" d="M79.76,63.9a29.16,29.16,0,0,1-4.74,16,33.55,33.55,0,0,1-5.14-6.36h0c-.16-.26-.32-.51-.47-.77a33.63,33.63,0,0,1-4.13-11c-.16-.81-.28-1.63-.37-2.46a32.29,32.29,0,0,1-.22-3.83V55l0-1a33.81,33.81,0,0,1,.43-4.18c.08-.54.18-1.07.3-1.6s.29-1.28.46-1.9l.15-.51A30.86,30.86,0,0,1,67.47,42c.2-.48.41-.94.64-1.41A28.07,28.07,0,0,1,72,44.06a23.29,23.29,0,0,1,1.7,2A27.82,27.82,0,0,1,76.26,50s0,0,0,0c.22.41.43.82.62,1.24a26.92,26.92,0,0,1,1.41,3.52,26.29,26.29,0,0,1,1,3.86A29.29,29.29,0,0,1,79.76,63.9Z"/><path class="cls-3" d="M129.64,55a29.25,29.25,0,0,1-26.9,29.15c-.77.06-1.55.09-2.35.09-1,0-1.91,0-2.85-.14a28.88,28.88,0,0,1-13.36-4.77A29.19,29.19,0,0,1,76,71.08a28,28,0,0,1-2.24-4,29.26,29.26,0,0,1,26.66-41.27h.78a30.38,30.38,0,0,1,4.61.49,28.84,28.84,0,0,1,10.78,4.38,28.89,28.89,0,0,1,11.62,15.26A28.83,28.83,0,0,1,129.64,55Z"/><path class="cls-4" d="M128.18,45.89,102.74,84.15c-.77.06-1.55.09-2.35.09-1,0-1.91,0-2.85-.14l28.6-43A29.47,29.47,0,0,1,128.18,45.89Z"/><path class="cls-4" d="M116.56,30.63,84.18,79.33A29.19,29.19,0,0,1,76,71.08l29.81-44.83A28.84,28.84,0,0,1,116.56,30.63Z"/><circle class="cls-5" cx="100.39" cy="55" r="21.61"/><path class="cls-6" d="M122,55a21.6,21.6,0,0,1-10.55,18.57,21.61,21.61,0,0,0-23.27-36.4A21.61,21.61,0,0,1,122,55Z"/><path class="cls-6" d="M84.11,60.71a.35.35,0,0,1-.06-.25.3.3,0,0,1,.15-.21l4-2.61a3.7,3.7,0,0,1,1.35-.53,3.62,3.62,0,0,1,2.67.54,3.53,3.53,0,0,1,1,1,3.13,3.13,0,0,1,.41.87,3.68,3.68,0,0,1,.15.92,4.05,4.05,0,0,1-.1.92,3.68,3.68,0,0,1-.31.86l3.53,2,.25.13a.56.56,0,0,1,.2.16.22.22,0,0,1,0,.19.37.37,0,0,1-.14.17L95.1,66.22a.32.32,0,0,1-.23.06.34.34,0,0,1-.22-.1l-3.34-1.84-1,.65,1.82,2.79a.29.29,0,0,1-.11.45l-1.84,1.2a.36.36,0,0,1-.24.06.3.3,0,0,1-.21-.15Zm6.63-.41a1.37,1.37,0,0,0-.31-.33,1.44,1.44,0,0,0-.41-.21,1.49,1.49,0,0,0-.47-.07,1.29,1.29,0,0,0-.47.11l-.34.19c-.1.06-.22.13-.33.21l-.86.56L89,63l1.14-.75.19-.13.18-.14a1.24,1.24,0,0,0,.31-.38,1.26,1.26,0,0,0,.12-.45,1.15,1.15,0,0,0,0-.45A1.28,1.28,0,0,0,90.74,60.3Z"/><path class="cls-6" d="M93.3,54.7a.41.41,0,0,1,0-.24.35.35,0,0,1,.16-.22l2.14-1.4a.35.35,0,0,1,.45,0l5.34,4.51-2-6.71a.37.37,0,0,1,.16-.44l2.11-1.38a.32.32,0,0,1,.25,0,.33.33,0,0,1,.23.12q1.64,2,3.26,4l3.25,4,0,0c.11.16.07.3-.11.41l-1.75,1.14a.31.31,0,0,1-.48-.08l-3.65-4.42,1.74,5.71a.35.35,0,0,1,0,.21.22.22,0,0,1-.09.18l-1.63,1.06a.24.24,0,0,1-.21,0,.34.34,0,0,1-.19-.09L97.8,57.29l2.56,5.11a.31.31,0,0,1-.12.47L98.49,64a.28.28,0,0,1-.45-.1Z"/><path class="cls-6" d="M104.67,47.32a.37.37,0,0,1-.07-.26.33.33,0,0,1,.15-.2l4.11-2.68a3.14,3.14,0,0,1,1.16-.46,3.24,3.24,0,0,1,2.34.49,3.18,3.18,0,0,1,.88.91,2.9,2.9,0,0,1,.42,1,2.5,2.5,0,0,1,0,1,3.65,3.65,0,0,1,1.34.51,3.37,3.37,0,0,1,1,1,3.41,3.41,0,0,1,.48,1.21,3.55,3.55,0,0,1,0,1.26,3.31,3.31,0,0,1-.47,1.17,2.91,2.91,0,0,1-.89.89L110.73,56a.36.36,0,0,1-.24.06.29.29,0,0,1-.2-.15Zm6.24-.6a1.07,1.07,0,0,0-.3-.3,1,1,0,0,0-.37-.16,1,1,0,0,0-.43,0,1.28,1.28,0,0,0-.42.17l-1.33.87,1.17,1.79,1.31-.85a1.3,1.3,0,0,0,.34-.32,1,1,0,0,0,.18-.38,1.13,1.13,0,0,0,0-.41A1.1,1.1,0,0,0,110.91,46.72Zm2.66,3.38a1.18,1.18,0,0,0-.31-.32,1.33,1.33,0,0,0-.41-.21,1.41,1.41,0,0,0-.46,0,1,1,0,0,0-.44.16l-1.64,1.06,1.35,2.07,1.63-1.07a.92.92,0,0,0,.32-.33,1.31,1.31,0,0,0,.16-.43,1.19,1.19,0,0,0,0-.46A1.09,1.09,0,0,0,113.57,50.1Z"/><path class="cls-7" d="M84.24,60.19a.36.36,0,0,1-.07-.25.29.29,0,0,1,.16-.21l4-2.61a3.56,3.56,0,0,1,1.35-.53,3.61,3.61,0,0,1,1.39,0,3.54,3.54,0,0,1,1.27.53A3.52,3.52,0,0,1,93.74,59a4.18,4.18,0,0,1,.14.92,3.55,3.55,0,0,1-.09.92,3.7,3.7,0,0,1-.32.86l3.54,2,.24.13a.43.43,0,0,1,.2.16.2.2,0,0,1,0,.19.37.37,0,0,1-.14.17L95.23,65.7a.32.32,0,0,1-.23.06.3.3,0,0,1-.22-.1l-3.34-1.84-1,.65,1.81,2.79a.29.29,0,0,1-.11.45l-1.83,1.2a.39.39,0,0,1-.24.06.3.3,0,0,1-.21-.15Zm6.63-.41a1.6,1.6,0,0,0-.31-.33,1.65,1.65,0,0,0-.42-.21,1.43,1.43,0,0,0-.46-.07,1.29,1.29,0,0,0-.47.11l-.34.19-.34.21-.85.56,1.48,2.27,1.13-.75a1.74,1.74,0,0,0,.2-.13l.18-.14a1.2,1.2,0,0,0,.3-.38,1.28,1.28,0,0,0,.13-.45,1.38,1.38,0,0,0,0-.45A1.52,1.52,0,0,0,90.87,59.78Z"/><path class="cls-7" d="M93.43,54.18a.41.41,0,0,1,0-.24.31.31,0,0,1,.16-.22l2.14-1.4a.35.35,0,0,1,.45,0l5.33,4.51-2-6.71a.38.38,0,0,1,.16-.44l2.12-1.38a.3.3,0,0,1,.25-.05.35.35,0,0,1,.23.12l3.25,4,3.26,4,0,0c.1.16.06.3-.12.41l-1.75,1.14a.3.3,0,0,1-.47-.08l-3.65-4.42,1.74,5.71a.46.46,0,0,1,0,.21.26.26,0,0,1-.1.18l-1.62,1.06a.24.24,0,0,1-.21,0,.3.3,0,0,1-.19-.09l-4.52-3.89,2.57,5.11a.31.31,0,0,1-.13.47l-1.75,1.14a.28.28,0,0,1-.44-.1Z"/><path class="cls-7" d="M104.79,46.8a.32.32,0,0,1-.06-.26.27.27,0,0,1,.15-.2l4.1-2.68a3.21,3.21,0,0,1,1.16-.46,3.33,3.33,0,0,1,1.22,0,3.15,3.15,0,0,1,1.12.47,3.22,3.22,0,0,1,.89.91,3.12,3.12,0,0,1,.42,1,2.94,2.94,0,0,1,0,1,3.72,3.72,0,0,1,1.34.51,3.34,3.34,0,0,1,1,1,3.08,3.08,0,0,1,.48,1.21,3.33,3.33,0,0,1,0,1.26,3.29,3.29,0,0,1-.46,1.17,2.91,2.91,0,0,1-.89.89l-4.47,2.92a.36.36,0,0,1-.24.06.3.3,0,0,1-.21-.15Zm6.24-.6a1.18,1.18,0,0,0-.29-.3,1.06,1.06,0,0,0-.38-.16,1,1,0,0,0-.42,0,1.43,1.43,0,0,0-.43.17l-1.32.87,1.16,1.79,1.31-.85a1.35,1.35,0,0,0,.35-.32,1,1,0,0,0,.18-.38,1,1,0,0,0-.16-.82Zm2.67,3.38a1.34,1.34,0,0,0-.31-.32,1.24,1.24,0,0,0-.88-.25,1.07,1.07,0,0,0-.44.16l-1.63,1.06,1.34,2.07,1.64-1.07a1.12,1.12,0,0,0,.32-.33,1.11,1.11,0,0,0,.15-.43,1.19,1.19,0,0,0,0-.46A1.09,1.09,0,0,0,113.7,49.58Z"/><rect class="cls-9" x="12.61" y="59.85" width="134.36" height="90.83"/><path class="cls-10" d="M100.4,125.55a31.18,31.18,0,0,1-12.7,25.13H50.64a31.23,31.23,0,1,1,49.76-25.13Z"/><path class="cls-10" d="M147,73.88v.32H141.9a1,1,0,0,1-1-1V65.68h-7.48a1,1,0,0,1-1-1.05V59.85h.6v4.47a1,1,0,0,0,1,1h7.48v7.48a1,1,0,0,0,1,1Z"/><path class="cls-10" d="M134,145.18a1,1,0,0,0-1,1v4.45h-.6v-4.45a1,1,0,0,1,1-1Z"/><path class="cls-10" d="M142.5,136.66a1,1,0,0,0-1,1.05v7.47h-.6v-7.47a1,1,0,0,1,1-1.05Z"/><path class="cls-11" d="M147.56,60.29V73.88H142.5a1,1,0,0,1-1-1V65.36H134a1,1,0,0,1-1-1V59.25h13.58A1,1,0,0,1,147.56,60.29Z"/><path class="cls-11" d="M147.56,150.25V136.67H142.5a1,1,0,0,0-1,1v7.47H134a1,1,0,0,0-1,1v5.07h13.58A1,1,0,0,0,147.56,150.25Z"/><path class="cls-3" d="M102.88,124.81A29.24,29.24,0,0,1,76,154c-.77.06-1.56.09-2.35.09-1,0-1.91,0-2.85-.13a29.35,29.35,0,0,1-21.57-13A28.11,28.11,0,0,1,47,136.84,29.26,29.26,0,0,1,73.64,95.57h.78a29.31,29.31,0,0,1,25,15.33,29.37,29.37,0,0,1,3.5,13.9Z"/><path class="cls-4" d="M101.43,115.7,76,154c-.77.06-1.56.09-2.35.09-1,0-1.91,0-2.85-.13l28.59-43A28.66,28.66,0,0,1,101.43,115.7Z"/><path class="cls-4" d="M89.81,100.45,57.43,149.14a29,29,0,0,1-8.21-8.24L79,96.06A28.92,28.92,0,0,1,89.81,100.45Z"/><path class="cls-4" d="M74.42,95.58,47,136.84A29.26,29.26,0,0,1,73.64,95.57Z"/><circle class="cls-5" cx="73.64" cy="124.81" r="21.61"/><path class="cls-6" d="M95.25,124.81A21.59,21.59,0,0,1,84.7,143.38,21.61,21.61,0,0,0,61.43,107a21.61,21.61,0,0,1,33.82,17.83Z"/><path class="cls-3" d="M285.39,167.57c0,.33,0,.65,0,1,0,.57-.06,1.13-.11,1.68s-.09,1-.16,1.43a28.67,28.67,0,0,1-1.61,6.28c-.12.32-.24.63-.38.95A29.17,29.17,0,0,1,266.32,195l-1.11.39c-.26.09-.53.17-.79.24a26.77,26.77,0,0,1-3.33.76c-.35.07-.69.12-1,.17a29.32,29.32,0,0,1-3.89.26c-.41,0-.82,0-1.22,0-.21,0-.42,0-.62,0-.63,0-1.26-.1-1.88-.18-.44-.05-.88-.12-1.31-.19-.65-.12-1.3-.25-1.93-.41l-.87-.22a28.63,28.63,0,0,1-4.71-1.76,26.69,26.69,0,0,1-3.75-2.14c-.59-.39-1.16-.81-1.71-1.24s-1.31-1.07-1.92-1.64a29.51,29.51,0,0,1-4.11-4.74,29.24,29.24,0,0,1,24-45.91,29.64,29.64,0,0,1,6.08.63,29.11,29.11,0,0,1,6,2h0c.77.34,1.53.73,2.26,1.14a29.38,29.38,0,0,1,8.66,7.41,29.12,29.12,0,0,1,6.26,16.9C285.39,166.77,285.39,167.17,285.39,167.57Z"/><path class="cls-4" d="M285.37,166.37l-1.05,1.57-18,27.06-1.11.39c-.26.09-.53.17-.79.24a26.77,26.77,0,0,1-3.33.76c-.35.07-.69.12-1,.17l6.79-10.21,9.8-14.72,1-1.46h0l2.67-4,4.11-6.18A28.85,28.85,0,0,1,285.37,166.37Z"/><path class="cls-4" d="M268.19,140.92l-4.31,6.47h0l-.53.8-4.9,7.36L256,159.2l-.26.39-2.33,3.5-2.38,3.58-.26.39-.94,1.42-.83,1.25-2.31,3.47h0l-.24.36-5.95,8.94-4.3,6.47a29.51,29.51,0,0,1-4.11-4.74l4.68-7,6.75-10.14.25-.39.85-1.27,1.53-2.31,2.7-4.05,8.19-12.33.47-.69h0l4.69-7.06A29.11,29.11,0,0,1,268.19,140.92Z"/><path class="cls-4" d="M279.11,149.47l-4.54,6.81h0l-.67,1-4.69,7.05L266.77,168l-4.12,6.21h0l-3.52,5.28v0l-.25.38-.26.39-3,4.45-2.79,4.2-.7,1.05-3.84,5.77a28.63,28.63,0,0,1-4.71-1.76,26.69,26.69,0,0,1-3.75-2.14c-.59-.39-1.16-.81-1.71-1.24l2.65-4,1.59-2.4,5.61-8.43.25-.37,2.09-3.14.15-.23.14-.22.75-1.12,1.5-2.25.94-1.42.26-.39,2.38-3.58,2.3-3.46.25-.38,2.1-3.14,4.54-6.83.55-.84,4.25-6.38A29.38,29.38,0,0,1,279.11,149.47Z"/><circle class="cls-5" cx="256.14" cy="167.58" r="21.61"/><path class="cls-6" d="M277.76,167.58A21.58,21.58,0,0,1,269,184.93a21.61,21.61,0,0,0-26.61-34.05,21.62,21.62,0,0,1,35.34,16.7Z"/><path class="cls-6" d="M240.63,159.48a.52.52,0,0,1,.13-.38.46.46,0,0,1,.38-.15h7.44a5.52,5.52,0,0,1,2.23.45,5.72,5.72,0,0,1,1.81,1.2,5.62,5.62,0,0,1,1.21,1.78,5.34,5.34,0,0,1,.45,2.17,5,5,0,0,1-.22,1.5,5.6,5.6,0,0,1-.59,1.32,5.4,5.4,0,0,1-.9,1.12,6,6,0,0,1-1.15.86l3,5.58c.06.11.12.23.21.38a.86.86,0,0,1,.13.38.32.32,0,0,1-.13.28.46.46,0,0,1-.32.1h-4A.55.55,0,0,1,250,176a.51.51,0,0,1-.2-.31l-2.8-5.26h-1.87v5.19c0,.33-.18.5-.53.5h-3.42a.53.53,0,0,1-.37-.12.49.49,0,0,1-.14-.38Zm9,5.12a2.1,2.1,0,0,0-.13-.69,2.39,2.39,0,0,0-.36-.64,2.11,2.11,0,0,0-.55-.48,2,2,0,0,0-.72-.25l-.6,0-.62,0h-1.59v4.23h2.49l.36,0a1.85,1.85,0,0,0,.72-.23,2,2,0,0,0,.55-.48,2.1,2.1,0,0,0,.33-.63A2.18,2.18,0,0,0,249.66,164.6Z"/><path class="cls-6" d="M256.65,161.57a.66.66,0,0,1,.31-.16,1.15,1.15,0,0,1,.31,0H259a1,1,0,0,1,.36.07.71.71,0,0,1,.23.19.85.85,0,0,1,.16.28c0,.1.08.22.12.34l.49,1.39.65-.84a4.42,4.42,0,0,1,.77-.79,4,4,0,0,1,1.08-.58,4.46,4.46,0,0,1,1.52-.23,7.17,7.17,0,0,1,2.91.58,6.9,6.9,0,0,1,2.29,1.6,7.41,7.41,0,0,1,1.51,2.4,8.49,8.49,0,0,1,0,6,7.41,7.41,0,0,1-1.51,2.4,7.07,7.07,0,0,1-2.29,1.61,7.17,7.17,0,0,1-2.91.58,4.12,4.12,0,0,1-1.29-.17,3.9,3.9,0,0,1-1-.47,4.24,4.24,0,0,1-.75-.63l-.63-.7v5.38a.84.84,0,0,1-.21.58.81.81,0,0,1-.65.25h-2.64a.89.89,0,0,1-.3-.06,1.18,1.18,0,0,1-.29-.16,1,1,0,0,1-.24-.26.7.7,0,0,1-.09-.35V162.23a.71.71,0,0,1,.09-.38A1.46,1.46,0,0,1,256.65,161.57Zm10.77,7.19a4.08,4.08,0,0,0-.24-1.4,3.82,3.82,0,0,0-.68-1.16,3.35,3.35,0,0,0-1.05-.78,3.17,3.17,0,0,0-1.35-.29,3.54,3.54,0,0,0-1.38.27,3.8,3.8,0,0,0-1.14.74,3.84,3.84,0,0,0-.8,1.1,3.63,3.63,0,0,0-.34,1.35v.17a3.62,3.62,0,0,0,1.08,2.59,3.7,3.7,0,0,0,1.16.78,3.61,3.61,0,0,0,1.42.29,3.17,3.17,0,0,0,1.35-.29,3.35,3.35,0,0,0,1.05-.78,3.7,3.7,0,0,0,.68-1.16A4.17,4.17,0,0,0,267.42,168.76Z"/><path class="cls-7" d="M240.84,158.88a.56.56,0,0,1,.13-.38.46.46,0,0,1,.38-.15h7.45a5.51,5.51,0,0,1,2.22.45,5.67,5.67,0,0,1,3,3,5.5,5.5,0,0,1,.44,2.17,5.17,5.17,0,0,1-.81,2.82,5.4,5.4,0,0,1-.9,1.12,5.66,5.66,0,0,1-1.15.86l3,5.58c.05.11.12.23.2.38a.75.75,0,0,1,.13.38.34.34,0,0,1-.12.28.48.48,0,0,1-.33.1h-3.95a.6.6,0,0,1-.36-.12.51.51,0,0,1-.2-.31l-2.8-5.26H245.3V175c0,.33-.17.5-.53.5h-3.42a.55.55,0,0,1-.37-.12.49.49,0,0,1-.14-.38Zm9,5.12a1.87,1.87,0,0,0-.13-.69,2,2,0,0,0-.36-.63,1.85,1.85,0,0,0-.55-.49,1.88,1.88,0,0,0-.71-.25l-.61,0-.61,0h-1.6v4.23h2.49l.36,0a2,2,0,0,0,.73-.23,2.23,2.23,0,0,0,.54-.47,1.86,1.86,0,0,0,.33-.64A2.18,2.18,0,0,0,249.87,164Z"/><path class="cls-7" d="M256.87,161a.71.71,0,0,1,.31-.16,1.1,1.1,0,0,1,.31,0h1.74a.92.92,0,0,1,.36.07.65.65,0,0,1,.24.19,1.25,1.25,0,0,1,.15.28,1.7,1.7,0,0,1,.12.34l.49,1.39.65-.84a4.48,4.48,0,0,1,.78-.79,3.89,3.89,0,0,1,1.07-.58,4.46,4.46,0,0,1,1.52-.23,7.34,7.34,0,0,1,2.91.58,7,7,0,0,1,2.3,1.6,7.5,7.5,0,0,1,1.5,2.4,8.49,8.49,0,0,1,0,6,7.39,7.39,0,0,1-1.5,2.4,7.07,7.07,0,0,1-2.3,1.61,7.17,7.17,0,0,1-2.91.58,4.12,4.12,0,0,1-1.29-.17,3.9,3.9,0,0,1-1-.47,4.63,4.63,0,0,1-.75-.63l-.63-.7v5.38a.84.84,0,0,1-.21.58.81.81,0,0,1-.64.25h-2.64a.89.89,0,0,1-.3-.06,1.08,1.08,0,0,1-.3-.16,1,1,0,0,1-.23-.26.7.7,0,0,1-.09-.35V161.63a.72.72,0,0,1,.08-.38A1.18,1.18,0,0,1,256.87,161Zm10.76,7.19a4.08,4.08,0,0,0-.24-1.4,3.62,3.62,0,0,0-.68-1.16,3.13,3.13,0,0,0-1-.78,3.17,3.17,0,0,0-1.35-.29,3.61,3.61,0,0,0-1.38.27,3.67,3.67,0,0,0-1.93,1.84,3.29,3.29,0,0,0-.34,1.35v.17a3.42,3.42,0,0,0,.29,1.43,3.59,3.59,0,0,0,.78,1.16,3.7,3.7,0,0,0,1.16.78,3.61,3.61,0,0,0,1.42.29,3.17,3.17,0,0,0,1.35-.29,3.13,3.13,0,0,0,1-.78,3.52,3.52,0,0,0,.68-1.16A4.17,4.17,0,0,0,267.63,168.16Z"/><path class="cls-8" d="M284.32,167.94a29.91,29.91,0,0,0-4-1.8c-.86-.31-1.74-.59-2.64-.82-.32-.09-.64-.17-1-.24a30.08,30.08,0,0,0-6.69-.74h-.77a30.06,30.06,0,0,0-6.2.81,29.32,29.32,0,0,0-4.7,1.52l-.89.39a28.09,28.09,0,0,0-2.72,1.42,29.78,29.78,0,0,0-3.32,2.25l-1,.8c-.44-.61-.89-1.22-1.37-1.8a30.91,30.91,0,0,0-4.38-4.33l-1-.76h0c-.08-.07-.16-.12-.24-.18a29.62,29.62,0,0,0-7.67-4,29.13,29.13,0,0,0-7.5-1.61,29.24,29.24,0,0,0,8,30.13c.61.57,1.25,1.12,1.92,1.64s1.13.84,1.71,1.23h0l.22.14c.42.28.85.54,1.28.8l.55.32c.56.31,1.12.61,1.7.88a28.63,28.63,0,0,0,4.71,1.76l.87.22c.63.16,1.28.29,1.93.41.43.07.87.14,1.31.19.62.08,1.25.14,1.88.18.2,0,.41,0,.62,0,.4,0,.81,0,1.22,0a29.32,29.32,0,0,0,3.89-.26c.36-.05.7-.1,1-.17a26.77,26.77,0,0,0,3.33-.76c.26-.07.53-.15.79-.24l1.11-.39a29.3,29.3,0,0,0,16.8-16.12c.14-.32.26-.63.38-.95a28.67,28.67,0,0,0,1.61-6.28c.07-.47.12-.94.16-1.43s.09-1.11.11-1.68Z"/><path class="cls-3" d="M302,196.65a29.13,29.13,0,0,1-25.08,28.94l-.27,0a27.93,27.93,0,0,1-3.89.26,29.63,29.63,0,0,1-4.13-.29,30.35,30.35,0,0,1-3.7-.77,29,29,0,0,1-10.17-5.13c-.35-.27-.69-.56-1-.83l-.9-.81a29,29,0,0,1-5.84-7.57c-.27-.5-.53-1-.77-1.53s-.54-1.22-.77-1.85a26,26,0,0,1-1.15-3.73,28.76,28.76,0,0,1-.79-6.73,26,26,0,0,1,.13-2.65,29.21,29.21,0,0,1,6.68-16.12l.3-.34h0a27.34,27.34,0,0,1,2.11-2.19l.44-.42a30.44,30.44,0,0,1,3.16-2.47c.19-.13.38-.26.58-.38a28.84,28.84,0,0,1,6.13-3,29.41,29.41,0,0,1,3.76-1.05c.39-.07.77-.15,1.16-.21a29.27,29.27,0,0,1,3.9-.38h.9c.37,0,.73,0,1.09,0a25.58,25.58,0,0,1,3.06.28,8.29,8.29,0,0,1,.87.13h0c.35.06.7.12,1.05.2l.18,0a28.92,28.92,0,0,1,4.36,1.32c.48.18.95.38,1.41.59h0l.5.23.59.29c.4.2.79.4,1.16.62a29.27,29.27,0,0,1,8.66,7.41,26.58,26.58,0,0,1,2.15,3.12A28.94,28.94,0,0,1,301,189a2.27,2.27,0,0,1,.06.25,29.64,29.64,0,0,1,.92,6.15C302,195.84,302,196.24,302,196.65Z"/><path class="cls-4" d="M301,189.29l-24.14,36.3-.27,0a28,28,0,0,1-3.9.26,29.49,29.49,0,0,1-4.12-.29l29.23-43.94A28.94,28.94,0,0,1,301,189Z"/><path class="cls-4" d="M285.86,170.51l-.75,1.14-3.53,5.3-.53.81-3.76,5.64-2.15,3.24h0l-.29.43-2.7,4.06-1,1.59L268,197.31v0l-.44.65-.76,1.15-3.32,5-.16.23L258,212.44l-4.27,6.43-.9-.81a29,29,0,0,1-5.84-7.57c-.27-.5-.53-1-.77-1.53l5.34-8,2.78-4.17,1-1.47,4.23-6.37L268.09,176l.39-.57h0l5.34-8a25.58,25.58,0,0,1,3.06.28,8.29,8.29,0,0,1,.87.13h0c.35.06.7.12,1.05.2l.18,0a28.92,28.92,0,0,1,4.36,1.32c.48.18.95.38,1.41.59h0l.5.23Z"/><path class="cls-4" d="M271.83,167.42l-5.77,8.66h0l-.34.5-8.35,12.56-1.51,2.27-3.43,5.16-1.24,1.86-5.77,8.67a26,26,0,0,1-1.15-3.73l4.92-7.4,2.32-3.49,2.29-3.43,2-3,4.23-6.37.51-.77.13-.2h0l2.85-4.29,4.39-6.6A29.27,29.27,0,0,1,271.83,167.42Z"/><circle class="cls-5" cx="272.72" cy="196.65" r="21.61"/><path class="cls-6" d="M294.33,196.65A21.55,21.55,0,0,1,285.6,214,21.61,21.61,0,0,0,259,180a21.62,21.62,0,0,1,35.34,16.7Z"/><path class="cls-6" d="M256.38,195a.55.55,0,0,1-.05-.41.49.49,0,0,1,.29-.29l6.76-3.11a5.69,5.69,0,0,1,4.35-.19,5.49,5.49,0,0,1,3.6,4.34,5.87,5.87,0,0,1,0,1.45,6.11,6.11,0,0,1-.35,1.4,5.93,5.93,0,0,1-.69,1.26l5,3.83.35.26a.81.81,0,0,1,.27.29.35.35,0,0,1,0,.3.5.5,0,0,1-.26.23L272.11,206a.59.59,0,0,1-.37.05.58.58,0,0,1-.31-.2l-4.75-3.62L265,203l2.18,4.72c.14.3,0,.52-.28.67l-3.11,1.43a.52.52,0,0,1-.38,0,.47.47,0,0,1-.28-.29Zm10.34.87a2.27,2.27,0,0,0-1-1,2.1,2.1,0,0,0-.7-.21,2,2,0,0,0-.76.07l-.56.22a4.38,4.38,0,0,0-.57.24l-1.45.66,1.77,3.85,1.93-.89.33-.17.31-.18a1.84,1.84,0,0,0,.56-.51,2,2,0,0,0,.33-1.38A2.42,2.42,0,0,0,266.72,195.86Z"/><path class="cls-6" d="M271.8,190.18a.78.78,0,0,1,.22-.28l.27-.16,1.58-.72a.64.64,0,0,1,.36-.09.59.59,0,0,1,.29.07,1.15,1.15,0,0,1,.26.19c.08.07.16.16.25.25l1,1.07.24-1a4.49,4.49,0,0,1,.38-1,4,4,0,0,1,.73-1,4.36,4.36,0,0,1,1.29-.84,7.07,7.07,0,0,1,5.64-.2A7.64,7.64,0,0,1,286.7,188a8.56,8.56,0,0,1,2.49,5.41,7.48,7.48,0,0,1-.37,2.81,6.81,6.81,0,0,1-1.41,2.42,7.19,7.19,0,0,1-2.4,1.76,4.28,4.28,0,0,1-1.24.37,3.46,3.46,0,0,1-1.07,0,4.47,4.47,0,0,1-.94-.26l-.87-.37,2.25,4.88a1,1,0,0,1,.06.62.79.79,0,0,1-.49.49l-2.4,1.11a.82.82,0,0,1-.29.07,1.27,1.27,0,0,1-.34,0,.92.92,0,0,1-.32-.14.63.63,0,0,1-.23-.28l-7.32-15.91a.69.69,0,0,1-.08-.38A1.37,1.37,0,0,1,271.8,190.18Zm12.79,2a4.12,4.12,0,0,0-.8-1.17,3.76,3.76,0,0,0-1.11-.77,3.45,3.45,0,0,0-1.28-.27,3.22,3.22,0,0,0-1.34.3,3.74,3.74,0,0,0-1.87,2,3.76,3.76,0,0,0-.26,1.34,3.56,3.56,0,0,0,.25,1.36l.08.16a3.49,3.49,0,0,0,.86,1.18,3.63,3.63,0,0,0,2.57.94,3.47,3.47,0,0,0,1.41-.33,3.12,3.12,0,0,0,1.11-.83,3,3,0,0,0,.62-1.14,3.48,3.48,0,0,0,.14-1.34A4.24,4.24,0,0,0,284.59,192.21Z"/><path class="cls-7" d="M256.32,194.35a.58.58,0,0,1-.05-.4.51.51,0,0,1,.29-.29l6.76-3.11a5.47,5.47,0,0,1,2.21-.53,5.74,5.74,0,0,1,2.15.34,5.64,5.64,0,0,1,1.85,1.1,5.46,5.46,0,0,1,1.31,1.79,5.23,5.23,0,0,1,.43,1.45,5.42,5.42,0,0,1,0,1.45,5.16,5.16,0,0,1-.35,1.39,6.36,6.36,0,0,1-.68,1.26l5,3.83c.09.08.21.16.35.26a.79.79,0,0,1,.27.29.34.34,0,0,1,0,.31.54.54,0,0,1-.26.23l-3.59,1.65a.53.53,0,0,1-.37,0,.48.48,0,0,1-.31-.2l-4.75-3.61-1.69.78,2.17,4.72a.46.46,0,0,1-.27.68l-3.11,1.43a.54.54,0,0,1-.39,0,.45.45,0,0,1-.28-.28Zm10.34.88a2,2,0,0,0-.41-.58,2.26,2.26,0,0,0-.59-.42,2.1,2.1,0,0,0-.7-.21,1.81,1.81,0,0,0-.76.07l-.56.21-.57.24-1.44.67,1.76,3.84,1.93-.88.33-.17.31-.18a1.75,1.75,0,0,0,.56-.52,2,2,0,0,0,.3-.65,2.47,2.47,0,0,0,0-.72A2.44,2.44,0,0,0,266.66,195.23Z"/><path class="cls-7" d="M271.75,189.55a.67.67,0,0,1,.21-.28,1.91,1.91,0,0,1,.27-.16l1.58-.73a.87.87,0,0,1,.36-.09.57.57,0,0,1,.29.08,1.1,1.1,0,0,1,.26.18l.25.26,1,1.07c.08-.35.16-.69.23-1a4.59,4.59,0,0,1,.38-1,4.09,4.09,0,0,1,.73-1,4.51,4.51,0,0,1,1.29-.85,7,7,0,0,1,2.89-.68,6.91,6.91,0,0,1,2.75.49,7.42,7.42,0,0,1,2.37,1.55,8.43,8.43,0,0,1,2.49,5.41,7.71,7.71,0,0,1-.36,2.81,7.06,7.06,0,0,1-1.41,2.42,7.23,7.23,0,0,1-2.4,1.75,4.09,4.09,0,0,1-1.25.38,4.22,4.22,0,0,1-1.07,0,4.65,4.65,0,0,1-.94-.27l-.87-.36,2.25,4.88a.84.84,0,0,1,.06.62.81.81,0,0,1-.49.49l-2.39,1.1a1,1,0,0,1-.3.08,1,1,0,0,1-.34,0,1,1,0,0,1-.32-.13.74.74,0,0,1-.23-.29l-7.32-15.9a.71.71,0,0,1-.08-.38A1.3,1.3,0,0,1,271.75,189.55Zm12.78,2a3.86,3.86,0,0,0-.8-1.17,3.54,3.54,0,0,0-1.1-.77,3.13,3.13,0,0,0-1.28-.27,3,3,0,0,0-1.35.3,3.61,3.61,0,0,0-1.14.82,3.8,3.8,0,0,0-.73,1.15,3.93,3.93,0,0,0-.26,1.33,3.41,3.41,0,0,0,.26,1.37l.07.16a3.49,3.49,0,0,0,.86,1.17,3.61,3.61,0,0,0,1.19.73,3.79,3.79,0,0,0,1.39.22,3.54,3.54,0,0,0,1.41-.33,3.17,3.17,0,0,0,1.1-.83,3.28,3.28,0,0,0,.63-1.14,3.5,3.5,0,0,0,.13-1.34A4,4,0,0,0,284.53,191.58Z"/><path class="cls-8" d="M256,189v.2c0,.75,0,1.5-.09,2.24a30.84,30.84,0,0,1-.57,3.87c-.11.5-.22,1-.36,1.5a30,30,0,0,1-8,13.7c-.27-.5-.53-1-.77-1.53s-.54-1.22-.77-1.85a26,26,0,0,1-1.15-3.73,28.76,28.76,0,0,1-.79-6.73,26,26,0,0,1,.13-2.65,29.21,29.21,0,0,1,6.68-16.12l.3-.34h0a27.34,27.34,0,0,1,2.11-2.19,28.06,28.06,0,0,1,1.64,3.91h0c.05.15.11.3.15.47a30.89,30.89,0,0,1,1,3.9c.06.36.12.73.17,1.11s.12.86.16,1.29C255.9,187,256,188,256,189Z"/><path class="cls-3" d="M250.18,191.59a29.21,29.21,0,0,1-25.35,29,27.73,27.73,0,0,1-3.89.26,29.36,29.36,0,0,1-7.83-1.06,29.06,29.06,0,0,1-10.17-5.13c-.67-.53-1.31-1.07-1.92-1.64a29.88,29.88,0,0,1-4.11-4.74A29.25,29.25,0,0,1,233,164.93h0c.77.35,1.53.73,2.26,1.14a29.38,29.38,0,0,1,8.66,7.41,29,29,0,0,1,5.28,10.5,28.68,28.68,0,0,1,1,6.4C250.18,190.78,250.18,191.18,250.18,191.59Z"/><path class="cls-4" d="M233,164.93,201,213a29.88,29.88,0,0,1-4.11-4.74L227,163A29.08,29.08,0,0,1,233,164.93Z"/><path class="cls-4" d="M243.9,173.48l-30.79,46.29a29.06,29.06,0,0,1-10.17-5.13l32.3-48.57A29.38,29.38,0,0,1,243.9,173.48Z"/><circle class="cls-5" cx="220.94" cy="191.59" r="21.61" transform="translate(-55.81 97.1) rotate(-22.08)"/><path class="cls-6" d="M242.55,191.59a21.55,21.55,0,0,1-8.73,17.35,21.61,21.61,0,0,0-26.61-34.05,21.62,21.62,0,0,1,35.34,16.7Z"/><path class="cls-6" d="M209.88,178.93a.54.54,0,0,1,.24-.32.48.48,0,0,1,.41,0l7.05,2.37a5.58,5.58,0,0,1,2,1.13,5.65,5.65,0,0,1,1.33,1.72,5.48,5.48,0,0,1,.59,2.07,5.58,5.58,0,0,1-.27,2.21,5.12,5.12,0,0,1-.68,1.34,5.54,5.54,0,0,1-1,1.07,5.35,5.35,0,0,1-1.22.77,5.43,5.43,0,0,1-1.36.45l1,6.23c0,.12,0,.26.07.43a.89.89,0,0,1,0,.4.35.35,0,0,1-.21.23.5.5,0,0,1-.34,0l-3.75-1.26a.58.58,0,0,1-.29-.22.47.47,0,0,1-.09-.36l-1-5.89-1.77-.59L209,195.61q-.15.46-.66.3l-3.24-1.09a.54.54,0,0,1-.31-.23.46.46,0,0,1,0-.4Zm6.92,7.73a1.8,1.8,0,0,0,.1-.7,2.17,2.17,0,0,0-.13-.71,2.27,2.27,0,0,0-.37-.64,2.12,2.12,0,0,0-.6-.47l-.56-.23-.58-.21-1.51-.51-1.35,4,2,.68.36.11.35.08a1.94,1.94,0,0,0,.76,0,1.89,1.89,0,0,0,.67-.27,2,2,0,0,0,.51-.5A2.19,2.19,0,0,0,216.8,186.66Z"/><path class="cls-6" d="M224.4,186a.63.63,0,0,1,.35,0,1.33,1.33,0,0,1,.3.06l1.65.56a.66.66,0,0,1,.32.18.59.59,0,0,1,.17.25,1.52,1.52,0,0,1,.06.32c0,.11,0,.23,0,.36l0,1.47.89-.59a4.11,4.11,0,0,1,1-.5,3.78,3.78,0,0,1,1.21-.21,4.51,4.51,0,0,1,1.51.27,7,7,0,0,1,2.57,1.48,7,7,0,0,1,1.67,2.24,7.46,7.46,0,0,1,.66,2.76,8,8,0,0,1-.43,3,8.21,8.21,0,0,1-1.46,2.65,7.48,7.48,0,0,1-2.19,1.8,7.09,7.09,0,0,1-5.64.42,4.05,4.05,0,0,1-1.16-.58,3.44,3.44,0,0,1-.77-.75,4.82,4.82,0,0,1-.5-.83l-.38-.86-1.71,5.09a.87.87,0,0,1-.39.49.81.81,0,0,1-.69,0l-2.5-.84a1,1,0,0,1-.26-.15,1.42,1.42,0,0,1-.24-.25.9.9,0,0,1-.13-.32.63.63,0,0,1,0-.36l5.58-16.6a.66.66,0,0,1,.2-.33A1.15,1.15,0,0,1,224.4,186Zm7.92,10.25a4.31,4.31,0,0,0,.21-1.41,3.52,3.52,0,0,0-.27-1.31,3.23,3.23,0,0,0-.75-1.08,3,3,0,0,0-1.18-.7,3.36,3.36,0,0,0-1.4-.18,3.61,3.61,0,0,0-1.31.33,3.89,3.89,0,0,0-1.11.79,3.45,3.45,0,0,0-.75,1.17l0,.17a3.42,3.42,0,0,0-.19,1.44,3.57,3.57,0,0,0,.38,1.35,3.66,3.66,0,0,0,.85,1.11,3.57,3.57,0,0,0,1.26.72,3.1,3.1,0,0,0,1.37.16,3.35,3.35,0,0,0,1.24-.4,3.4,3.4,0,0,0,1-.89A4,4,0,0,0,232.32,196.26Z"/><path class="cls-7" d="M210.27,178.43a.54.54,0,0,1,.24-.32.48.48,0,0,1,.41,0l7.06,2.37a5.67,5.67,0,0,1,2,1.13,5.81,5.81,0,0,1,1.33,1.72,5.61,5.61,0,0,1,.58,2.07,5.18,5.18,0,0,1-.27,2.2,4.76,4.76,0,0,1-.68,1.35,5.51,5.51,0,0,1-2.19,1.84,5.71,5.71,0,0,1-1.36.45l1,6.23c0,.12,0,.26.07.43a.67.67,0,0,1,0,.4.33.33,0,0,1-.2.23.57.57,0,0,1-.34,0l-3.75-1.26a.57.57,0,0,1-.3-.22.57.57,0,0,1-.09-.36l-1-5.89-1.77-.59-1.65,4.93a.47.47,0,0,1-.67.3l-3.24-1.09a.52.52,0,0,1-.31-.24.44.44,0,0,1,0-.39Zm6.93,7.73a2.28,2.28,0,0,0,.1-.7,2.49,2.49,0,0,0-.14-.71,2.14,2.14,0,0,0-.37-.64,1.87,1.87,0,0,0-.6-.47l-.56-.23-.58-.21-1.51-.51-1.34,4,2,.68.35.1.35.09a1.94,1.94,0,0,0,.76,0,1.89,1.89,0,0,0,.67-.27,2.05,2.05,0,0,0,.52-.5A2.45,2.45,0,0,0,217.2,186.16Z"/><path class="cls-7" d="M224.79,185.51a.63.63,0,0,1,.35,0,1.55,1.55,0,0,1,.31.06l1.65.56a.77.77,0,0,1,.32.18.67.67,0,0,1,.16.25,1.55,1.55,0,0,1,.06.31c0,.12,0,.24,0,.37v1.47l.89-.59a4.18,4.18,0,0,1,1-.5,3.72,3.72,0,0,1,1.2-.21,4.47,4.47,0,0,1,1.51.27,7.13,7.13,0,0,1,2.58,1.47,7.22,7.22,0,0,1,1.66,2.25,7.46,7.46,0,0,1,.66,2.76,8,8,0,0,1-.43,3,8.21,8.21,0,0,1-1.46,2.65,7.48,7.48,0,0,1-2.19,1.8,7.07,7.07,0,0,1-5.63.42,4,4,0,0,1-1.17-.58,3.66,3.66,0,0,1-.77-.75,4.82,4.82,0,0,1-.5-.83l-.38-.86L222.91,204a.86.86,0,0,1-.38.49.82.82,0,0,1-.69,0l-2.5-.84a.91.91,0,0,1-.27-.15,1.34,1.34,0,0,1-.23-.25.92.92,0,0,1-.14-.32.64.64,0,0,1,0-.36L224.3,186a.85.85,0,0,1,.2-.34A1.81,1.81,0,0,1,224.79,185.51Zm7.92,10.25a4.07,4.07,0,0,0,.22-1.41,3.74,3.74,0,0,0-.28-1.31,3.09,3.09,0,0,0-.75-1.08,3,3,0,0,0-1.18-.7,3.34,3.34,0,0,0-1.39-.18,3.67,3.67,0,0,0-1.32.33,3.71,3.71,0,0,0-1.1.79,3.63,3.63,0,0,0-.76,1.17l-.05.17a3.66,3.66,0,0,0,.19,2.79,3.82,3.82,0,0,0,.86,1.11,3.62,3.62,0,0,0,1.25.72,3.1,3.1,0,0,0,1.37.16,3.29,3.29,0,0,0,1.24-.4,3.54,3.54,0,0,0,1-.89A4,4,0,0,0,232.71,195.76Z"/><rect class="cls-9" x="185.5" y="190.23" width="134.36" height="90.83"/><path class="cls-10" d="M319.86,204.25v.24h-5.07a1,1,0,0,1-1-1V196h-7.48a1,1,0,0,1-1-1v-4.7h.6v4.46a1,1,0,0,0,1,1h7.48v7.48a1,1,0,0,0,1,1Z"/><path class="cls-10" d="M315.39,267a1,1,0,0,0-1,1v7.47h-.6v-7.47a1,1,0,0,1,1-1Z"/><path class="cls-10" d="M306.87,275.55a1,1,0,0,0-1,1.05v4.46h-.6V276.6a1,1,0,0,1,1-1.05Z"/><circle class="cls-10" cx="240.86" cy="254.16" r="30.24"/><path class="cls-11" d="M320.46,190.67v13.58h-5.07a1,1,0,0,1-1-1v-7.48h-7.48a1,1,0,0,1-1-1v-5.06h13.58A1,1,0,0,1,320.46,190.67Z"/><path class="cls-11" d="M320.46,267v13.58a1,1,0,0,1-1,1H305.83V276.6a1,1,0,0,1,1-1.05h7.48v-7.47a1,1,0,0,1,1-1Z"/><path class="cls-3" d="M273.6,253.26a29.27,29.27,0,0,1-19.07,27.43,28.57,28.57,0,0,1-6.28,1.55,27.93,27.93,0,0,1-3.89.26,29.31,29.31,0,0,1-7.83-1.06,28.89,28.89,0,0,1-10.17-5.13c-.67-.52-1.31-1.07-1.93-1.64a30,30,0,0,1-4.11-4.74,29.26,29.26,0,0,1,30.11-45.28,29.5,29.5,0,0,1,6,1.95h0c.77.35,1.52.74,2.25,1.14a29.4,29.4,0,0,1,14,17.91,30,30,0,0,1,1,6.4C273.59,252.45,273.6,252.85,273.6,253.26Z"/><path class="cls-4" d="M273.58,252.05l-19,28.64a28.57,28.57,0,0,1-6.28,1.55l24.35-36.59A30,30,0,0,1,273.58,252.05Z"/><path class="cls-4" d="M256.39,226.6l-32,48.07a30,30,0,0,1-4.11-4.74l30.11-45.28A29.5,29.5,0,0,1,256.39,226.6Z"/><path class="cls-4" d="M267.31,235.15l-30.78,46.29a28.89,28.89,0,0,1-10.17-5.13l32.29-48.57A29.27,29.27,0,0,1,267.31,235.15Z"/><circle class="cls-5" cx="244.35" cy="253.26" r="21.61"/><path class="cls-6" d="M266,253.26a21.57,21.57,0,0,1-8.72,17.35,21.61,21.61,0,0,0-26.61-34.05A21.61,21.61,0,0,1,266,253.26Z"/><path class="cls-12" d="M157.44,241l-1.5-1L138,228.4l-21.11-13.63v14A54.55,54.55,0,0,1,72,175.06c0-.17,0-.36,0-.54a54.56,54.56,0,0,0,44.86,77.66v15Z"/><path class="cls-12" d="M173.31,51.42l1.5,1,18,11.59,21.11,13.63v-14a54.58,54.58,0,0,1,44.88,53.7c0,.17,0,.36,0,.53A54.55,54.55,0,0,0,213.88,40.2v-15Z"/><path class="cls-13" d="M54.55,176.27a4.18,4.18,0,0,1-4.18,4.18,4.18,4.18,0,0,1,4.18,4.18,4.18,4.18,0,0,1,4.18-4.18A4.18,4.18,0,0,1,54.55,176.27Z"/><path class="cls-13" d="M91.07,98.2a4.18,4.18,0,0,1-4.18,4.18,4.18,4.18,0,0,1,4.18,4.18,4.18,4.18,0,0,1,4.18-4.18A4.18,4.18,0,0,1,91.07,98.2Z"/><path class="cls-13" d="M67.07,0a4.18,4.18,0,0,1-4.18,4.18,4.18,4.18,0,0,1,4.18,4.18,4.18,4.18,0,0,1,4.18-4.18A4.18,4.18,0,0,1,67.07,0Z"/><path class="cls-13" d="M247.58,119.11a4.18,4.18,0,0,1-4.18,4.18,4.18,4.18,0,0,1,4.18,4.18,4.18,4.18,0,0,1,4.18-4.18A4.18,4.18,0,0,1,247.58,119.11Z"/><path class="cls-13" d="M204.82,163.39a4.19,4.19,0,0,1-4.18,4.19,4.18,4.18,0,0,1,4.18,4.18,4.18,4.18,0,0,1,4.18-4.18A4.19,4.19,0,0,1,204.82,163.39Z"/><path class="cls-13" d="M271.83,239.37a4.19,4.19,0,0,1-4.19,4.18,4.2,4.2,0,0,1,4.19,4.19,4.19,4.19,0,0,1,4.18-4.19A4.18,4.18,0,0,1,271.83,239.37Z"/><path class="cls-13" d="M90.31,162.12l5.86-.61-5.86-.6a1.12,1.12,0,0,1-1-1l-.61-5.86-.6,5.86a1.13,1.13,0,0,1-1,1l-5.86.6,5.86.61a1.13,1.13,0,0,1,1,1l.6,5.86.61-5.86A1.12,1.12,0,0,1,90.31,162.12Z"/><path class="cls-13" d="M123.6,35.94l5.86-.6-5.86-.61a1.11,1.11,0,0,1-1-1L122,27.88l-.6,5.86a1.12,1.12,0,0,1-1,1l-5.86.61,5.86.6a1.13,1.13,0,0,1,1,1l.6,5.86.61-5.86A1.12,1.12,0,0,1,123.6,35.94Z"/><path class="cls-13" d="M283.76,153.57l5.86-.61-5.86-.6a1.12,1.12,0,0,1-1-1l-.61-5.86-.61,5.86a1.12,1.12,0,0,1-1,1l-5.86.6,5.86.61a1.11,1.11,0,0,1,1,1l.61,5.86.61-5.86A1.11,1.11,0,0,1,283.76,153.57Z"/><path class="cls-13" d="M50.37,153.77l4.24-.44-4.24-.44a.81.81,0,0,1-.72-.72l-.43-4.24-.44,4.24a.81.81,0,0,1-.72.72l-4.24.44,4.24.44a.81.81,0,0,1,.72.72l.44,4.23.43-4.23A.81.81,0,0,1,50.37,153.77Z"/><path class="cls-13" d="M75.5,96.27l4.24-.43L75.5,95.4a.81.81,0,0,1-.72-.72l-.44-4.24-.44,4.24a.81.81,0,0,1-.72.72L69,95.84l4.23.43a.81.81,0,0,1,.72.72l.44,4.24L74.78,97A.81.81,0,0,1,75.5,96.27Z"/><path class="cls-13" d="M32.85,41.82l4.24-.43L32.85,41a.81.81,0,0,1-.72-.72L31.69,36l-.44,4.24a.81.81,0,0,1-.72.72l-4.24.44,4.24.43a.81.81,0,0,1,.72.72l.44,4.24.44-4.24A.81.81,0,0,1,32.85,41.82Z"/><path class="cls-13" d="M281.25,105.71l4.24-.44-4.24-.44a.81.81,0,0,1-.72-.72l-.44-4.24-.43,4.24a.81.81,0,0,1-.72.72l-4.24.44,4.24.44a.81.81,0,0,1,.72.72l.43,4.23.44-4.23A.81.81,0,0,1,281.25,105.71Z"/><path class="cls-13" d="M233.27,151.34l4.24-.44-4.24-.44a.81.81,0,0,1-.71-.72l-.44-4.24-.44,4.24a.81.81,0,0,1-.72.72l-4.24.44,4.24.44a.81.81,0,0,1,.72.71l.44,4.24.44-4.24A.81.81,0,0,1,233.27,151.34Z"/><path class="cls-13" d="M238.67,226.33l4.24-.44-4.24-.44a.81.81,0,0,1-.72-.72l-.44-4.23-.44,4.23a.79.79,0,0,1-.71.72l-4.24.44,4.24.44a.79.79,0,0,1,.71.72l.44,4.24.44-4.24A.81.81,0,0,1,238.67,226.33Z"/><circle class="cls-13" cx="268.07" cy="117.2" r="1.91"/><path class="cls-13" d="M266.06,122.59a1.45,1.45,0,1,1-1.44-1.44A1.45,1.45,0,0,1,266.06,122.59Z"/><path class="cls-13" d="M258,131.64a1.16,1.16,0,1,1-1.15-1.16A1.16,1.16,0,0,1,258,131.64Z"/><path class="cls-13" d="M272,133.8a1,1,0,1,1-1-1A1,1,0,0,1,272,133.8Z"/><path class="cls-13" d="M237.68,136.54a.87.87,0,1,1-.86-.86A.86.86,0,0,1,237.68,136.54Z"/><circle class="cls-13" cx="245.81" cy="106.7" r="1.43"/><path class="cls-13" d="M284.53,133.51a.72.72,0,1,1-.72-.72A.72.72,0,0,1,284.53,133.51Z"/><path class="cls-13" d="M77.71,160.11a1,1,0,1,1-1-1A1,1,0,0,1,77.71,160.11Z"/><path class="cls-13" d="M60.56,155.44a.92.92,0,1,1-.91-.91A.92.92,0,0,1,60.56,155.44Z"/><circle class="cls-13" cx="56.36" cy="157.13" r="0.77"/><circle class="cls-13" cx="65.11" cy="170.02" r="1.83"/><circle class="cls-13" cx="69.25" cy="162.8" r="0.77"/><circle class="cls-13" cx="84.47" cy="179.56" r="0.89"/><path class="cls-13" d="M49.82,190.07a.92.92,0,1,1-.92-.91A.92.92,0,0,1,49.82,190.07Z"/><path class="cls-6" d="M229.74,245.68a.53.53,0,0,1,.13-.38.46.46,0,0,1,.38-.15h7.45a5.51,5.51,0,0,1,2.22.45,5.89,5.89,0,0,1,1.81,1.2,5.81,5.81,0,0,1,1.22,1.78,5.51,5.51,0,0,1,.44,2.18,5.21,5.21,0,0,1-.21,1.49,5.63,5.63,0,0,1-.6,1.32,5.15,5.15,0,0,1-.9,1.12,5.66,5.66,0,0,1-1.15.86l3,5.58.21.38a.75.75,0,0,1,.13.38.34.34,0,0,1-.12.28.48.48,0,0,1-.33.1h-4a.63.63,0,0,1-.35-.11.54.54,0,0,1-.2-.31l-2.8-5.27H234.2v5.2c0,.33-.17.49-.53.49h-3.42a.55.55,0,0,1-.37-.12.47.47,0,0,1-.14-.37Zm9,5.12a1.87,1.87,0,0,0-.13-.69,2,2,0,0,0-.36-.63,1.85,1.85,0,0,0-.55-.49,1.88,1.88,0,0,0-.71-.25l-.61,0-.62,0H234.2v4.23h2.49l.36,0a2,2,0,0,0,.73-.24,1.91,1.91,0,0,0,.87-1.11A2.18,2.18,0,0,0,238.77,250.8Z"/><path class="cls-6" d="M245.76,247.77a.74.74,0,0,1,.32-.16,1.63,1.63,0,0,1,.31,0h1.74a1,1,0,0,1,.36.06.75.75,0,0,1,.24.19,1.51,1.51,0,0,1,.15.28c0,.1.08.22.12.34l.49,1.4.65-.85a4.48,4.48,0,0,1,.78-.79,4.17,4.17,0,0,1,1.07-.58,4.46,4.46,0,0,1,1.52-.23,7.34,7.34,0,0,1,2.91.58,6.93,6.93,0,0,1,2.29,1.61,7.31,7.31,0,0,1,1.51,2.39,8.49,8.49,0,0,1,0,6,7.25,7.25,0,0,1-1.51,2.4,6.93,6.93,0,0,1-2.29,1.61,7.17,7.17,0,0,1-2.91.59,4.1,4.1,0,0,1-1.29-.18,3.9,3.9,0,0,1-1-.47,4.63,4.63,0,0,1-.75-.63l-.63-.69v5.37a.89.89,0,0,1-.21.59.8.8,0,0,1-.64.24h-2.64a.8.8,0,0,1-.3-.06,1.08,1.08,0,0,1-.3-.16.82.82,0,0,1-.23-.26.71.71,0,0,1-.1-.35V248.43a.71.71,0,0,1,.09-.38A1.86,1.86,0,0,1,245.76,247.77ZM256.53,255a4.12,4.12,0,0,0-.24-1.4,3.73,3.73,0,0,0-.68-1.16,3.13,3.13,0,0,0-1.05-.78,3.17,3.17,0,0,0-1.35-.29,3.61,3.61,0,0,0-1.38.27,3.67,3.67,0,0,0-1.93,1.84,3.29,3.29,0,0,0-.34,1.35V255a3.58,3.58,0,0,0,.28,1.43,3.7,3.7,0,0,0,1.95,1.94,3.61,3.61,0,0,0,1.42.29,3.17,3.17,0,0,0,1.35-.29,3.13,3.13,0,0,0,1.05-.78,3.42,3.42,0,0,0,.68-1.16A4.17,4.17,0,0,0,256.53,255Z"/><path class="cls-7" d="M230,245.08a.58.58,0,0,1,.12-.38.48.48,0,0,1,.38-.15h7.45a5.51,5.51,0,0,1,2.22.45,5.67,5.67,0,0,1,3,3,5.51,5.51,0,0,1,.44,2.18,5.21,5.21,0,0,1-.21,1.49,5.86,5.86,0,0,1-.59,1.33,5.73,5.73,0,0,1-.91,1.11,5.66,5.66,0,0,1-1.15.86l3,5.58c0,.11.12.24.2.38a.75.75,0,0,1,.13.38.34.34,0,0,1-.12.28.48.48,0,0,1-.33.1h-4a.61.61,0,0,1-.35-.11.56.56,0,0,1-.21-.31l-2.8-5.27h-1.86v5.2c0,.33-.18.49-.53.49h-3.43a.57.57,0,0,1-.37-.12.46.46,0,0,1-.13-.37Zm9,5.12a1.87,1.87,0,0,0-.13-.69,2.16,2.16,0,0,0-.35-.63,2.2,2.2,0,0,0-.56-.49,1.88,1.88,0,0,0-.71-.25l-.61,0-.61,0h-1.59v4.23h2.49l.35,0A1.8,1.8,0,0,0,238,252a2,2,0,0,0,.54-.47,2.07,2.07,0,0,0,.34-.64A2.46,2.46,0,0,0,239,250.2Z"/><path class="cls-7" d="M246,247.17a.71.71,0,0,1,.31-.16l.31,0h1.74a.9.9,0,0,1,.36.06.65.65,0,0,1,.24.19,2.54,2.54,0,0,1,.16.28l.12.34.48,1.4.65-.85a4.12,4.12,0,0,1,.78-.78,4.06,4.06,0,0,1,1.07-.59,4.5,4.5,0,0,1,1.52-.23,7.27,7.27,0,0,1,2.91.58,7,7,0,0,1,2.3,1.61,7.45,7.45,0,0,1,1.5,2.39,8.49,8.49,0,0,1,0,6,7.39,7.39,0,0,1-1.5,2.4,7,7,0,0,1-2.3,1.61,7.1,7.1,0,0,1-2.91.59,4.1,4.1,0,0,1-1.29-.18,3.9,3.9,0,0,1-1-.47,4.16,4.16,0,0,1-.74-.63l-.64-.69v5.37a.89.89,0,0,1-.21.59.79.79,0,0,1-.64.24H246.6a.89.89,0,0,1-.3-.06,1.08,1.08,0,0,1-.3-.16,1,1,0,0,1-.23-.26.68.68,0,0,1-.09-.35V247.83a.82.82,0,0,1,.08-.38A1.42,1.42,0,0,1,246,247.17Zm10.76,7.19a4.12,4.12,0,0,0-.24-1.4,3.73,3.73,0,0,0-.68-1.16,3.17,3.17,0,0,0-2.4-1.07,3.52,3.52,0,0,0-1.37.27,3.72,3.72,0,0,0-1.15.74,3.81,3.81,0,0,0-.79,1.1,3.54,3.54,0,0,0-.34,1.35v.17a3.58,3.58,0,0,0,.29,1.43,3.49,3.49,0,0,0,.78,1.16,3.63,3.63,0,0,0,1.17.78,3.52,3.52,0,0,0,1.41.29,3.17,3.17,0,0,0,2.4-1.07,3.42,3.42,0,0,0,.68-1.16A4.17,4.17,0,0,0,256.74,254.36Z"/><path class="cls-6" d="M56.53,121.35a.35.35,0,0,1,.09-.25.3.3,0,0,1,.24-.09h4.77a3.74,3.74,0,0,1,1.42.28,3.7,3.7,0,0,1,1.16.78A3.57,3.57,0,0,1,65,123.2a3.47,3.47,0,0,1,.28,1.4,3.31,3.31,0,0,1-.14,1,3.7,3.7,0,0,1-1.69,2.11l1.9,3.58a2,2,0,0,0,.13.24.52.52,0,0,1,.08.24.22.22,0,0,1-.08.18.33.33,0,0,1-.21.07H62.73a.35.35,0,0,1-.22-.08.31.31,0,0,1-.13-.2l-1.79-3.37h-1.2v3.33c0,.21-.11.32-.34.32H56.86a.36.36,0,0,1-.24-.08.3.3,0,0,1-.09-.24Zm5.78,3.27a1.41,1.41,0,0,0-.08-.44,1.34,1.34,0,0,0-.23-.4,1.15,1.15,0,0,0-.35-.31,1.21,1.21,0,0,0-.46-.17l-.39,0H59.39V126H61l.23,0a1.1,1.1,0,0,0,.47-.16,1.22,1.22,0,0,0,.34-.3,1.2,1.2,0,0,0,.22-.4A1.49,1.49,0,0,0,62.31,124.62Z"/><path class="cls-6" d="M67.51,121.33a.39.39,0,0,1,.11-.22.29.29,0,0,1,.25-.1h2.55a.33.33,0,0,1,.35.28l2,6.7,2-6.7a.38.38,0,0,1,.38-.28H77.7a.36.36,0,0,1,.24.09.35.35,0,0,1,.12.23c.17,1.74.35,3.45.53,5.16s.35,3.42.53,5.15v0c0,.19-.11.29-.33.29H76.7a.31.31,0,0,1-.35-.33l-.64-5.7-1.66,5.74a.46.46,0,0,1-.11.18.28.28,0,0,1-.18.1H71.82a.32.32,0,0,1-.19-.1.33.33,0,0,1-.1-.18L69.87,126l-.65,5.69a.31.31,0,0,1-.36.33H66.77c-.21,0-.31-.11-.31-.33Z"/><path class="cls-6" d="M81.06,121.35a.35.35,0,0,1,.09-.25.32.32,0,0,1,.24-.09h4.9a3,3,0,0,1,1.22.25,3,3,0,0,1,1,.68,3.1,3.1,0,0,1,.68,1,3,3,0,0,1,.25,1.24,3.13,3.13,0,0,1-.17,1,2.86,2.86,0,0,1-.49.85,3.75,3.75,0,0,1,.84,1.16,3.3,3.3,0,0,1,.31,1.42A3.33,3.33,0,0,1,89,131a3.37,3.37,0,0,1-1,.72,2.91,2.91,0,0,1-1.24.27H81.39a.36.36,0,0,1-.24-.08.3.3,0,0,1-.09-.24Zm5.56,2.91a1.16,1.16,0,0,0-.08-.42,1.27,1.27,0,0,0-.23-.34,1.31,1.31,0,0,0-.36-.23,1.06,1.06,0,0,0-.45-.08H83.92v2.14h1.56a1.34,1.34,0,0,0,.46-.08,1.09,1.09,0,0,0,.36-.22,1,1,0,0,0,.23-.34A1,1,0,0,0,86.62,124.26Zm.39,4.28a1.36,1.36,0,0,0-.08-.44,1.28,1.28,0,0,0-.24-.39,1.12,1.12,0,0,0-.36-.29,1,1,0,0,0-.46-.11h-2v2.46h2a1,1,0,0,0,.45-.1,1.25,1.25,0,0,0,.37-.28,1.28,1.28,0,0,0,.24-.39A1.44,1.44,0,0,0,87,128.54Z"/><path class="cls-7" d="M56.92,121a.32.32,0,0,1,.09-.24.27.27,0,0,1,.24-.1H62a3.58,3.58,0,0,1,1.43.29,3.67,3.67,0,0,1,1.16.77,3.33,3.33,0,0,1,.77,1.14,3.43,3.43,0,0,1,.29,1.39,3.31,3.31,0,0,1-.14,1,3.44,3.44,0,0,1-.38.85,3.33,3.33,0,0,1-.58.72,3.58,3.58,0,0,1-.73.55l1.9,3.57a1.47,1.47,0,0,0,.13.24.59.59,0,0,1,.08.25.25.25,0,0,1-.08.18.33.33,0,0,1-.21.06H63.12a.35.35,0,0,1-.22-.08.29.29,0,0,1-.13-.19L61,128H59.78v3.33c0,.21-.11.32-.34.32H57.25a.36.36,0,0,1-.24-.08.3.3,0,0,1-.09-.24Zm5.78,3.28a1.32,1.32,0,0,0-.08-.44,1.27,1.27,0,0,0-.23-.41,1.47,1.47,0,0,0-.35-.31,1.2,1.2,0,0,0-.46-.16l-.39,0H59.78v2.71h1.59l.23,0a1.24,1.24,0,0,0,.47-.15,1.12,1.12,0,0,0,.34-.31,1.2,1.2,0,0,0,.22-.4A1.43,1.43,0,0,0,62.7,124.26Z"/><path class="cls-7" d="M67.9,121a.44.44,0,0,1,.1-.23.36.36,0,0,1,.26-.1h2.55a.34.34,0,0,1,.35.28l2,6.7,2-6.7a.38.38,0,0,1,.38-.28h2.52a.38.38,0,0,1,.36.33c.17,1.73.35,3.45.53,5.15s.35,3.42.53,5.15v0c0,.19-.11.29-.33.29H77.09a.31.31,0,0,1-.35-.33l-.64-5.7-1.66,5.74a.46.46,0,0,1-.11.18.24.24,0,0,1-.18.1H72.21a.27.27,0,0,1-.19-.1.35.35,0,0,1-.11-.18l-1.66-5.72-.64,5.68a.31.31,0,0,1-.36.33H67.16c-.21,0-.31-.11-.31-.33Z"/><path class="cls-7" d="M81.45,121a.32.32,0,0,1,.09-.24.28.28,0,0,1,.24-.1h4.9a3.13,3.13,0,0,1,1.22.25,3.18,3.18,0,0,1,1.69,1.69,3.05,3.05,0,0,1,.25,1.24,3.13,3.13,0,0,1-.17,1,2.86,2.86,0,0,1-.49.85,3.75,3.75,0,0,1,.84,1.16,3.32,3.32,0,0,1,.31,1.43,3.24,3.24,0,0,1-.26,1.27,3.27,3.27,0,0,1-.7,1.05,3.05,3.05,0,0,1-1,.72,3,3,0,0,1-1.24.27H81.78a.36.36,0,0,1-.24-.08.3.3,0,0,1-.09-.24ZM87,123.89a1.07,1.07,0,0,0-.08-.41,1.09,1.09,0,0,0-.59-.58,1.33,1.33,0,0,0-.45-.08H84.31V125h1.56a1.34,1.34,0,0,0,.46-.08,1,1,0,0,0,.36-.22,1,1,0,0,0,.23-.34A1,1,0,0,0,87,123.89Zm.39,4.29a1.2,1.2,0,0,0-.09-.45,1.18,1.18,0,0,0-.23-.39,1.28,1.28,0,0,0-.36-.29,1,1,0,0,0-.46-.11h-2v2.47h2a1,1,0,0,0,.45-.11,1.07,1.07,0,0,0,.36-.27,1.1,1.1,0,0,0,.24-.4A1.17,1.17,0,0,0,87.4,128.18Z"/></g></g></g></svg>