<svg xmlns="http://www.w3.org/2000/svg" xmlns:xlink="http://www.w3.org/1999/xlink" viewBox="0 0 320.79 288.03"><defs><style>.cls-1,.cls-2,.cls-4{fill:none;stroke:#424242;stroke-linecap:round;stroke-miterlimit:10;}.cls-1{stroke-dasharray:5.97 5.97;}.cls-2{stroke-dasharray:6.05 6.05;}.cls-16,.cls-3{fill:#424242;}.cls-4{stroke-dasharray:6;}.cls-5{fill:url(#radial-gradient);}.cls-6{fill:#4d4d4d;}.cls-7{fill:#6b6b6b;}.cls-12,.cls-8{fill:#404040;}.cls-9{fill:#ffb000;}.cls-10{fill:#ffd26e;}.cls-11{fill:#ffa200;}.cls-12{font-size:22.84px;font-family:Montserrat-Bold, Montserrat;font-weight:700;}.cls-13{letter-spacing:0em;}.cls-14{letter-spacing:-0.01em;}.cls-15{letter-spacing:0em;}.cls-16{opacity:0.4;}</style><radialGradient id="radial-gradient" cx="-172.61" cy="9422.09" r="38.73" gradientTransform="translate(376.34 -1695.06) scale(1.2 0.21)" gradientUnits="userSpaceOnUse"><stop offset="0" stop-color="#424242" stop-opacity="0.6"/><stop offset="1" stop-color="#fff" stop-opacity="0"/></radialGradient></defs><title>secure</title><g id="Layer_2" data-name="Layer 2"><g id="Layer_3" data-name="Layer 3"><circle class="cls-1" cx="164.78" cy="148.61" r="127.4" transform="translate(-56.82 160.04) rotate(-45)"/><circle class="cls-2" cx="164.78" cy="148.61" r="109.76" transform="translate(-56.82 160.04) rotate(-45)"/><circle class="cls-3" cx="164.78" cy="21.21" r="2.77"/><line class="cls-4" x1="164.78" y1="21.21" x2="164.78" y2="148.61"/><path class="cls-3" d="M44.47,106.6a2.78,2.78,0,1,1-3.5,1.78A2.78,2.78,0,0,1,44.47,106.6Z"/><line class="cls-4" x1="43.61" y1="109.24" x2="164.78" y2="148.61"/><path class="cls-3" d="M87.65,250.05a2.77,2.77,0,1,1,.61,3.87A2.77,2.77,0,0,1,87.65,250.05Z"/><line class="cls-4" x1="89.89" y1="251.68" x2="164.78" y2="148.61"/><path class="cls-3" d="M237.42,253.31a2.77,2.77,0,1,1,3.88.61A2.78,2.78,0,0,1,237.42,253.31Z"/><line class="cls-4" x1="239.67" y1="251.68" x2="164.78" y2="148.61"/><path class="cls-3" d="M286.8,111.88a2.78,2.78,0,1,1,1.78-3.5A2.78,2.78,0,0,1,286.8,111.88Z"/><line class="cls-4" x1="285.95" y1="109.24" x2="164.78" y2="148.61"/><ellipse class="cls-5" cx="168.36" cy="245.89" rx="46.67" ry="7.98"/><path class="cls-6" d="M226.11,85.1a16,16,0,0,1,1.13-5.89c-17-10.84-38.78-15.1-58.88-15.1s-41.92,4.26-58.88,15.1a16,16,0,0,1-14.86,21.93c.4,25.92,2.94,56.8,15.38,80.49,13.44,25.58,40.31,43.32,58.36,51.48,18-8.16,44.92-25.9,58.35-51.48,12.45-23.69,15-54.57,15.38-80.49A16,16,0,0,1,226.11,85.1Z"/><path class="cls-6" d="M242.08,101.85c0-.23,0-.47,0-.71a15.94,15.94,0,0,1-6.27-1.3A15.9,15.9,0,0,0,242.08,101.85Z"/><path class="cls-7" d="M111.6,182.43c-12.45-23.69-15-54.16-15.37-80.07C107.67,100.76,114.5,91,111.07,80,128,69.17,149.85,64.9,170,64.9c17.18,0,35.61,3.14,51.19,10.81-15.91-8.26-35-11.6-52.78-11.6-20.1,0-41.92,4.26-58.88,15.1a16,16,0,0,1-14.86,21.93c.4,25.92,2.94,56.8,15.38,80.49,12.54,23.88,36.8,40.93,54.65,49.73C147,222.35,123.77,205.6,111.6,182.43Z"/><path class="cls-8" d="M214.06,85.63,137.47,197.87l33.85,33.85c17.92-8.69,42.68-25.88,55.39-50.09,10.55-20.08,14-45.32,15-68.33Z"/><path class="cls-9" d="M168.36,219.74C151.21,211,131,195.65,120.67,176c-10.22-19.46-13-45.25-13.75-65.71a28.17,28.17,0,0,0,15.74-24.69c12.55-6.14,28.47-9.47,45.7-9.47s33.14,3.33,45.7,9.47a28.14,28.14,0,0,0,15.73,24.69C229,130.78,226.26,156.57,216,176,205.73,195.65,185.5,211,168.36,219.74Z"/><path class="cls-10" d="M229.79,110.34v0c-.23-.11-.46-.24-.69-.37Z"/><path class="cls-11" d="M216,176c10.22-19.46,13-45.25,13.75-65.71a28.14,28.14,0,0,1-15.73-24.69c-12.56-6.14-28.47-9.47-45.7-9.47V219.74C185.5,211,205.73,195.65,216,176Z"/><path class="cls-10" d="M121.87,176.69c-10.22-19.46-13-45.25-13.75-65.71a28.14,28.14,0,0,0,15.73-24.69c12.56-6.14,28.47-9.47,45.7-9.47,16.7,0,32.15,3.13,44.51,8.91v-.1c-12.56-6.14-28.47-9.47-45.7-9.47s-33.15,3.33-45.7,9.47a28.17,28.17,0,0,1-15.74,24.69c.78,20.46,3.53,46.25,13.75,65.71,9.73,18.51,28.29,33.22,44.75,42.16C149.26,209.19,131.36,194.76,121.87,176.69Z"/><text class="cls-12" transform="translate(120.06 148.61)">S<tspan class="cls-13" x="14.57" y="0">E</tspan><tspan class="cls-14" x="29.86" y="0">C</tspan><tspan class="cls-15" x="46.46" y="0">URE</tspan></text><polygon class="cls-6" points="168.36 101.35 151.97 117.75 145.19 110.97 168.36 87.79 191.53 110.97 184.75 117.75 168.36 101.35"/><polygon class="cls-8" points="191.53 110.97 184.75 117.75 168.36 101.35 168.36 87.79 191.53 110.97"/><polygon class="cls-6" points="168.36 181.15 151.97 164.76 145.19 171.54 168.36 194.71 191.53 171.54 184.75 164.76 168.36 181.15"/><polygon class="cls-8" points="191.53 171.54 184.75 164.76 168.36 181.15 168.36 194.71 191.53 171.54"/><path class="cls-16" d="M67.82,29.4l-1.24,0A8.81,8.81,0,0,0,66.46,28l1.23-.25a.33.33,0,0,0,.27-.4.35.35,0,0,0-.4-.27l-1.24.25A8.45,8.45,0,0,0,65.9,26L67,25.5a.34.34,0,1,0-.29-.62l-1.13.54a9.28,9.28,0,0,0-.73-1.15l1-.79a.34.34,0,1,0-.43-.53l-1,.79a9.59,9.59,0,0,0-1-.94l.75-1a.34.34,0,0,0-.55-.41l-.75,1a7.63,7.63,0,0,0-1.18-.67l.5-1.17a.34.34,0,0,0-.18-.44.33.33,0,0,0-.45.18l-.5,1.16a8.13,8.13,0,0,0-1.3-.39l.2-1.23a.35.35,0,0,0-.28-.39.34.34,0,0,0-.39.28L59.14,21a8.74,8.74,0,0,0-1-.07l-.34,0-.1-1.25a.35.35,0,0,0-.37-.32.34.34,0,0,0-.31.37L57.1,21a7.29,7.29,0,0,0-1.33.27L55.37,20a.34.34,0,1,0-.65.22l.4,1.19a7.68,7.68,0,0,0-1.23.58L53.22,21a.33.33,0,0,0-.47-.1.34.34,0,0,0-.1.47l.66,1.05a8.64,8.64,0,0,0-1,.86l-.91-.87a.34.34,0,0,0-.47.5l.9.87A8.45,8.45,0,0,0,51,24.83l-1.09-.63a.34.34,0,0,0-.34.59l1.08.63a9.19,9.19,0,0,0-.53,1.25l-1.2-.35a.35.35,0,0,0-.43.24.34.34,0,0,0,.24.42l1.2.35a8.32,8.32,0,0,0-.21,1.34l-1.25-.05a.35.35,0,0,0-.36.32.35.35,0,0,0,.33.36l1.24.05a8.58,8.58,0,0,0,.12,1.35L48.54,31a.36.36,0,0,0-.27.41.35.35,0,0,0,.34.27h.07l1.24-.25a7,7,0,0,0,.42,1.29l-1.13.54a.34.34,0,0,0-.16.45.35.35,0,0,0,.31.2.28.28,0,0,0,.15,0l1.12-.53a8.49,8.49,0,0,0,.73,1.14l-1,.8a.34.34,0,0,0,0,.48.33.33,0,0,0,.48,0l1-.8a8.7,8.7,0,0,0,1,.95l-.75,1a.35.35,0,0,0,.07.48.31.31,0,0,0,.2.07.35.35,0,0,0,.28-.14l.75-1a8.44,8.44,0,0,0,1.17.67L54,38.14a.35.35,0,0,0,.18.45.31.31,0,0,0,.13,0,.35.35,0,0,0,.32-.21l.49-1.16a9.44,9.44,0,0,0,1.31.39l-.2,1.22a.33.33,0,0,0,.28.39h.05A.34.34,0,0,0,56.9,39l.2-1.23a8.45,8.45,0,0,0,1,.07l.34,0,.1,1.25a.34.34,0,0,0,.34.32h0a.34.34,0,0,0,.31-.36l-.1-1.25a9.79,9.79,0,0,0,1.33-.27l.39,1.19a.36.36,0,0,0,.33.23l.11,0a.33.33,0,0,0,.21-.43l-.39-1.19a9.08,9.08,0,0,0,1.22-.58L63,37.73a.35.35,0,0,0,.29.15.29.29,0,0,0,.18-.05.34.34,0,0,0,.11-.47l-.67-1.06a7.17,7.17,0,0,0,1-.86l.9.87a.34.34,0,0,0,.24.1.36.36,0,0,0,.25-.11.34.34,0,0,0,0-.48L64.44,35a8.53,8.53,0,0,0,.82-1.08l1.08.62a.41.41,0,0,0,.18,0,.34.34,0,0,0,.29-.17.34.34,0,0,0-.12-.47l-1.09-.62A9.24,9.24,0,0,0,66.14,32l1.2.34.09,0a.34.34,0,0,0,.1-.67l-1.21-.35A8.51,8.51,0,0,0,66.54,30l1.25,0h0a.34.34,0,0,0,.35-.33A.34.34,0,0,0,67.82,29.4ZM56.38,31.06A1.1,1.1,0,1,1,57.32,30,1,1,0,0,1,56.38,31.06Zm3.16,3.81a3,3,0,0,1-2.42-1.25H62A3,3,0,0,1,59.54,34.87Zm3.16-3.81A1.1,1.1,0,1,1,63.64,30,1,1,0,0,1,62.7,31.06Z"/><path class="cls-16" d="M307.37,97.49a.35.35,0,0,0,.22.44h.1a.35.35,0,0,0,.33-.23l.39-1.19a7.47,7.47,0,0,0,1.33.27l-.1,1.25a.35.35,0,0,0,.32.37h0a.35.35,0,0,0,.34-.32l.1-1.25.33,0a8.45,8.45,0,0,0,1-.07L312,98a.34.34,0,0,0,.34.28h.05a.35.35,0,0,0,.29-.39l-.2-1.23a8.13,8.13,0,0,0,1.3-.39l.49,1.16a.36.36,0,0,0,.32.21.31.31,0,0,0,.13,0,.32.32,0,0,0,.18-.44L314.39,96a8.12,8.12,0,0,0,1.18-.67l.75,1a.32.32,0,0,0,.27.13.31.31,0,0,0,.2-.07.32.32,0,0,0,.07-.47l-.75-1a9.69,9.69,0,0,0,1-.94l1,.79a.37.37,0,0,0,.22.08.3.3,0,0,0,.26-.13.35.35,0,0,0,0-.48l-1-.79a9.28,9.28,0,0,0,.73-1.15l1.13.54a.32.32,0,0,0,.14,0,.34.34,0,0,0,.31-.19.35.35,0,0,0-.16-.46l-1.12-.53a9.71,9.71,0,0,0,.42-1.29l1.24.25h.06a.35.35,0,0,0,.34-.27.33.33,0,0,0-.27-.4l-1.24-.25a8.81,8.81,0,0,0,.12-1.36l1.24-.05a.33.33,0,0,0,.33-.35.34.34,0,0,0-.35-.33l-1.25,0a8.51,8.51,0,0,0-.22-1.34l1.21-.35a.34.34,0,0,0,.23-.42.34.34,0,0,0-.42-.23l-1.21.34a8.08,8.08,0,0,0-.53-1.25l1.08-.62a.34.34,0,1,0-.34-.59l-1.08.62a9.59,9.59,0,0,0-.82-1.08l.91-.87a.34.34,0,0,0-.48-.49l-.9.87a7.74,7.74,0,0,0-1.05-.86l.67-1.06a.34.34,0,0,0-.11-.47.35.35,0,0,0-.47.1L315,81.08a8.66,8.66,0,0,0-1.23-.58l.4-1.19a.34.34,0,0,0-.65-.22l-.4,1.19a9.65,9.65,0,0,0-1.32-.27l.09-1.25a.33.33,0,0,0-.31-.36.35.35,0,0,0-.37.31L311.1,80l-.34,0a8.42,8.42,0,0,0-1,.07l-.2-1.23a.34.34,0,0,0-.68.11l.2,1.22a9.3,9.3,0,0,0-1.3.39l-.5-1.16a.34.34,0,0,0-.44-.18.33.33,0,0,0-.18.45l.49,1.16a9.17,9.17,0,0,0-1.18.67l-.75-1a.34.34,0,0,0-.47-.07.33.33,0,0,0-.07.48l.75,1a8,8,0,0,0-1,1l-1-.8a.34.34,0,0,0-.48,0,.34.34,0,0,0,0,.48l1,.8a8.49,8.49,0,0,0-.73,1.14l-1.13-.53a.34.34,0,1,0-.29.61l1.12.54a8.85,8.85,0,0,0-.42,1.29l-1.24-.25a.34.34,0,0,0-.4.26.34.34,0,0,0,.27.41l1.24.25a7.53,7.53,0,0,0-.12,1.35l-1.24,0a.35.35,0,0,0-.33.36.33.33,0,0,0,.34.32h0l1.25,0a8.33,8.33,0,0,0,.22,1.34l-1.21.35a.34.34,0,0,0,.1.67h.09l1.21-.35a8.08,8.08,0,0,0,.53,1.25L302.2,93a.33.33,0,0,0-.13.46.36.36,0,0,0,.47.13l1.08-.63a9.59,9.59,0,0,0,.82,1.08l-.91.87a.36.36,0,0,0,0,.49.35.35,0,0,0,.25.1.36.36,0,0,0,.24-.09l.9-.87a9.6,9.6,0,0,0,1,.86l-.67,1a.36.36,0,0,0,.11.48.41.41,0,0,0,.18,0,.35.35,0,0,0,.29-.16l.67-1.06a7.68,7.68,0,0,0,1.23.58ZM312.5,88a1.09,1.09,0,1,1-.94,1.08A1,1,0,0,1,312.5,88Zm-6.32,2.16a1.09,1.09,0,1,1,.94-1.08A1,1,0,0,1,306.18,90.11Zm.74,2.56h4.84a3,3,0,0,1-4.84,0Z"/><path class="cls-16" d="M230,9.28l-1.25.05A7.35,7.35,0,0,0,228.49,8l1.21-.35a.35.35,0,0,0,.23-.43.34.34,0,0,0-.42-.23l-1.2.35a10.65,10.65,0,0,0-.53-1.25l1.08-.63a.34.34,0,0,0-.34-.59l-1.09.63a7.87,7.87,0,0,0-.82-1.08l.91-.87a.34.34,0,0,0-.47-.5l-.91.87a8,8,0,0,0-1-.86l.67-1a.36.36,0,0,0-.1-.48.35.35,0,0,0-.48.11l-.67,1.06a8,8,0,0,0-1.22-.58l.39-1.2A.34.34,0,1,0,223,.7l-.4,1.19a7.29,7.29,0,0,0-1.33-.27l.1-1.25A.35.35,0,0,0,221.1,0a.35.35,0,0,0-.37.31l-.1,1.26-.34,0a8.59,8.59,0,0,0-1,.07l-.2-1.24a.34.34,0,1,0-.67.11l.2,1.23a9.41,9.41,0,0,0-1.31.38L216.8.94a.35.35,0,0,0-.45-.18.35.35,0,0,0-.18.45l.5,1.16a8,8,0,0,0-1.18.68l-.75-1a.34.34,0,0,0-.55.41l.75,1a7.82,7.82,0,0,0-1,.94l-1-.79a.34.34,0,0,0-.48,0,.34.34,0,0,0,.05.48l1,.8a9,9,0,0,0-.73,1.15l-1.12-.54a.34.34,0,0,0-.3.62l1.13.53A8.45,8.45,0,0,0,212.09,8l-1.24-.25a.34.34,0,0,0-.14.67l1.24.25a8.6,8.6,0,0,0-.12,1.36l-1.24,0a.35.35,0,0,0,0,.69h0l1.25-.05a8.5,8.5,0,0,0,.21,1.34l-1.2.35a.33.33,0,0,0-.23.42.34.34,0,0,0,.32.25l.1,0,1.2-.35a8.23,8.23,0,0,0,.53,1.25l-1.08.63a.34.34,0,0,0-.12.47.32.32,0,0,0,.29.17.34.34,0,0,0,.17,0l1.09-.63a7.9,7.9,0,0,0,.81,1.09l-.9.87a.34.34,0,0,0,0,.48.36.36,0,0,0,.25.11.34.34,0,0,0,.23-.1l.91-.87a6.68,6.68,0,0,0,1.05.86L214.82,18a.34.34,0,0,0,.1.47.32.32,0,0,0,.19.05.34.34,0,0,0,.29-.16l.67-1.05a9.77,9.77,0,0,0,1.22.58l-.4,1.19a.34.34,0,0,0,.22.43l.11,0a.34.34,0,0,0,.32-.24l.4-1.18a9.49,9.49,0,0,0,1.33.27l-.1,1.24a.33.33,0,0,0,.31.37h0a.33.33,0,0,0,.34-.31l.1-1.25h.34a8.72,8.72,0,0,0,1-.06l.2,1.23a.33.33,0,0,0,.33.29h.06a.34.34,0,0,0,.28-.39l-.2-1.23a8.1,8.1,0,0,0,1.3-.38l.5,1.16a.34.34,0,0,0,.31.21.35.35,0,0,0,.32-.48l-.5-1.16a9.72,9.72,0,0,0,1.18-.67l.75,1a.35.35,0,0,0,.27.14.31.31,0,0,0,.21-.07.35.35,0,0,0,.07-.48l-.75-1a8.7,8.7,0,0,0,1-.95l1,.8a.33.33,0,0,0,.21.07.36.36,0,0,0,.27-.12.34.34,0,0,0,0-.48l-1-.8a7.6,7.6,0,0,0,.73-1.14l1.13.53a.42.42,0,0,0,.15,0,.35.35,0,0,0,.15-.66l-1.13-.53a8.1,8.1,0,0,0,.42-1.29l1.24.25h.07a.33.33,0,0,0,.33-.28.34.34,0,0,0-.26-.4l-1.24-.25a8.58,8.58,0,0,0,.12-1.35L230,10a.35.35,0,0,0,.33-.36A.33.33,0,0,0,230,9.28ZM215.7,11.72a1,1,0,0,1-.94-1.09.95.95,0,1,1,1.88,0A1,1,0,0,1,215.7,11.72Zm3.16,3.81a3,3,0,0,1-2.42-1.25h4.85A3,3,0,0,1,218.86,15.53ZM222,11.72a1,1,0,0,1-.94-1.09.95.95,0,1,1,1.88,0A1,1,0,0,1,222,11.72Z"/><path class="cls-16" d="M19.74,135.31l-1.26,0a7.68,7.68,0,0,0-.11-1.35l1.23-.26a.34.34,0,0,0-.14-.67l-1.22.25A9.2,9.2,0,0,0,17.8,132l1.14-.54a.34.34,0,0,0-.3-.62l-1.14.54a8.53,8.53,0,0,0-.72-1.15l1-.79a.34.34,0,0,0,.05-.48.34.34,0,0,0-.48,0l-1,.79a9.75,9.75,0,0,0-1-.94l.76-1a.34.34,0,0,0-.55-.41l-.76,1a8.55,8.55,0,0,0-1.17-.69l.49-1.14a.34.34,0,1,0-.63-.27L13,127.38a8.38,8.38,0,0,0-1.3-.37l.19-1.25a.34.34,0,0,0-.28-.39.35.35,0,0,0-.39.28L11,126.9a8.79,8.79,0,0,0-1.36-.06l-.1-1.24a.34.34,0,0,0-.37-.31.33.33,0,0,0-.31.37L9,126.9a8.75,8.75,0,0,0-1,.18l-.33.1L7.26,126a.34.34,0,0,0-.64.22L7,127.4a8.66,8.66,0,0,0-1.23.58l-.67-1.06a.34.34,0,0,0-.58.37l.67,1.06a9.6,9.6,0,0,0-1,.86l-.9-.87a.34.34,0,0,0-.48,0,.33.33,0,0,0,0,.48l.9.86a8.55,8.55,0,0,0-.81,1.09l-1.09-.62a.33.33,0,0,0-.46.12.34.34,0,0,0,.12.47l1.09.62A9.76,9.76,0,0,0,2,132.63l-1.2-.34a.34.34,0,1,0-.19.65l1.2.35a7.62,7.62,0,0,0-.21,1.34l-1.26,0a.35.35,0,0,0,0,.69l1.25,0a9,9,0,0,0,.12,1.36l-1.23.25a.34.34,0,0,0,.07.68H.61l1.22-.25a8.05,8.05,0,0,0,.44,1.28l-1.14.54a.35.35,0,0,0-.16.46.34.34,0,0,0,.31.19.32.32,0,0,0,.14,0l1.14-.54a9.66,9.66,0,0,0,.72,1.15l-1,.79a.34.34,0,0,0,0,.48.32.32,0,0,0,.26.12.36.36,0,0,0,.22-.07l1-.8a8.8,8.8,0,0,0,1,.94l-.76,1a.35.35,0,0,0,.07.48.37.37,0,0,0,.21.06.34.34,0,0,0,.27-.13l.75-1a10.62,10.62,0,0,0,1.18.68l-.49,1.14a.35.35,0,0,0,.18.45.35.35,0,0,0,.14,0,.34.34,0,0,0,.31-.21l.49-1.15a8.38,8.38,0,0,0,1.3.37l-.2,1.25a.34.34,0,0,0,.29.39H8.5a.33.33,0,0,0,.34-.28l.2-1.25a8.66,8.66,0,0,0,1.35.06L10.5,145a.33.33,0,0,0,.34.31h0a.33.33,0,0,0,.31-.37l-.11-1.24a8.92,8.92,0,0,0,1-.18l.32-.1.4,1.19a.35.35,0,0,0,.33.23.23.23,0,0,0,.11,0,.33.33,0,0,0,.21-.43l-.4-1.19a7.68,7.68,0,0,0,1.23-.58l.67,1.06a.36.36,0,0,0,.29.16.32.32,0,0,0,.18-.06.34.34,0,0,0,.11-.47l-.68-1.06a8,8,0,0,0,1.05-.86l.91.87a.33.33,0,0,0,.23.09.32.32,0,0,0,.25-.11.34.34,0,0,0,0-.48l-.9-.86a8.55,8.55,0,0,0,.81-1.09l1.08.62a.41.41,0,0,0,.17.05.34.34,0,0,0,.3-.17.34.34,0,0,0-.13-.47l-1.09-.62a8.08,8.08,0,0,0,.53-1.25l1.21.34.09,0a.34.34,0,0,0,.33-.25.33.33,0,0,0-.23-.42l-1.2-.35a9.84,9.84,0,0,0,.21-1.34l1.25.05h0a.35.35,0,0,0,.34-.33A.35.35,0,0,0,19.74,135.31Zm-11,2.06a1.09,1.09,0,0,1-.52-2.1,1.09,1.09,0,0,1,.52,2.1Zm4,2.93a3,3,0,0,1-2.65-.62l4.7-1.17A3,3,0,0,1,12.75,140.3Zm2.15-4.46a1,1,0,0,1-1.18-.82,1,1,0,0,1,.65-1.28,1,1,0,0,1,1.18.82A1,1,0,0,1,14.9,135.84Z"/><path class="cls-16" d="M255,278.35l-1.25-.09a8.66,8.66,0,0,0-.06-1.35l1.23-.21a.36.36,0,0,0,.28-.4.35.35,0,0,0-.4-.28l-1.23.22a9.3,9.3,0,0,0-.39-1.3l1.15-.51a.34.34,0,1,0-.28-.62l-1.15.5a7.59,7.59,0,0,0-.68-1.17l1-.76a.34.34,0,0,0,.06-.48.33.33,0,0,0-.47-.06l-1,.76a8.7,8.7,0,0,0-1-1l.79-1a.35.35,0,0,0-.06-.48.34.34,0,0,0-.48.05l-.78,1a8.53,8.53,0,0,0-1.15-.72l.52-1.13a.34.34,0,0,0-.16-.46.35.35,0,0,0-.46.17l-.53,1.14-.31-.14a8.41,8.41,0,0,0-1-.28l.24-1.23a.33.33,0,0,0-.27-.4.34.34,0,0,0-.4.27l-.23,1.22a9,9,0,0,0-1.36-.09l-.06-1.26a.35.35,0,0,0-.36-.33.34.34,0,0,0-.32.36l.06,1.26a8.53,8.53,0,0,0-1.34.23l-.36-1.2a.34.34,0,0,0-.42-.23.34.34,0,0,0-.23.43l.35,1.19a9.17,9.17,0,0,0-1.24.55l-.64-1.08a.32.32,0,0,0-.46-.12.33.33,0,0,0-.13.46l.64,1.09a8.53,8.53,0,0,0-1.08.82l-.87-.89a.34.34,0,0,0-.49.47l.87.89a7.92,7.92,0,0,0-.84,1.07l-1.08-.67a.35.35,0,0,0-.47.12.34.34,0,0,0,.12.47l1.07.66a8.66,8.66,0,0,0-.58,1.23l-1.18-.38a.34.34,0,0,0-.43.21.35.35,0,0,0,.22.44l1.19.38a7.81,7.81,0,0,0-.26,1.33l-1.26-.09a.34.34,0,0,0-.36.32.33.33,0,0,0,.31.36l1.25.09a8.79,8.79,0,0,0,.07,1.36l-1.23.21a.35.35,0,0,0-.28.4.34.34,0,0,0,.34.28h.05l1.24-.22a8.13,8.13,0,0,0,.39,1.3l-1.15.5a.36.36,0,0,0-.18.46.36.36,0,0,0,.32.2.31.31,0,0,0,.13,0l1.15-.5a8.55,8.55,0,0,0,.69,1.17l-1,.76a.35.35,0,0,0-.06.48.34.34,0,0,0,.27.13.31.31,0,0,0,.21-.07l1-.76a7.82,7.82,0,0,0,.94,1l-.78,1a.34.34,0,0,0,.05.48.33.33,0,0,0,.48-.05l.79-1a7.94,7.94,0,0,0,1.15.72l-.53,1.13a.35.35,0,0,0,.17.46l.14,0a.34.34,0,0,0,.31-.2l.53-1.14.31.13a9.08,9.08,0,0,0,1,.29l-.24,1.23a.35.35,0,0,0,.27.4h.07a.34.34,0,0,0,.33-.28l.24-1.22a8.88,8.88,0,0,0,1.36.09l.06,1.26a.34.34,0,0,0,.34.32h0a.34.34,0,0,0,.32-.36l-.06-1.26a8.71,8.71,0,0,0,1.34-.22l.36,1.19a.34.34,0,0,0,.32.25l.1,0a.34.34,0,0,0,.23-.42l-.36-1.19a9.17,9.17,0,0,0,1.24-.55l.64,1.08a.35.35,0,0,0,.3.17.34.34,0,0,0,.17-.05.33.33,0,0,0,.12-.46l-.64-1.09a8.76,8.76,0,0,0,1.08-.82l.88.89a.31.31,0,0,0,.24.1.36.36,0,0,0,.24-.09.35.35,0,0,0,0-.49l-.86-.89a8.9,8.9,0,0,0,.84-1.06l1.07.66a.31.31,0,0,0,.18.05.32.32,0,0,0,.29-.16.34.34,0,0,0-.11-.47l-1.07-.66a8.66,8.66,0,0,0,.58-1.23l1.18.38.1,0a.34.34,0,0,0,.11-.67l-1.19-.38a9.18,9.18,0,0,0,.26-1.33L255,279h0a.35.35,0,0,0,0-.69Zm-15.1-1.68a1,1,0,1,1,.51,1.34A1,1,0,0,1,239.94,276.67Zm2.15,6a3,3,0,0,1-1.84-2l4.55,1.68A3,3,0,0,1,242.09,282.68Zm5.55-3.17a1,1,0,1,1-.51-1.34A1,1,0,0,1,247.64,279.51Z"/><path class="cls-16" d="M39.11,257.58a.35.35,0,0,0,.29.39h.05a.34.34,0,0,0,.34-.29l.19-1.23a8.83,8.83,0,0,0,1.36,0l.11,1.26a.33.33,0,0,0,.34.31h0a.35.35,0,0,0,.31-.37L42,256.43a7.65,7.65,0,0,0,1.33-.27l.4,1.18a.34.34,0,0,0,.32.24l.11,0a.35.35,0,0,0,.22-.44l-.4-1.18a8.55,8.55,0,0,0,1.22-.59l.68,1.07a.35.35,0,0,0,.47.1.34.34,0,0,0,.1-.47L45.79,255a7.74,7.74,0,0,0,1.06-.85l.9.85a.3.3,0,0,0,.23.1.36.36,0,0,0,.25-.11.34.34,0,0,0,0-.48l-.91-.86a8.35,8.35,0,0,0,.63-.81c.07-.09.12-.19.18-.28l1.09.62a.33.33,0,0,0,.17,0,.35.35,0,0,0,.3-.17.34.34,0,0,0-.13-.46l-1.09-.63a8.08,8.08,0,0,0,.53-1.25l1.2.35h.1a.35.35,0,0,0,.33-.25.34.34,0,0,0-.24-.42L49.17,250a9.12,9.12,0,0,0,.22-1.34l1.25,0h0a.35.35,0,0,0,.34-.33.33.33,0,0,0-.33-.35L49.41,248a8.78,8.78,0,0,0-.11-1.35l1.22-.26a.34.34,0,0,0,.27-.4.34.34,0,0,0-.41-.26l-1.23.25a8,8,0,0,0-.43-1.28l1.13-.55a.34.34,0,0,0,.16-.45.35.35,0,0,0-.46-.16l-1.12.54a7.66,7.66,0,0,0-.74-1.14l1-.8a.34.34,0,0,0-.43-.53l-1,.8a8.85,8.85,0,0,0-1-.94l.75-1a.34.34,0,1,0-.55-.41l-.74,1a8.69,8.69,0,0,0-1.18-.67l.49-1.16a.35.35,0,0,0-.18-.45.35.35,0,0,0-.45.18l-.49,1.17a8.87,8.87,0,0,0-1.31-.38l.2-1.23a.34.34,0,0,0-.29-.39.35.35,0,0,0-.39.28l-.19,1.24a7.74,7.74,0,0,0-1.36,0l-.11-1.25a.33.33,0,0,0-.37-.31.35.35,0,0,0-.31.37l.11,1.25a8.71,8.71,0,0,0-1.33.27l-.4-1.18a.34.34,0,0,0-.65.22l.4,1.18a9.77,9.77,0,0,0-1.22.59L36,239.69a.34.34,0,0,0-.57.37l.68,1.06a8.66,8.66,0,0,0-1.06.86l-.9-.86a.34.34,0,0,0-.47.5l.91.86a6.92,6.92,0,0,0-.63.8c-.07.1-.12.2-.18.29L32.71,243a.34.34,0,0,0-.47.12.35.35,0,0,0,.13.47l1.09.62a9,9,0,0,0-.53,1.25l-1.21-.34a.34.34,0,0,0-.42.23.35.35,0,0,0,.24.43l1.21.34a8.71,8.71,0,0,0-.22,1.34l-1.25,0a.34.34,0,0,0-.35.33.34.34,0,0,0,.33.35l1.25,0a8.81,8.81,0,0,0,.11,1.36l-1.22.25a.34.34,0,0,0-.27.41.35.35,0,0,0,.34.27h.07l1.23-.26a8.49,8.49,0,0,0,.43,1.29l-1.13.54a.35.35,0,0,0-.16.46.34.34,0,0,0,.31.19.4.4,0,0,0,.15,0l1.12-.54a7.66,7.66,0,0,0,.74,1.14l-1,.8a.34.34,0,0,0,0,.48.36.36,0,0,0,.27.12.33.33,0,0,0,.21-.07l1-.8a8.77,8.77,0,0,0,1,.93l-.75,1a.34.34,0,0,0,.07.47.31.31,0,0,0,.2.07.35.35,0,0,0,.28-.14l.74-1a8.61,8.61,0,0,0,1.18.66l-.49,1.17a.34.34,0,0,0,.18.44.35.35,0,0,0,.14,0,.34.34,0,0,0,.31-.21L38,256a8.87,8.87,0,0,0,1.31.38Zm7.55-10.29a3,3,0,0,1-.34,2.7,3,3,0,0,1-2.4,1.3ZM43.17,244A1.09,1.09,0,0,1,45,245.23,1.09,1.09,0,0,1,43.17,244Zm-3.57,5.22a1.09,1.09,0,0,1,1.79,1.22,1.09,1.09,0,0,1-1.79-1.22Z"/><path class="cls-16" d="M314.22,208.82a.35.35,0,0,0,0-.69l-1.25.05a8.71,8.71,0,0,0-.22-1.34l1.21-.35a.34.34,0,1,0-.19-.65l-1.2.34a8.52,8.52,0,0,0-.53-1.25l1.09-.62a.34.34,0,0,0-.34-.6l-1.09.63a2.82,2.82,0,0,0-.18-.29,7.16,7.16,0,0,0-.63-.8l.91-.87a.34.34,0,1,0-.47-.49l-.9.86a8.66,8.66,0,0,0-1.06-.86l.68-1.06a.35.35,0,0,0-.1-.48.34.34,0,0,0-.47.11l-.68,1.06a8.55,8.55,0,0,0-1.22-.59l.4-1.18a.36.36,0,0,0-.22-.44.34.34,0,0,0-.43.22l-.4,1.18a7.65,7.65,0,0,0-1.33-.27l.11-1.26a.35.35,0,0,0-.31-.37.35.35,0,0,0-.37.31l-.11,1.26a8.83,8.83,0,0,0-1.36,0l-.19-1.23a.34.34,0,1,0-.68.11l.2,1.23a7.51,7.51,0,0,0-1.31.37l-.49-1.16a.34.34,0,1,0-.63.27l.49,1.16a8.69,8.69,0,0,0-1.18.67l-.74-1a.34.34,0,0,0-.55.41l.74,1a8.71,8.71,0,0,0-1,.94l-1-.8a.35.35,0,0,0-.48,0,.34.34,0,0,0,.05.48l1,.8a9.17,9.17,0,0,0-.73,1.14l-1.12-.54a.34.34,0,0,0-.46.17.34.34,0,0,0,.16.45l1.13.54a8.49,8.49,0,0,0-.43,1.29l-1.23-.26a.34.34,0,0,0-.41.27.34.34,0,0,0,.27.4l1.22.26a8.58,8.58,0,0,0-.11,1.35l-1.25,0a.35.35,0,0,0-.33.36.34.34,0,0,0,.34.33h0l1.25,0a8.71,8.71,0,0,0,.22,1.34l-1.21.35a.34.34,0,0,0-.24.42.35.35,0,0,0,.33.25l.09,0,1.21-.34a7.56,7.56,0,0,0,.53,1.25l-1.09.62a.34.34,0,0,0,.17.64.33.33,0,0,0,.17,0l1.09-.63a2.82,2.82,0,0,0,.18.29,6.16,6.16,0,0,0,.63.8l-.91.86a.35.35,0,0,0,0,.49.35.35,0,0,0,.48,0l.9-.86a8.66,8.66,0,0,0,1.06.86l-.68,1.06a.34.34,0,0,0,.1.48.41.41,0,0,0,.18.05.34.34,0,0,0,.29-.16l.68-1.06a8.55,8.55,0,0,0,1.22.59l-.4,1.18a.34.34,0,0,0,.22.43.2.2,0,0,0,.11,0,.34.34,0,0,0,.32-.23l.4-1.18a8.47,8.47,0,0,0,1.33.27l-.11,1.26a.35.35,0,0,0,.31.37h0a.34.34,0,0,0,.34-.31l.11-1.26a8.83,8.83,0,0,0,1.36,0l.19,1.23a.34.34,0,0,0,.34.29h.05a.34.34,0,0,0,.29-.39l-.2-1.23a7.8,7.8,0,0,0,1.31-.38l.49,1.17a.34.34,0,0,0,.31.21.35.35,0,0,0,.14,0,.35.35,0,0,0,.18-.45l-.49-1.16a8.69,8.69,0,0,0,1.18-.67l.74,1a.35.35,0,0,0,.28.14.31.31,0,0,0,.2-.07.35.35,0,0,0,.07-.48l-.75-1a8,8,0,0,0,1-.94l1,.8a.34.34,0,0,0,.21.08.36.36,0,0,0,.27-.12.35.35,0,0,0,0-.49l-1-.79a8.31,8.31,0,0,0,.74-1.15l1.12.54a.28.28,0,0,0,.15,0,.34.34,0,0,0,.15-.65l-1.13-.54a8.49,8.49,0,0,0,.43-1.29l1.23.26H314a.36.36,0,0,0,.34-.28.35.35,0,0,0-.27-.4l-1.23-.26a7.61,7.61,0,0,0,.12-1.35Zm-15.06,1.94a3,3,0,0,1-.34-2.71l2.74,4A3,3,0,0,1,299.16,210.76Zm2.78-4.6a1,1,0,0,1-1.42-.16,1.09,1.09,0,0,1,1.79-1.22A1,1,0,0,1,301.94,206.16Zm3.57,5.22a1,1,0,0,1-1.42-.16,1.09,1.09,0,0,1,1.79-1.22A1,1,0,0,1,305.51,211.38Z"/></g></g></svg>